<?xml version="1.0" standalone="no"?><!DOCTYPE svg PUBLIC "-//W3C//DTD SVG 1.1//EN" "http://www.w3.org/Graphics/SVG/1.1/DTD/svg11.dtd"><svg t="1555593634975" class="icon" style="" viewBox="0 0 1024 1024" version="1.1" xmlns="http://www.w3.org/2000/svg" p-id="40575" xmlns:xlink="http://www.w3.org/1999/xlink" width="48" height="48"><defs><style type="text/css"></style></defs><path d="M164 127.1h696c55.2 0 100 44.8 100 100v184c0 55.2-44.8 100-100 100H164c-55.2 0-100-44.8-100-100v-184c0-55.2 44.8-100 100-100z" fill="#ECF0F0" p-id="40576"></path><path d="M164 167.1c-33.1 0-60 26.9-60 60v184c0 33.1 26.9 60 60 60h696c33.1 0 60-26.9 60-60v-184c0-33.1-26.9-60-60-60H164z m0-40h696c55.2 0 100 44.8 100 100v184c0 55.2-44.8 100-100 100H164c-55.2 0-100-44.8-100-100v-184c0-55.2 44.8-100 100-100z" fill="#233E49" p-id="40577"></path><path d="M858 260.6c0 24.8-19.7 44.5-44.5 44.5S769 285.4 769 260.6s19.7-44.5 44.5-44.5 44.5 19.7 44.5 44.5" fill="#E7C306" p-id="40578"></path><path d="M813 317.1c-31.7 0-57-25.1-57-56.5s25.3-56.5 57-56.5 57 25.1 57 56.5-25.3 56.5-57 56.5z m0-87.9c-17.7 0-31.7 13.8-31.7 31.4s14 31.4 31.7 31.4 31.7-13.8 31.7-31.4-14-31.4-31.7-31.4z" fill="#233E49" p-id="40579"></path><path d="M801 261.1c0 2.8-2.2 5-5 5s-5-2.2-5-5c0-12.8 10.2-23 23-23s23 10.2 23 23c0 2.8-2.2 5-5 5s-5-2.2-5-5c0-7.3-5.7-13-13-13s-13 5.8-13 13z" fill="#FFFFFF" p-id="40580"></path><path d="M190 392.6c-9.7 0-17.5-7.8-17.5-17.5s7.8-17.5 17.5-17.5h471.5c9.7 0 17.5 7.8 17.5 17.5s-7.8 17.5-17.5 17.5H190z m574.5 0c-9.7 0-17.5-7.8-17.5-17.5s7.8-17.5 17.5-17.5H835c9.7 0 17.5 7.8 17.5 17.5s-7.8 17.5-17.5 17.5h-70.5zM190 446.6c-9.7 0-17.5-7.8-17.5-17.5s7.8-17.5 17.5-17.5h129.5c9.7 0 17.5 7.8 17.5 17.5s-7.8 17.5-17.5 17.5H190z m258 0c-9.7 0-17.5-7.8-17.5-17.5s7.8-17.5 17.5-17.5h387c9.7 0 17.5 7.8 17.5 17.5s-7.8 17.5-17.5 17.5H448z" fill="#233E49" p-id="40581"></path><path d="M233.5 223.1h76c22.9 0 41.5 18.6 41.5 41.5s-18.6 41.5-41.5 41.5h-76c-22.9 0-41.5-18.6-41.5-41.5s18.6-41.5 41.5-41.5z" fill="#3AD0FA" p-id="40582"></path><path d="M233 227.6c-18.5 0-33.5 15-33.5 33.5s15 33.5 33.5 33.5h76c18.5 0 33.5-15 33.5-33.5s-15-33.5-33.5-33.5h-76z m0-25h76c32.3 0 58.5 26.2 58.5 58.5s-26.2 58.5-58.5 58.5h-76c-32.3 0-58.5-26.2-58.5-58.5s26.2-58.5 58.5-58.5z" fill="#233E49" p-id="40583"></path><path d="M236 273.6c-6.9 0-12.5-5.6-12.5-12.5s5.6-12.5 12.5-12.5h69.5c6.9 0 12.5 5.6 12.5 12.5s-5.6 12.5-12.5 12.5H236z" fill="#FFFFFF" p-id="40584"></path><path d="M384.5 429.6m-22.5 0a22.5 22.5 0 1 0 45 0 22.5 22.5 0 1 0-45 0Z" fill="#233E49" p-id="40585"></path><path d="M389.6 895.5c-4 0-6.4-0.8-9.6-2.4-14.4-9.6-82.4-60-25.6-160 15.2-27.2 19.2-48.8 13.6-66.4-6.4-20-27.2-28-27.2-28-9.6-4-14.4-15.2-10.4-24.8 3.2-8 9.6-12.8 17.6-12.8 2.4 0 4.8 0.8 7.2 1.6 3.2 0 36.8 14.4 50.4 50.4 10.4 28.8 4.8 62.4-16.8 100-40 70.4 2.4 101.6 11.2 107.2 8.8 4.8 12 16.8 7.2 26.4-4.8 6.4-12 8.8-17.6 8.8zM519.2 852.3c-4 0-6.4-0.8-9.6-2.4-28.8-16.8-69.6-68.8-24-150.4 13.6-24.8 17.6-44.8 12-60-5.6-17.6-24-24.8-24-24.8-10.4-4-15.2-14.4-11.2-24.8 3.2-8 9.6-12.8 17.6-12.8 2.4 0 4.8 0.8 7.2 1.6 8 3.2 36 16 47.2 48 9.6 27.2 4.8 58.4-15.2 92.8-38.4 68.8 8 96.8 10.4 97.6 4 2.4 7.2 6.4 8.8 11.2s0.8 10.4-1.6 15.2c-4.8 6.4-12 8.8-17.6 8.8zM253.2 852.3c-4 0-6.4-0.8-9.6-2.4-28.8-16.8-69.6-68.8-24-150.4 13.6-24.8 17.6-44.8 12-60-5.6-17.6-24-24.8-24-24.8-10.4-4-15.2-14.4-11.2-24.8 3.2-8 9.6-12.8 17.6-12.8 2.4 0 4.8 0.8 7.2 1.6 8 3.2 36 16.8 47.2 48 9.6 27.2 4 58.4-15.2 93.6-38.4 68.8 8 96.8 10.4 97.6 4 2.4 7.2 6.4 8.8 11.2s0.8 10.4-1.6 15.2c-4 5.6-12 8-17.6 8zM741.2 781.7c-6.4 0-11.2-2.4-15.2-6.4s-6.4-9.6-6.4-15.2c0-8.8 5.6-16.8 13.6-20.8h0.8v-43.2l-40.8 23.2v0.8c0 6.4-2.4 14.4-10.4 18.4-3.2 2.4-7.2 3.2-11.2 3.2-8 0-15.2-4-18.4-10.4-3.2-5.6-4-11.2-2.4-16.8 1.6-5.6 4.8-10.4 10.4-12.8 3.2-2.4 7.2-3.2 10.4-3.2 4 0 8 0.8 11.2 3.2l36.8-20.8-36-20.8c-4.8 1.6-8.8 2.4-12 2.4-4 0-7.2-0.8-10.4-2.4-9.6-6.4-13.6-20-8-29.6 4-6.4 11.2-10.4 19.2-10.4 4 0 8 0.8 11.2 3.2 6.4 4 10.4 10.4 10.4 18.4v0.8l40.8 23.2v-43.2h-0.8c-8-4-13.6-12-13.6-20.8 0-12 9.6-21.6 21.6-21.6 6.4 0 12 2.4 16 6.4s6.4 9.6 6.4 15.2c0 7.2-4 14.4-11.2 18.4h-2.4v41.6l35.2-20v-0.8c0-6.4 2.4-14.4 10.4-18.4 3.2-2.4 7.2-3.2 11.2-3.2 8 0 15.2 4 18.4 10.4 3.2 5.6 4 11.2 2.4 16.8-1.6 5.6-4.8 10.4-10.4 12.8-3.2 2.4-7.2 3.2-10.4 3.2-4 0-8-0.8-11.2-3.2l-36.8 20.8 36 20.8c4.8-1.6 8.8-2.4 12-2.4 4 0 7.2 0.8 10.4 2.4 9.6 6.4 13.6 20 8 29.6-4 6.4-11.2 10.4-19.2 10.4-4 0-8-0.8-11.2-3.2-6.4-4-10.4-10.4-10.4-18.4v-0.8l-34.4-19.2v41.6h0.8c7.2 3.2 11.2 10.4 11.2 18.4 0 12.8-9.6 22.4-21.6 22.4z" fill="#233E49" p-id="40586"></path></svg>