<?xml version="1.0" standalone="no"?><!DOCTYPE svg PUBLIC "-//W3C//DTD SVG 1.1//EN" "http://www.w3.org/Graphics/SVG/1.1/DTD/svg11.dtd"><svg t="1555594200984" class="icon" style="" viewBox="0 0 1024 1024" version="1.1" xmlns="http://www.w3.org/2000/svg" p-id="46713" xmlns:xlink="http://www.w3.org/1999/xlink" width="48" height="48"><defs><style type="text/css"></style></defs><path d="M394.5 439C330.711 439 279 387.289 279 323.5S330.711 208 394.5 208 510 259.711 510 323.5 458.289 439 394.5 439z m0-10c58.266 0 105.5-47.234 105.5-105.5S452.766 218 394.5 218 289 265.234 289 323.5 336.234 429 394.5 429z" fill="#283240" p-id="46714"></path><path d="M394.5 323.5m-84.5 0a84.5 84.5 0 1 0 169 0 84.5 84.5 0 1 0-169 0Z" fill="#F15FAD" p-id="46715"></path><path d="M654.5 323.5m-84.5 0a84.5 84.5 0 1 0 169 0 84.5 84.5 0 1 0-169 0Z" fill="#F15FAD" p-id="46716"></path><path d="M654.5 439C590.711 439 539 387.289 539 323.5S590.711 208 654.5 208 770 259.711 770 323.5 718.289 439 654.5 439z m0-10c58.266 0 105.5-47.234 105.5-105.5S712.766 218 654.5 218 549 265.234 549 323.5 596.234 429 654.5 429z" fill="#283240" p-id="46717"></path><path d="M552.415 419.045C576.284 462.723 593 563.793 593 681.5c0 157.677-29.997 273.5-67 273.5s-67-115.823-67-273.5c0-115.235 16.022-214.524 39.09-259.626l-27.366-23.954 23.15-20.887 24.023 21.034c2.656-1.365 5.36-2.067 8.103-2.067 1.643 0 3.271 0.252 4.884 0.747L554.574 376l23.15 20.886-25.309 22.16z m-10.493-2.838l23.082-19.042L555.309 386l-23.234 20.856c-1.996-1.022-4.023-1.547-6.075-1.547-2.782 0-5.518 0.964-8.194 2.827l-23.138-21.138-9.694 10.164 23.719 21.083C485.674 453.676 469 557.895 469 680.947 469 833.178 494.52 945 526 945s57-111.822 57-264.053c0-125.507-17.346-231.422-41.078-264.74z" fill="#283240" p-id="46718"></path><path d="M519 414m5 0l0 0q5 0 5 5l0 474q0 5-5 5l0 0q-5 0-5-5l0-474q0-5 5-5Z" fill="#283240" p-id="46719"></path><path d="M272 190.8l-22.336 7.943 0.652-23.697-14.456-18.789 22.738-6.703L272 130l13.402 19.554 22.738 6.703-14.456 18.789 0.652 23.697z" fill="#283240" p-id="46720"></path><path d="M272 182.4l-14.107 5.016 0.412-14.966-9.13-11.866 14.36-4.234L272 144l8.464 12.35 14.361 4.234-9.13 11.866 0.412 14.966z" fill="#F15FAD" p-id="46721"></path><path d="M361 161m-15 0a15 15 0 1 0 30 0 15 15 0 1 0-30 0Z" fill="#283240" p-id="46722"></path><path d="M361 161m-5 0a5 5 0 1 0 10 0 5 5 0 1 0-10 0Z" fill="#F15FAD" p-id="46723"></path><path d="M189 231m-25 0a25 25 0 1 0 50 0 25 25 0 1 0-50 0Z" fill="#283240" p-id="46724"></path><path d="M189 231m-15 0a15 15 0 1 0 30 0 15 15 0 1 0-30 0Z" fill="#F15FAD" p-id="46725"></path></svg>