<?xml version="1.0" standalone="no"?><!DOCTYPE svg PUBLIC "-//W3C//DTD SVG 1.1//EN" "http://www.w3.org/Graphics/SVG/1.1/DTD/svg11.dtd"><svg t="1555592758361" class="icon" style="" viewBox="0 0 1024 1024" version="1.1" xmlns="http://www.w3.org/2000/svg" p-id="27055" xmlns:xlink="http://www.w3.org/1999/xlink" width="48" height="48"><defs><style type="text/css"></style></defs><path d="M560.39936 410.95168c15.51872 0 27.85792-12.09856 27.85792-27.37152s-12.3392-27.42784-27.85792-27.42784c-15.26784 0-27.91936 12.46208-27.85792 27.42784 0 15.21152 12.34432 27.37152 27.85792 27.37152zM350.85312 616.02816H532.48c8.00256 0 14.3616-6.23104 14.3616-14.11072s-6.29248-14.11072-14.3616-14.11072H350.85312c-8.064 0-14.35648 6.23104-14.35648 14.11072s6.29248 14.11072 14.35648 14.11072zM669.33248 656.72192H350.85312c-8.064 0-14.35648 6.23104-14.35648 14.12096 0 7.87968 6.29248 14.11072 14.35648 14.11072h318.17216c8.064 0 14.65856-6.23104 14.65856-14.11072 0-7.89504-6.29248-14.12096-14.35136-14.12096zM622.53056 447.72352a15.1552 15.1552 0 0 0-10.9312-5.92384 14.57664 14.57664 0 0 0-11.48928 4.52096l-36.5312 39.8336-103.49056-88.40192a13.7728 13.7728 0 0 0-10.93632-3.42016 13.824 13.824 0 0 0-10.08128 5.62176l-100.00896 134.76352a13.58336 13.58336 0 0 0-1.16224 14.65856 15.05792 15.05792 0 0 0 12.9536 7.63904h322.44736c5.44256 0 10.33216-2.88256 12.65152-7.0912 2.62144-4.82304 2.31936-10.4448-0.86016-14.65856l-62.56128-87.54176z" fill="#DE655E" p-id="27056"></path><path d="M560.39936 356.1472c15.51872 0 27.85792 12.16 27.85792 27.42784s-12.3392 27.37152-27.85792 27.37152c-15.5136 0-27.85792-12.16-27.85792-27.37152-0.06144-14.96576 12.59008-27.42784 27.85792-27.42784zM669.02528 684.93824H350.85312c-8.064 0-14.35648-6.23104-14.35648-14.11072s6.29248-14.11072 14.35648-14.11072h318.47936c8.05888 0 14.35648 6.23104 14.35648 14.11072-0.00512 7.89504-6.59968 14.11072-14.66368 14.11072zM336.49664 601.92256c0-7.87968 6.29248-14.11072 14.35648-14.11072H532.48c8.06912 0 14.3616 6.23104 14.3616 14.11072s-6.3488 14.12096-14.3616 14.12096H350.85312c-8.064-0.01536-14.35648-6.24128-14.35648-14.12096zM685.952 549.92896c-2.31936 4.20864-7.20896 7.0912-12.65152 7.0912H350.85312a15.07328 15.07328 0 0 1-12.9536-7.63904 13.58336 13.58336 0 0 1 1.16224-14.65856l100.00896-134.76352a13.83424 13.83424 0 0 1 10.08128-5.62176 13.80352 13.80352 0 0 1 10.93632 3.42016l103.49056 88.40192 36.5312-39.8336a14.61248 14.61248 0 0 1 11.48928-4.52096c4.33664 0.3072 8.30464 2.50368 10.9312 5.92384l62.56128 87.54688c3.17952 4.20864 3.47648 9.8304 0.86016 14.65344z" fill="#DE655E" p-id="27057"></path><path d="M744.832 959.73376H279.18336c-32.15872 0-58.20928-26.73664-58.20928-59.6992V123.96032c0-32.9728 26.05056-59.6992 58.20928-59.6992h465.6384c32.14848 0 58.19904 26.7264 58.19904 59.6992V900.0448c0.01536 32.96768-26.04544 59.68896-58.1888 59.68896z m-232.82688-59.6992c21.43744 0 38.79936-17.81248 38.79936-39.78752 0-21.98016-17.37728-39.79776-38.79936-39.79776s-38.80448 17.8176-38.80448 39.79776c0 21.97504 17.37216 39.78752 38.80448 39.78752z m48.50688-786.0224c0-5.49376-4.35712-9.95328-9.70752-9.95328H453.80096c-5.3504 0-9.70752 4.45952-9.70752 9.95328v9.94304c0 5.49376 4.35712 9.95328 9.70752 9.95328h97.00352c5.3504 0 9.70752-4.45952 9.70752-9.95328v-9.94304z m184.32 49.74592H279.18336V780.6464h465.6384V163.75808h0.01024z" fill="#DE655E" p-id="27058"></path></svg>