<?xml version="1.0" standalone="no"?><!DOCTYPE svg PUBLIC "-//W3C//DTD SVG 1.1//EN" "http://www.w3.org/Graphics/SVG/1.1/DTD/svg11.dtd"><svg t="1555593158126" class="icon" style="" viewBox="0 0 1024 1024" version="1.1" xmlns="http://www.w3.org/2000/svg" p-id="34323" xmlns:xlink="http://www.w3.org/1999/xlink" width="48" height="48"><defs><style type="text/css"></style></defs><path d="M511.8 410.5L641.2 442c11.6 2.8 16.5 16.5 9.5 26.1L554 599.3c-6.2 8.4-3.2 20.3 6.1 24.9l55.9 27.2c11.5 5.6 12.7 21.5 2.1 28.7L433.1 807c-6 4.1-13.3-3-9.4-9.1l56.7-88.2c5.9-9.2 1.5-21.6-9-24.9L383.7 657c-10.1-3.2-14.7-14.8-9.6-24l119.2-214.5c3.7-6.5 11.2-9.8 18.5-8z" fill="#A5B8FF" p-id="34324"></path><path d="M738 299H615V120c0-11.6-9.4-21-21-21s-21 9.4-21 21v179H457V120c0-11.6-9.4-21-21-21s-21 9.4-21 21v179H292c-14.3 0-26 11.7-26 26v576c0 14.3 11.7 26 26 26h446c14.3 0 26-11.7 26-26V325c0-14.3-11.7-26-26-26z m-16 586H308V341h414v544z" fill="#1748FF" p-id="34325"></path></svg>