<?xml version="1.0" standalone="no"?><!DOCTYPE svg PUBLIC "-//W3C//DTD SVG 1.1//EN" "http://www.w3.org/Graphics/SVG/1.1/DTD/svg11.dtd"><svg t="1555593116199" class="icon" style="" viewBox="0 0 1024 1024" version="1.1" xmlns="http://www.w3.org/2000/svg" p-id="33025" xmlns:xlink="http://www.w3.org/1999/xlink" width="48" height="48"><defs><style type="text/css"></style></defs><path d="M421.3 334H192.5V129.9c0-13.6 11.1-24.7 24.7-24.7h179.4c13.6 0 24.7 11.1 24.7 24.7V334z m-208.8-20h188.8V129.9c0-2.6-2.1-4.7-4.7-4.7H217.2c-2.6 0-4.7 2.1-4.7 4.7V314zM829.2 406.8H737v-77.1c0-8.3 6.8-15.1 15.1-15.1h62c8.3 0 15.1 6.8 15.1 15.1v77.1z m-72.3-20h52.2v-52.2h-52.2v52.2zM815.6 636.5h-65c-7.5 0-13.6-6.1-13.6-13.6v-42.5h92.2v42.5c0 7.5-6.1 13.6-13.6 13.6z m-58.7-20h52.2v-16.1h-52.2v16.1z" fill="#0071BC" p-id="33026"></path><path d="M411 581.5H202.7c-16.3 0-29.6-13.3-29.6-29.6V343.6c0-16.3 13.3-29.6 29.6-29.6H411c16.3 0 29.6 13.3 29.6 29.6v208.3c0 16.3-13.3 29.6-29.6 29.6zM202.7 334c-5.3 0-9.6 4.3-9.6 9.6v208.3c0 5.3 4.3 9.6 9.6 9.6H411c5.3 0 9.6-4.3 9.6-9.6V343.6c0-5.3-4.3-9.6-9.6-9.6H202.7zM829 600.4h-91.9c-12 0-21.9-9.8-21.9-21.9V408.6c0-12 9.8-21.9 21.9-21.9H829c12.1 0 21.9 9.8 21.9 21.9v169.9c0 12.1-9.8 21.9-21.9 21.9z m-91.9-193.6c-1 0-1.9 0.8-1.9 1.9v169.9c0 1 0.8 1.9 1.9 1.9H829c1 0 1.9-0.8 1.9-1.9v-170c0-1-0.8-1.9-1.9-1.9h-91.9z" fill="#0071BC" p-id="33027"></path><path d="M357.7 636.5H256c-9 0-16.3-7.3-16.3-16.3v-42.5c0-9 7.3-16.3 16.3-16.3h101.7c9 0 16.3 7.3 16.3 16.3v42.5c0 9-7.3 16.3-16.3 16.3z m-97.9-20H354v-35h-94.2v35z" fill="#0071BC" p-id="33028"></path><path d="M545 918.8c-66.6 0-129.1-30.6-176-86.2-46.5-55.1-72.1-128.3-72.1-206.1h20c0 150.2 102.3 272.3 228.1 272.3s228.1-122.2 228.1-272.3h20c0 77.8-25.6 151-72.1 206.1-46.9 55.6-109.4 86.2-176 86.2z" fill="#0071BC" p-id="33029"></path><path d="M267.8 279.6c-5.5 0-10-4.5-10-10v-100c0-5.5 4.5-10 10-10s10 4.5 10 10v100c0 5.5-4.5 10-10 10zM345.9 279.6c-5.5 0-10-4.5-10-10v-100c0-5.5 4.5-10 10-10s10 4.5 10 10v100c0 5.5-4.5 10-10 10z" fill="#F15A24" p-id="33030"></path></svg>