<?xml version="1.0" standalone="no"?><!DOCTYPE svg PUBLIC "-//W3C//DTD SVG 1.1//EN" "http://www.w3.org/Graphics/SVG/1.1/DTD/svg11.dtd"><svg t="1555593738976" class="icon" style="" viewBox="0 0 1024 1024" version="1.1" xmlns="http://www.w3.org/2000/svg" p-id="43246" xmlns:xlink="http://www.w3.org/1999/xlink" width="48" height="48"><defs><style type="text/css"></style></defs><path d="M628.363636 644.654545c0-20.945455 9.309091-30.254545 9.309091-30.254545 6.981818-6.981818 9.309091-18.618182 2.327273-27.927273-4.654545-9.309091-16.290909-13.963636-27.927273-9.309091-18.618182 6.981818-32.581818 13.963636-44.218182 23.272728-25.6-58.181818-74.472727-83.781818-76.8-83.781819-6.981818-4.654545-18.618182-2.327273-25.6 2.327273-6.981818 4.654545-9.309091 13.963636-9.30909 23.272727 4.654545 27.927273 4.654545 48.872727 2.327272 62.836364-20.945455-16.290909-44.218182-25.6-48.872727-25.6-9.309091-2.327273-18.618182 0-25.6 6.981818-6.981818 6.981818-6.981818 18.618182-2.327273 25.6 0 0 6.981818 11.636364 6.981818 34.909091 0 4.654545-2.327273 9.309091-2.327272 13.963637-2.327273 11.636364-6.981818 25.6-6.981818 46.545454 0 74.472727 58.181818 132.654545 132.654545 132.654546 72.145455 0 132.654545-58.181818 132.654545-132.654546 0-20.945455-6.981818-32.581818-9.30909-41.890909-4.654545-6.981818-6.981818-11.636364-6.981819-20.945455zM512 791.272727c-48.872727 0-86.109091-37.236364-86.109091-86.109091 0-16.290909 2.327273-25.6 4.654546-34.909091 2.327273-9.309091 4.654545-16.290909 4.654545-25.6v-2.327272c4.654545 4.654545 6.981818 6.981818 9.309091 11.636363 2.327273 6.981818 9.309091 11.636364 16.290909 11.636364 6.981818 2.327273 13.963636-2.327273 20.945455-6.981818 2.327273-2.327273 23.272727-25.6 25.6-72.145455 11.636364 13.963636 23.272727 34.909091 27.927272 60.509091 2.327273 9.309091 9.309091 16.290909 18.618182 18.618182 9.309091 2.327273 18.618182-4.654545 23.272727-11.636364 0 0 0-2.327273 2.327273-4.654545 0 16.290909 6.981818 27.927273 9.309091 34.909091 2.327273 6.981818 4.654545 11.636364 4.654545 20.945454 4.654545 48.872727-34.909091 86.109091-81.454545 86.109091z" fill="#1B1B28" p-id="43247"></path><path d="M814.545455 0H209.454545C144.290909 0 93.090909 51.2 93.090909 116.363636v744.727273c0 65.163636 51.2 116.363636 116.363636 116.363636h69.818182v23.272728c0 13.963636 9.309091 23.272727 23.272728 23.272727s23.272727-9.309091 23.272727-23.272727v-23.272728h46.545454v23.272728c0 13.963636 9.309091 23.272727 23.272728 23.272727s23.272727-9.309091 23.272727-23.272727v-23.272728h186.181818v23.272728c0 13.963636 9.309091 23.272727 23.272727 23.272727s23.272727-9.309091 23.272728-23.272727v-23.272728h46.545454v23.272728c0 13.963636 9.309091 23.272727 23.272727 23.272727s23.272727-9.309091 23.272728-23.272727v-23.272728h69.818182c65.163636 0 116.363636-51.2 116.363636-116.363636V116.363636c0-65.163636-51.2-116.363636-116.363636-116.363636z m69.818181 861.090909c0 39.563636-30.254545 69.818182-69.818181 69.818182H209.454545c-39.563636 0-69.818182-30.254545-69.818181-69.818182V116.363636c0-39.563636 30.254545-69.818182 69.818181-69.818181h605.09091c39.563636 0 69.818182 30.254545 69.818181 69.818181v744.727273z" fill="#1B1B28" p-id="43248"></path><path d="M418.909091 279.272727h186.181818c13.963636 0 23.272727-9.309091 23.272727-23.272727V162.909091c0-13.963636-9.309091-23.272727-23.272727-23.272727h-186.181818c-13.963636 0-23.272727 9.309091-23.272727 23.272727v93.090909c0 13.963636 9.309091 23.272727 23.272727 23.272727z m23.272727-93.090909h139.636364v46.545455h-139.636364V186.181818zM721.454545 139.636364h-23.272727c-13.963636 0-23.272727 9.309091-23.272727 23.272727s9.309091 23.272727 23.272727 23.272727h23.272727c13.963636 0 23.272727-9.309091 23.272728-23.272727s-9.309091-23.272727-23.272728-23.272727zM721.454545 232.727273h-23.272727c-13.963636 0-23.272727 9.309091-23.272727 23.272727s9.309091 23.272727 23.272727 23.272727h23.272727c13.963636 0 23.272727-9.309091 23.272728-23.272727s-9.309091-23.272727-23.272728-23.272727zM325.818182 139.636364h-23.272727c-13.963636 0-23.272727 9.309091-23.272728 23.272727s9.309091 23.272727 23.272728 23.272727h23.272727c13.963636 0 23.272727-9.309091 23.272727-23.272727s-9.309091-23.272727-23.272727-23.272727zM325.818182 232.727273h-23.272727c-13.963636 0-23.272727 9.309091-23.272728 23.272727s9.309091 23.272727 23.272728 23.272727h23.272727c13.963636 0 23.272727-9.309091 23.272727-23.272727s-9.309091-23.272727-23.272727-23.272727z" fill="#1B1B28" p-id="43249"></path></svg>