<?xml version="1.0" standalone="no"?><!DOCTYPE svg PUBLIC "-//W3C//DTD SVG 1.1//EN" "http://www.w3.org/Graphics/SVG/1.1/DTD/svg11.dtd"><svg t="1555592964841" class="icon" style="" viewBox="0 0 1024 1024" version="1.1" xmlns="http://www.w3.org/2000/svg" p-id="32384" xmlns:xlink="http://www.w3.org/1999/xlink" width="48" height="48"><defs><style type="text/css"></style></defs><path d="M778.9 166.2H344.7c-24 0-43.4 19.4-43.4 43.4v651.2c0 24 19.4 43.4 43.4 43.4h434.2c24 0 43.4-19.4 43.4-43.4V209.7c0-24-19.4-43.5-43.4-43.5zM778.9 948.9H344.7c-18 0-32.6 14.6-32.6 32.6s14.6 32.6 32.6 32.6h434.2c18 0 32.6-14.6 32.6-32.6-0.1-18-14.6-32.6-32.6-32.6z" fill="#4DBBF7" p-id="32385"></path><path d="M670.3 101.1v694.7H236.2V101.1h434.1m0-65.1H236.2c-36 0-65.1 29.2-65.1 65.1v694.7c0 36 29.2 65.1 65.1 65.1h434.2c36 0 65.1-29.2 65.1-65.1V101.1c0-35.9-29.2-65.1-65.2-65.1z" fill="" p-id="32386"></path><path d="M583.5 249.9H323c-18 0-32.6-14.6-32.6-32.6s14.6-32.6 32.6-32.6h260.5c18 0 32.6 14.6 32.6 32.6s-14.6 32.6-32.6 32.6zM583.5 401.8H323c-18 0-32.6-14.6-32.6-32.6s14.6-32.6 32.6-32.6h260.5c18 0 32.6 14.6 32.6 32.6 0 18.1-14.6 32.6-32.6 32.6z" fill="" p-id="32387"></path><path d="M453.3 684m-43.4 0a43.4 43.4 0 1 0 86.8 0 43.4 43.4 0 1 0-86.8 0Z" fill="" p-id="32388"></path><path d="M670.3 948.9H236.2c-18 0-32.6-14.6-32.6-32.6s14.6-32.6 32.6-32.6h434.2c18 0 32.6 14.6 32.6 32.6-0.1 18-14.7 32.6-32.7 32.6z" fill="#231815" p-id="32389"></path></svg>