<?xml version="1.0" standalone="no"?><!DOCTYPE svg PUBLIC "-//W3C//DTD SVG 1.1//EN" "http://www.w3.org/Graphics/SVG/1.1/DTD/svg11.dtd"><svg t="1555593382739" class="icon" style="" viewBox="0 0 1560 1024" version="1.1" xmlns="http://www.w3.org/2000/svg" p-id="36509" xmlns:xlink="http://www.w3.org/1999/xlink" width="73.125" height="48"><defs><style type="text/css"></style></defs><path d="M88.996859 776.846073h1394.462827v210.697382H88.996859z" fill="#F1F4E9" p-id="36510"></path><path d="M1490.429319 1002.554974H71.840838V318.458639H1490.429319V1002.554974z m-23.053403-659.434555h-1372.481675v634.772775h1372.481675V343.120419z" fill="#8DC16B" p-id="36511"></path><path d="M88.996859 866.379058h1394.462827v20.372774H88.996859z" fill="#8DC16B" p-id="36512"></path><path d="M160.837696 876.565445h16.619896v110.441885H160.837696zM243.401047 876.565445h16.619895v110.441885h-16.619895zM325.428272 876.565445h16.619896v110.441885h-16.619896zM407.455497 876.565445h16.619896v110.441885H407.455497zM489.482723 876.565445h16.619895v110.441885h-16.619895zM571.509948 876.565445h16.619895v110.441885h-16.619895zM653.537173 876.565445h16.619895v110.441885h-16.619895zM735.564398 876.565445h16.619895v110.441885h-16.619895zM817.591623 876.565445h16.619895v110.441885h-16.619895zM899.618848 876.565445h16.619895v110.441885h-16.619895zM981.646073 876.565445h16.619896v110.441885h-16.619896zM1063.673298 876.565445h16.619896v110.441885h-16.619896zM1145.700524 876.565445h16.619895v110.441885h-16.619895zM1227.727749 876.565445h16.619895v110.441885H1227.727749zM1309.754974 876.565445h16.619895v110.441885h-16.619895zM1391.782199 876.565445h16.619895v110.441885h-16.619895zM151.72356 392.443979h92.749738v186.035602H151.72356zM151.72356 624.586387h92.749738v69.696336H151.72356zM151.72356 741.997906h92.749738v69.696335H151.72356zM315.77801 624.586387h92.749739v69.696336H315.77801zM315.77801 741.997906h92.749739v69.696335H315.77801zM315.77801 395.124607h92.749739v69.696335H315.77801zM315.77801 512h92.749739v69.696335H315.77801zM479.832461 624.586387h92.749738v69.696336H479.832461zM479.832461 741.997906h92.749738v69.696335H479.832461z" fill="#8DC16B" p-id="36513"></path><path d="M487.874346 741.997906h92.749738v69.696335H487.874346z" fill="#8DC16B" p-id="36514"></path><path d="M495.91623 741.997906h92.749739v69.696335H495.91623z" fill="#8DC16B" p-id="36515"></path><path d="M504.494241 741.997906h92.749738v69.696335H504.494241z" fill="#8DC16B" p-id="36516"></path><path d="M512.536126 741.997906h92.749738v69.696335H512.536126z" fill="#8DC16B" p-id="36517"></path><path d="M520.57801 741.997906h92.749739v69.696335H520.57801z" fill="#8DC16B" p-id="36518"></path><path d="M529.156021 741.997906H621.905759v69.696335H529.156021z" fill="#8DC16B" p-id="36519"></path><path d="M537.197906 741.997906h92.749738v69.696335h-92.749738z" fill="#8DC16B" p-id="36520"></path><path d="M545.239791 741.997906H637.989529v69.696335h-92.749738z" fill="#8DC16B" p-id="36521"></path><path d="M553.817801 741.997906h92.749738v69.696335h-92.749738z" fill="#8DC16B" p-id="36522"></path><path d="M561.859686 741.997906h92.749738v69.696335h-92.749738z" fill="#8DC16B" p-id="36523"></path><path d="M569.901571 741.997906h92.749738v69.696335h-92.749738z" fill="#8DC16B" p-id="36524"></path><path d="M577.943455 741.997906h92.749739v69.696335h-92.749739z" fill="#8DC16B" p-id="36525"></path><path d="M586.521466 741.997906h92.749738v69.696335h-92.749738z" fill="#8DC16B" p-id="36526"></path><path d="M594.563351 741.997906h92.749738v69.696335h-92.749738z" fill="#8DC16B" p-id="36527"></path><path d="M602.605236 741.997906h92.749738v69.696335h-92.749738z" fill="#8DC16B" p-id="36528"></path><path d="M611.183246 741.997906h92.749738v69.696335H611.183246z" fill="#8DC16B" p-id="36529"></path><path d="M619.225131 741.997906h92.749738v69.696335h-92.749738z" fill="#8DC16B" p-id="36530"></path><path d="M627.267016 741.997906h92.749738v69.696335H627.267016z" fill="#8DC16B" p-id="36531"></path><path d="M635.845026 741.997906h92.749738v69.696335h-92.749738z" fill="#8DC16B" p-id="36532"></path><path d="M643.886911 741.997906h92.749738v69.696335h-92.749738z" fill="#8DC16B" p-id="36533"></path><path d="M651.928796 741.997906h92.749738v69.696335h-92.749738z" fill="#8DC16B" p-id="36534"></path><path d="M660.506806 741.997906h92.749739v69.696335h-92.749739z" fill="#8DC16B" p-id="36535"></path><path d="M668.548691 741.997906H761.298429v69.696335h-92.749738z" fill="#8DC16B" p-id="36536"></path><path d="M676.590576 741.997906h92.749738v69.696335h-92.749738z" fill="#8DC16B" p-id="36537"></path><path d="M684.632461 741.997906H777.382199v69.696335h-92.749738z" fill="#8DC16B" p-id="36538"></path><path d="M693.210471 741.997906h92.749738v69.696335h-92.749738z" fill="#8DC16B" p-id="36539"></path><path d="M701.252356 741.997906h92.749738v69.696335h-92.749738z" fill="#8DC16B" p-id="36540"></path><path d="M709.294241 741.997906h92.749738v69.696335h-92.749738z" fill="#8DC16B" p-id="36541"></path><path d="M717.872251 741.997906h92.749739v69.696335h-92.749739z" fill="#8DC16B" p-id="36542"></path><path d="M725.914136 741.997906h92.749738v69.696335h-92.749738z" fill="#8DC16B" p-id="36543"></path><path d="M733.956021 741.997906h92.749738v69.696335h-92.749738z" fill="#8DC16B" p-id="36544"></path><path d="M742.534031 741.997906h92.749739v69.696335h-92.749739z" fill="#8DC16B" p-id="36545"></path><path d="M750.575916 741.997906h92.749738v69.696335H750.575916z" fill="#8DC16B" p-id="36546"></path><path d="M758.617801 741.997906h92.749738v69.696335h-92.749738z" fill="#8DC16B" p-id="36547"></path><path d="M766.659686 741.997906h92.749738v69.696335H766.659686z" fill="#8DC16B" p-id="36548"></path><path d="M775.237696 741.997906h92.749739v69.696335h-92.749739z" fill="#8DC16B" p-id="36549"></path><path d="M783.279581 741.997906h92.749738v69.696335h-92.749738z" fill="#8DC16B" p-id="36550"></path><path d="M791.321466 741.997906h92.749738v69.696335h-92.749738z" fill="#8DC16B" p-id="36551"></path><path d="M799.899476 741.997906h92.749739v69.696335h-92.749739z" fill="#8DC16B" p-id="36552"></path><path d="M807.941361 741.997906H900.691099v69.696335h-92.749738z" fill="#8DC16B" p-id="36553"></path><path d="M815.983246 741.997906h92.749738v69.696335h-92.749738z" fill="#8DC16B" p-id="36554"></path><path d="M824.561257 741.997906h92.749738v69.696335h-92.749738z" fill="#8DC16B" p-id="36555"></path><path d="M832.603141 741.997906h92.749739v69.696335h-92.749739z" fill="#8DC16B" p-id="36556"></path><path d="M840.645026 741.997906h92.749738v69.696335h-92.749738z" fill="#8DC16B" p-id="36557"></path><path d="M849.223037 741.997906h92.749738v69.696335h-92.749738z" fill="#8DC16B" p-id="36558"></path><path d="M857.264921 741.997906h92.749739v69.696335h-92.749739z" fill="#8DC16B" p-id="36559"></path><path d="M865.306806 741.997906h92.749739v69.696335h-92.749739z" fill="#8DC16B" p-id="36560"></path><path d="M873.348691 741.997906h92.749738v69.696335h-92.749738z" fill="#8DC16B" p-id="36561"></path><path d="M881.926702 741.997906h92.749738v69.696335h-92.749738z" fill="#8DC16B" p-id="36562"></path><path d="M889.968586 741.997906h92.749739v69.696335H889.968586z" fill="#8DC16B" p-id="36563"></path><path d="M898.010471 741.997906h92.749738v69.696335h-92.749738z" fill="#8DC16B" p-id="36564"></path><path d="M906.588482 741.997906h92.749738v69.696335h-92.749738z" fill="#8DC16B" p-id="36565"></path><path d="M914.630366 741.997906h92.749739v69.696335h-92.749739z" fill="#8DC16B" p-id="36566"></path><path d="M922.672251 741.997906h92.749739v69.696335h-92.749739z" fill="#8DC16B" p-id="36567"></path><path d="M931.250262 741.997906H1024v69.696335h-92.749738z" fill="#8DC16B" p-id="36568"></path><path d="M939.292147 741.997906h92.749738v69.696335h-92.749738z" fill="#8DC16B" p-id="36569"></path><path d="M947.334031 741.997906H1040.08377v69.696335h-92.749739z" fill="#8DC16B" p-id="36570"></path><path d="M955.912042 741.997906h92.749738v69.696335h-92.749738z" fill="#8DC16B" p-id="36571"></path><path d="M963.953927 741.997906h92.749738v69.696335h-92.749738z" fill="#8DC16B" p-id="36572"></path><path d="M971.995812 741.997906h92.749738v69.696335h-92.749738zM479.832461 395.124607h92.749738v69.696335H479.832461zM479.832461 512h92.749738v69.696335H479.832461zM643.886911 624.586387h92.749738v69.696336h-92.749738zM643.886911 395.124607h92.749738v69.696335h-92.749738zM643.886911 512h92.749738v69.696335h-92.749738zM807.941361 624.586387H900.691099v69.696336h-92.749738zM807.941361 395.124607H900.691099v69.696335h-92.749738zM807.941361 512H900.691099v69.696335h-92.749738zM971.995812 624.586387h92.749738v69.696336h-92.749738zM1144.628272 624.586387h92.749738v69.696336h-92.749738zM1144.628272 509.855497h92.749738v69.696335h-92.749738z" fill="#8DC16B" p-id="36573"></path><path d="M1152.670157 509.855497h92.749738v69.696335H1152.670157z" fill="#8DC16B" p-id="36574"></path><path d="M1160.712042 509.855497h92.749738v69.696335h-92.749738z" fill="#8DC16B" p-id="36575"></path><path d="M1168.753927 509.855497h92.749738v69.696335H1168.753927z" fill="#8DC16B" p-id="36576"></path><path d="M1177.331937 509.855497h92.749738v69.696335h-92.749738z" fill="#8DC16B" p-id="36577"></path><path d="M1185.373822 509.855497h92.749738v69.696335h-92.749738z" fill="#8DC16B" p-id="36578"></path><path d="M1193.415707 509.855497h92.749738v69.696335h-92.749738z" fill="#8DC16B" p-id="36579"></path><path d="M1201.993717 509.855497h92.749738v69.696335h-92.749738z" fill="#8DC16B" p-id="36580"></path><path d="M1210.035602 509.855497H1302.78534v69.696335h-92.749738z" fill="#8DC16B" p-id="36581"></path><path d="M1218.077487 509.855497h92.749738v69.696335h-92.749738z" fill="#8DC16B" p-id="36582"></path><path d="M1226.655497 509.855497h92.749739v69.696335h-92.749739z" fill="#8DC16B" p-id="36583"></path><path d="M1234.697382 509.855497h92.749738v69.696335h-92.749738z" fill="#8DC16B" p-id="36584"></path><path d="M1242.739267 509.855497h92.749738v69.696335h-92.749738z" fill="#8DC16B" p-id="36585"></path><path d="M1251.317277 509.855497h92.749739v69.696335h-92.749739z" fill="#8DC16B" p-id="36586"></path><path d="M1259.359162 509.855497h92.749739v69.696335h-92.749739z" fill="#8DC16B" p-id="36587"></path><path d="M1267.401047 509.855497h92.749738v69.696335h-92.749738z" fill="#8DC16B" p-id="36588"></path><path d="M1275.442932 509.855497h92.749738v69.696335h-92.749738z" fill="#8DC16B" p-id="36589"></path><path d="M1284.020942 509.855497h92.749739v69.696335h-92.749739z" fill="#8DC16B" p-id="36590"></path><path d="M1292.062827 509.855497h92.749738v69.696335H1292.062827z" fill="#8DC16B" p-id="36591"></path><path d="M1300.104712 509.855497h92.749738v69.696335h-92.749738z" fill="#8DC16B" p-id="36592"></path><path d="M1308.682723 509.855497h92.749738v69.696335h-92.749738z" fill="#8DC16B" p-id="36593"></path><path d="M1308.682723 517.897382h92.749738v69.696335h-92.749738z" fill="#8DC16B" p-id="36594"></path><path d="M1308.682723 526.475393h92.749738v69.696335h-92.749738z" fill="#8DC16B" p-id="36595"></path><path d="M1308.682723 534.517277h92.749738v69.696336h-92.749738z" fill="#8DC16B" p-id="36596"></path><path d="M1308.682723 542.559162h92.749738v69.696335h-92.749738z" fill="#8DC16B" p-id="36597"></path><path d="M1308.682723 551.137173h92.749738v69.696335h-92.749738z" fill="#8DC16B" p-id="36598"></path><path d="M1308.682723 559.179058h92.749738v69.696335h-92.749738z" fill="#8DC16B" p-id="36599"></path><path d="M1308.682723 567.220942h92.749738v69.696335h-92.749738z" fill="#8DC16B" p-id="36600"></path><path d="M1308.682723 575.798953h92.749738v69.696335h-92.749738z" fill="#8DC16B" p-id="36601"></path><path d="M1308.682723 583.840838h92.749738v69.696335h-92.749738z" fill="#8DC16B" p-id="36602"></path><path d="M1308.682723 591.882723h92.749738v69.696335h-92.749738z" fill="#8DC16B" p-id="36603"></path><path d="M1308.682723 599.924607h92.749738v69.696335h-92.749738z" fill="#8DC16B" p-id="36604"></path><path d="M1308.682723 608.502618h92.749738v69.696335h-92.749738z" fill="#8DC16B" p-id="36605"></path><path d="M1308.682723 616.544503h92.749738v69.696335h-92.749738zM1144.628272 741.997906h92.749738v69.696335h-92.749738zM1308.682723 741.997906h92.749738v69.696335h-92.749738zM971.995812 395.124607h92.749738v69.696335h-92.749738zM971.995812 512h92.749738v69.696335h-92.749738zM1144.628272 405.310995h255.731937v13.939267h-255.731937zM1144.628272 454.634555h255.731937v13.939267h-255.731937zM657.826178 284.146597H863.162304v40.74555h-205.336126z" fill="#8DC16B" p-id="36606"></path><path d="M747.895288 203.727749h16.08377v116.339267h-16.08377z" fill="#8DC16B" p-id="36607"></path><path d="M749.503665 198.366492h151.72356v16.08377h-151.72356z" fill="#8DC16B" p-id="36608"></path><path d="M884.60733 20.372775h16.083769v186.035602h-16.083769z" fill="#8DC16B" p-id="36609"></path></svg>