<?xml version="1.0" standalone="no"?><!DOCTYPE svg PUBLIC "-//W3C//DTD SVG 1.1//EN" "http://www.w3.org/Graphics/SVG/1.1/DTD/svg11.dtd"><svg t="1555405173117" class="icon" style="" viewBox="0 0 1024 1024" version="1.1" xmlns="http://www.w3.org/2000/svg" p-id="14004" xmlns:xlink="http://www.w3.org/1999/xlink" width="48" height="48"><defs><style type="text/css"></style></defs><path d="M880.433267 762.461014l-8.927573-51.020713-91.830973 42.061594 24.185416 38.265534s43.407564-1.240817 76.57313-29.306415z" fill="#C67B59" p-id="14005"></path><path d="M803.902199 801.273349a9.463858 9.463858 0 0 1-7.991703-4.395436l-24.185416-38.265535a9.463858 9.463858 0 0 1 4.048428-13.670018l91.830973-42.061593a9.463858 9.463858 0 0 1 13.270433 6.971709l8.864481 50.989167a9.463858 9.463858 0 0 1-3.207197 8.853965c-35.279161 29.853216-80.453312 31.546195-82.367114 31.546195z m-10.441791-43.638903l15.373512 24.269539c11.198899-1.272363 38.402235-6.025323 61.304772-23.323153l-5.846561-33.417936z" fill="#532356" p-id="14006"></path><path d="M143.566733 762.461014l8.927573-51.020713 91.830973 42.061594-24.185416 38.265534S176.721784 790.526612 143.566733 762.461014z" fill="#C67B59" p-id="14007"></path><path d="M220.097801 801.273349h-0.283915c-1.903287-0.052577-47.077438-1.71401-82.3566-31.546195a9.463858 9.463858 0 0 1-3.207196-8.853965l8.896027-51.052259a9.463858 9.463858 0 0 1 13.270432-6.971709l91.830974 42.061593a9.463858 9.463858 0 0 1 4.048428 13.670018l-24.185416 38.265534a9.463858 9.463858 0 0 1-8.012734 4.426983z m-66.247009-42.682002c22.902537 17.287315 50.095357 22.082336 61.304772 23.323154l15.373513-24.269539-70.831723-32.461035z" fill="#532356" p-id="14008"></path><path d="M532.373584 1014.262741c111.200337 4.374406 222.579435-45.920744 222.579436-45.920744 11.482815-114.786088 7.65521-239.751081 7.65521-239.751081l16.582783 26.78272c66.320617-5.099968 94.386215-42.061593 94.386215-42.061594 3.827605-119.87554-56.120681-309.930849-56.120681-309.930849-72.713979-284.462554-149.234532-280.65598-149.234532-280.65598H532.373584z" fill="#EFAE92" p-id="14009"></path><path d="M489.260451 1014.262741c-111.200337 4.374406-222.579435-45.920744-222.579435-45.920744-11.482815-114.786088-7.65521-239.751081-7.65521-239.751081l-16.582783 26.78272c-66.320617-5.099968-94.386215-42.061593-94.386215-42.061594C144.197657 593.362894 204.135427 403.318101 204.135427 403.318101c72.745525-284.399462 149.318656-280.592888 149.318655-280.592888h135.806369z" fill="#FFE3D7" p-id="14010"></path><path d="M545.654532 1024q-7.213563 0-14.437642-0.283916a9.463858 9.463858 0 0 1-9.095819-9.463858V122.725213a9.463858 9.463858 0 0 1 9.463858-9.463858h135.774823c3.880182 0 25.626026 1.398548 54.764194 37.119356 38.27605 46.951253 73.166141 131.190109 103.639766 250.350602 3.417504 10.862406 60.274263 193.77776 56.478204 312.833099a9.463858 9.463858 0 0 1-1.924318 5.41543c-1.251332 1.650918-31.430525 40.442222-101.200193 45.805075a9.463858 9.463858 0 0 1-7.360779-2.639365c0.325977 45.279305-0.410101 128.939814-8.233557 207.153346a9.463858 9.463858 0 0 1-5.520584 7.686756c-4.374406 1.98741-105.385322 47.014346-212.347953 47.014346z m-4.605744-18.927717c91.662727 1.05154 182.337006-34.06989 204.240581-43.186741 10.620552-111.326522 7.108409-231.769894 7.066347-233.000195a9.463858 9.463858 0 0 1 17.508138-5.331307l13.501772 21.798421c48.686294-5.257699 73.376449-28.391575 80.053727-35.752354 2.544726-117.08896-55.18481-301.623684-55.731611-303.495425l-0.147216-0.50474c-66.93051-261.591563-135.806369-273.011286-139.823251-273.400355H541.048788zM667.864491 132.178556z" fill="#532356" p-id="14011"></path><path d="M643.195367 809.88546l118.613692-25.510356s0-137.751717-2.555242-234.682659c-2.555242-6.372331-116.068966 0-116.068966 0z" fill="#EEF2F9" p-id="14012"></path><path d="M643.195367 819.349319a9.463858 9.463858 0 0 1-9.463859-9.463859V549.692445a9.463858 9.463858 0 0 1 8.938089-9.463858c0.283916 0 28.843737-1.608856 57.340467-2.397511 16.824637-0.473193 30.389501-0.567832 40.295006-0.294431 16.687937 0.452162 24.868917 1.451125 27.73962 8.633142a9.463858 9.463858 0 0 1 0.672986 3.270289c2.523696 95.953009 2.555242 233.546996 2.555242 234.935028a9.463858 9.463858 0 0 1-7.476448 9.25355l-118.603178 25.510357a9.463858 9.463858 0 0 1-1.997925 0.210308z m9.463858-260.687239v239.551288l99.67546-21.430382c0-29.443115-0.347008-137.81481-2.365964-219.771824-15.005473-1.44061-57.214282-0.420616-97.309496 1.650918zM797.519352 343.727339a9.463858 9.463858 0 0 1-3.859151-0.830716c-0.357524-0.157731-36.393793-16.172683-72.934803-22.261099a9.463858 9.463858 0 1 1 3.15462-18.664832c39.022643 6.498516 76.015814 22.955114 77.561577 23.659647a9.463858 9.463858 0 0 1-3.880182 18.097zM834.512523 478.923815a9.463858 9.463858 0 0 1-3.217712-0.567832c-0.452162-0.168246-45.573736-16.372475-82.524846-22.523983a9.463858 9.463858 0 1 1 3.15462-18.664832c38.665119 6.445939 83.933909 22.702745 85.837196 23.396761a9.463858 9.463858 0 0 1-3.217712 18.370401z" fill="#532356" p-id="14013"></path><path d="M858.750516 609.020322a9.463858 9.463858 0 0 1-3.217712-0.567831c-0.494224-0.157731-45.573736-16.340929-82.51433-22.523983a9.470168 9.470168 0 1 1 3.154619-18.675348c38.665119 6.445939 83.933909 22.702745 85.837196 23.396761a9.463858 9.463858 0 0 1-3.217711 18.370401zM743.953913 547.452665a9.463858 9.463858 0 0 1-9.463858-9.137881c-3.753997-107.604071-46.562184-312.633306-46.993315-314.694324a9.465962 9.465962 0 0 1 18.528131-3.890698c1.777102 8.464896 43.57581 208.678079 47.382385 317.922552a9.463858 9.463858 0 0 1-9.127366 9.789836zM269.488627 231.149485a9.463858 9.463858 0 0 1-8.527988-13.564864c4.374406-9.106335 8.853965-17.760508 13.32301-25.75221a9.463858 9.463858 0 1 1 16.51969 9.243035c-4.279767 7.644695-8.57005 15.951859-12.776208 24.70067a9.463858 9.463858 0 0 1-8.538504 5.373369z" fill="#532356" p-id="14014"></path><path d="M478.345468 1024c-107.015208 0-207.963032-45.026935-212.411045-47.024861a9.463858 9.463858 0 0 1-5.520585-7.686756c-7.823456-78.213532-8.549019-161.863526-8.223041-207.153346a9.463858 9.463858 0 0 1-7.360779 2.639365c-69.759152-5.362853-99.896284-44.164673-101.200193-45.805075a9.463858 9.463858 0 0 1-1.924318-5.41543c-3.796059-119.055339 53.0607-301.970692 56.478204-312.833099 15.299904-59.832616 31.998357-111.578891 49.622165-153.808731a9.463858 9.463858 0 1 1 17.466076 7.287171c-17.29783 41.441185-33.722882 92.40932-48.812478 151.421735 0 0.168246-0.094639 0.336493-0.147216 0.504739-0.588862 1.871741-58.318399 186.416981-55.731611 303.495426 6.624701 7.245109 31.314856 30.410532 80.053727 35.752354l13.501772-21.819452a9.463858 9.463858 0 0 1 17.508138 5.257699c0 1.219786-3.554205 121.684189 7.066347 233.000196 21.924605 9.11685 112.714554 44.301373 204.240581 43.197256V132.189072H356.314271c-2.10308 0.210308-21.798421 3.217712-49.758865 43.523233a9.463858 9.463858 0 1 1-15.552274-10.788798c34.700814-49.969173 61.26271-51.75679 65.710724-51.672668h135.701215a9.463858 9.463858 0 0 1 9.463858 9.463859v891.548043a9.463858 9.463858 0 0 1-9.095819 9.463859q-7.224079 0.2734-14.437642 0.2734z" fill="#532356" p-id="14015"></path><path d="M380.794118 809.88546l-118.613693-25.510356s0-137.751717 2.555242-234.682659c2.555242-6.372331 116.068966 0 116.068966 0z" fill="#EEF2F9" p-id="14016"></path><path d="M380.794118 819.349319a9.463858 9.463858 0 0 1-1.98741-0.210308l-118.613693-25.510357a9.463858 9.463858 0 0 1-7.476448-9.25355c0-1.377517 0-138.982019 2.555242-234.935028a9.463858 9.463858 0 0 1 0.672985-3.270289c2.870704-7.182017 11.051684-8.18098 27.739621-8.633142 9.905505-0.2734 23.459854-0.168246 40.295006 0.294431 28.496729 0.788655 57.056551 2.386995 57.340467 2.397511a9.463858 9.463858 0 0 1 8.938088 9.463858v260.193015a9.463858 9.463858 0 0 1-9.463858 9.463859z m-109.149834-42.61891l99.685975 21.482959V558.66208c-40.095214-2.10308-82.293507-3.091527-97.320011-1.735041-2.008441 81.98856-2.313388 190.37077-2.355449 219.813886zM226.480648 343.727339a9.463858 9.463858 0 0 1-3.880182-18.097c1.556279-0.694016 38.54945-17.150615 77.572093-23.659647a9.463858 9.463858 0 1 1 3.15462 18.664832c-36.551524 6.088416-72.556248 22.082336-72.934803 22.261099a9.463858 9.463858 0 0 1-3.911728 0.830716zM189.476962 478.923815a9.463858 9.463858 0 0 1-3.217712-18.359886c1.903287-0.694016 47.172077-16.950822 85.837196-23.396761a9.463858 9.463858 0 1 1 3.154619 18.664832c-36.982656 6.162023-82.020107 22.366252-82.524845 22.523983a9.463858 9.463858 0 0 1-3.249258 0.567832z" fill="#532356" p-id="14017"></path><path d="M165.228453 609.020322a9.463858 9.463858 0 0 1-3.154619-18.370401c1.903287-0.694016 47.172077-16.950822 85.837196-23.396761a9.470168 9.470168 0 0 1 3.154619 18.675348c-36.982656 6.162023-82.020107 22.355737-82.524845 22.523983a9.463858 9.463858 0 0 1-3.312351 0.567831zM280.046087 547.452665h-0.336493a9.463858 9.463858 0 0 1-9.127365-9.789835c3.806574-109.244473 45.605282-309.457656 47.382384-317.922552a9.465962 9.465962 0 1 1 18.528132 3.890697c-0.431131 2.10308-43.239318 207.090254-46.993315 314.694325a9.463858 9.463858 0 0 1-9.453343 9.127365zM531.837299 222.789743a9.463858 9.463858 0 0 1-2.281842-18.696378c101.105554-25.236956 129.749499-62.829505 134.754829-70.684507l-0.483708-71.126154c0-6.982224-10.788799-18.538647-41.188815-28.391575-29.863731-9.674166-69.759152-15.005473-112.336-15.005474s-82.482784 5.394399-112.346515 15.047535c-30.400016 9.842413-41.188815 21.409351-41.188815 28.328483l0.504739 71.199762c4.773991 7.781395 32.461034 45.363428 133.734835 70.684507a9.463858 9.463858 0 0 1-4.595229 18.359886c-123.492837-30.883725-146.363829-80.737228-147.268153-82.850823a9.463858 9.463858 0 0 1-0.778139-3.690905l-0.52577-73.607788c0-18.927717 18.769986-34.900607 54.291001-46.404453C423.833643 5.68883 465.800598 0.031546 510.301763 0.031546s86.46812 5.657284 118.172046 15.920313c35.499985 11.482815 54.269971 27.497767 54.269971 46.309814l0.504739 73.607788a9.463858 9.463858 0 0 1-0.851748 3.985336c-0.956901 2.10308-24.81634 51.830398-148.267115 82.682577a9.463858 9.463858 0 0 1-2.292357 0.252369z" fill="#532356" p-id="14018"></path><path d="M673.78466 135.901007s-21.766874 47.319292-142.199731 77.424878v-96.058163a38.906974 38.906974 0 0 1 27.708075-36.993172l83.95494-25.447263a23.670162 23.670162 0 0 1 30.494655 22.650168z" fill="#A06145" p-id="14019"></path><path d="M531.584929 222.789743a9.463858 9.463858 0 0 1-9.463858-9.463858v-96.058163a48.591655 48.591655 0 0 1 34.427414-46.057445l83.97597-25.436748a33.13402 33.13402 0 0 1 42.745095 31.703926v58.423552a9.463858 9.463858 0 0 1-0.862263 3.95379c-0.967417 2.10308-25.079225 51.788337-148.498455 82.651031a9.463858 9.463858 0 0 1-2.323903 0.283915zM650.15656 63.260636a14.332488 14.332488 0 0 0-4.206159 0.620409l-83.95494 25.436748a29.537754 29.537754 0 0 0-21.030796 27.939413v83.786694c91.662727-25.163348 118.445446-60.137563 123.272014-67.656073V77.477455a14.227334 14.227334 0 0 0-14.164242-14.216819z m23.6281 72.640371z" fill="#532356" p-id="14020"></path><path d="M350.21534 135.901007s21.766874 47.319292 142.199731 77.424878v-96.058163a38.906974 38.906974 0 0 0-27.708075-36.993172l-83.912878-25.447263a23.670162 23.670162 0 0 0-30.494655 22.650168z" fill="#A06145" p-id="14021"></path><path d="M492.415071 222.789743a9.463858 9.463858 0 0 1-2.292357-0.283915C366.703484 191.653649 342.581161 141.957877 341.613744 139.854797a9.463858 9.463858 0 0 1-0.862263-3.95379V77.477455a33.13402 33.13402 0 0 1 42.745094-31.703926l83.95494 25.436748a48.591655 48.591655 0 0 1 34.427414 46.057445v96.058163a9.463858 9.463858 0 0 1-9.463858 9.463858z m-132.735873-89.380885c4.963268 7.707787 31.745987 42.566332 123.272014 67.677103v-83.818239a29.537754 29.537754 0 0 0-21.030796-27.939414l-83.923394-25.436748a14.206303 14.206303 0 0 0-18.328339 13.59641z" fill="#532356" p-id="14022"></path></svg>