<?xml version="1.0" standalone="no"?><!DOCTYPE svg PUBLIC "-//W3C//DTD SVG 1.1//EN" "http://www.w3.org/Graphics/SVG/1.1/DTD/svg11.dtd"><svg t="1555589814910" class="icon" style="" viewBox="0 0 1024 1024" version="1.1" xmlns="http://www.w3.org/2000/svg" p-id="7360" xmlns:xlink="http://www.w3.org/1999/xlink" width="48" height="48"><defs><style type="text/css"></style></defs><path d="M454 143.9c-7-52.7-15.6-177.8-243.2-98.3-222.3 77.7-71.4 519.9-56.2 744.2 3.7 54.7 63.1 163.9 200.8 82.7 113.5-66.9 29.1-215.8 38.3-343.5 9.3-127.7 87.4-180.6 60.3-385.1z" fill="#F65064" p-id="7361"></path><path d="M264.9 917.1c-22.8 0-40.9-5.9-54.6-13.1-45.3-23.9-68.7-75.3-71.2-113.1-3.6-53-15.1-119.3-27.2-189.4-39.1-226-87.7-507.2 93.7-570.6 94-32.8 161.2-35.4 205.7-8 46.7 28.9 53.5 82.2 57.6 114l0.6 4.9c17.4 131.4-8.2 204.1-30.7 268.1-13.4 38.2-26.1 74.2-29.4 120.1-2.9 40.1 4 83.4 10.7 125.3 14.1 88.6 28.7 180.2-56.7 230.5-39.3 23.3-72 31.3-98.5 31.3z m70.9-881.7c-32.2 0-72.3 8.3-119.9 25-156.5 54.7-110.4 321.4-73.3 535.7 12.3 71 23.9 138 27.6 192.6 1.7 24.5 17.6 68.1 54.7 87.6 32.7 17.2 74 11.4 122.7-17.3 67.1-39.6 55.3-113.3 41.7-198.7-7-43.6-14.2-88.8-11-132.5 3.6-50 17.6-89.8 31.1-128.2C431.8 335.9 455 270 438.6 146l-0.6-5c-3.6-28-9-70.4-43-91.5-15.3-9.4-35-14.1-59.2-14.1z" fill="#272A3B" p-id="7362"></path><path d="M395 405c16-33.2 18.1-66.2 6.2-97.9-22.8-60.6-90.3-97.8-113.3-108.9 1-6.5 3.1-11.8 6.7-15.6 9.2-9.8 25.2-9.6 25.8-9.6 8.3 0.6 15.8-6.3 16.2-14.9 0.4-8.6-6.3-15.9-14.9-16.3-3.1-0.1-30.6-0.8-49.6 19-10.2 10.6-15.3 24.7-15.9 41.8C217.4 232 70 354.8 143.4 476.3c19.1 31.6 13.1 61.7 4.1 107.2-4.2 21.1-9 45.1-11.8 72.9-0.9 8.6 5.4 16.2 14 17.1 0.5 0.1 1.1 0.1 1.6 0.1 7.9 0 14.7-6 15.5-14 2.7-26.4 7.3-49.5 11.3-70 9.7-48.9 17.4-87.5-8-129.5-58-95.9 66.7-202.8 103.1-231.1h0.1c1.4-0.1 2.7-0.7 4-1.2 22 11.2 76.8 42.9 94.7 90.3 8.9 23.7 7.3 47.7-5.1 73.3-42 87.1-38.7 167.7 10.4 253.7 4.3 7.5 13.8 10.1 21.3 5.8s10.1-13.8 5.8-21.3c-44.1-77.2-47-146.5-9.4-224.6z" fill="#62B5F9" p-id="7363"></path><path d="M570 246.7c7-52.7 15.6-177.8 243.2-98.3 222.3 77.7 71.4 519.9 56.2 744.2-3.7 54.7-63.1 163.9-200.8 82.7-113.5-66.9-29.1-215.8-38.3-343.5C621 504 542.9 451.2 570 246.7z" fill="#F65064" p-id="7364"></path><path d="M660.6 988.7c-85.4-50.4-70.8-141.9-56.7-230.5 6.7-41.9 13.6-85.2 10.7-125.3-3.3-45.9-16-81.9-29.4-120.1-22.6-64.1-48.1-136.7-30.7-268.1l0.6-4.9c4.1-31.9 10.9-85.2 57.6-114 44.4-27.5 111.7-24.9 205.7 8 181.5 63.4 132.8 344.6 93.8 570.5-12.2 70.1-23.6 136.3-27.2 189.4-2.6 37.7-26 89.2-71.2 113.1-13.7 7.2-31.8 13.1-54.6 13.1-26.6-0.1-59.3-8-98.6-31.2z m-31.5-836.4c-34 21-39.4 63.4-43 91.5l-0.6 5c-16.4 124 6.8 189.9 29.2 253.7 13.5 38.4 27.5 78.2 31.1 128.2 3.1 43.7-4 88.8-11 132.5-13.6 85.4-25.4 159.2 41.7 198.7 48.7 28.7 90 34.5 122.7 17.3 37-19.5 53-63.1 54.7-87.6 3.7-54.6 15.3-121.7 27.6-192.6 37.1-214.3 83.2-481-73.3-535.7-47.6-16.6-87.7-25-119.9-25-24.3-0.1-44 4.6-59.2 14z" fill="#272A3B" p-id="7365"></path><path d="M629 507.8c-16-33.2-18.1-66.2-6.2-97.9 22.8-60.6 90.3-97.8 113.3-108.9-1-6.5-3.1-11.8-6.7-15.6-9.2-9.8-25.2-9.6-25.8-9.6-8.3 0.6-15.8-6.3-16.2-14.9-0.4-8.6 6.3-15.9 14.9-16.3 3.1-0.1 30.6-0.8 49.6 19 10.2 10.6 15.3 24.7 15.9 41.8C806.6 334.8 954 457.6 880.6 579c-19.1 31.6-13.1 61.7-4.1 107.2 4.2 21.1 9 45.1 11.8 72.9 0.9 8.6-5.4 16.2-14 17.1-0.5 0.1-1.1 0.1-1.6 0.1-7.9 0-14.7-6-15.5-14-2.7-26.4-7.3-49.5-11.3-70-9.7-48.9-17.4-87.5 8-129.5 58-95.9-66.7-202.8-103.1-231.1h-0.1c-1.4-0.1-2.7-0.7-4-1.2-22 11.2-76.8 42.9-94.7 90.3-8.9 23.7-7.3 47.7 5.1 73.3 42 87.1 38.7 167.7-10.4 253.7-4.3 7.5-13.8 10.1-21.3 5.8s-10.1-13.8-5.8-21.3c44.1-77.2 47-146.5 9.4-224.5z" fill="#62B5F9" p-id="7366"></path></svg>