<?xml version="1.0" standalone="no"?><!DOCTYPE svg PUBLIC "-//W3C//DTD SVG 1.1//EN" "http://www.w3.org/Graphics/SVG/1.1/DTD/svg11.dtd"><svg t="1555405062136" class="icon" style="" viewBox="0 0 1024 1024" version="1.1" xmlns="http://www.w3.org/2000/svg" p-id="11617" xmlns:xlink="http://www.w3.org/1999/xlink" width="48" height="48"><defs><style type="text/css"></style></defs><path d="M991 663l-63.2-109.5L845.5 411l-86.4-152.9c-2-3.6-5.2-6.5-9-8.3L690.6 222c0.9-4.3 1.4-8.6 1.4-13 0-58-80.6-105-180-105s-180 47-180 105c0 4.4 0.5 8.8 1.4 13l-59.6 27.8c-3.8 1.8-6.9 4.7-9 8.3L178.5 411 96.2 553.4 33 663c-5.5 9.6-2.2 21.8 7.3 27.3l8 4.7 85.9 49.6 7.4 4.3c9.5 5.5 21.8 2.2 27.3-7.3L267 572.2V900c0 11 8.9 20 20 20h450c11.1 0 20-9 20-20V572.2l98.1 169.3c5.5 9.6 17.8 12.8 27.3 7.3l7.4-4.3 85.9-49.6 8.1-4.7c9.4-5.4 12.7-17.7 7.2-27.2z" fill="#FFFFFF" p-id="11618"></path><path d="M763 259c-0.5-0.9-18-11.6-19-12l-50-19c-10.5 22.6-29.6 42.8-59 58-35.1 18.2-82.5 27-129 27s-170.7-47.5-181.2-70l-92.9 163.4-112.7 195.2-50.6 87.7L156 757c0.8 0.4 119-215 119-215l-8 369c0 2.8 488 0.8 488-2l1-322 111 158c0.9 1.6 132.8-72.3 133-73S763 259 763 259z" fill="#FFCD44" p-id="11619"></path><path d="M542 299c-41.8 0-81.8-8.8-112.7-24.9-28.6-14.9-46.8-34.5-51.2-55.2-0.7-3.3-1.1-6.6-1.1-9.9 0-22.5 16.1-44.3 45.3-61.3C454 129.2 496.5 119 542 119s88 10.2 119.7 28.7c29.2 17 35.3 38.8 35.3 61.3 0 3.3-1.4 6.6-2.1 9.9-4.4 20.8-11.6 40.4-40.2 55.2C623.8 290.2 583.8 299 542 299z" fill="#FFCD44" p-id="11620"></path><path d="M668 791H356c28.7-50.1 48.4-104.6 58-162h196c9.6 57.4 29.3 111.9 58 162z" fill="#9FD382" p-id="11621"></path><path d="M904.8 601.6L792.1 406.4 699.2 243c0.1-0.1 0.1-0.2 0.2-0.4L748 258c0.9 0.4 7.5 5.1 8 6l173 285 62 123c0.9 1.6-35.6 17.3-35.6 17.3l-50.6-87.7zM653.7 147.7c-28.3-16.5-82.7-26.4-126.4-28.3-5.2 0.3-10.3 0.6-15.4 1.2 34 3.5 65.1 12.8 89.7 27.2 29.2 17 45.3 38.8 45.3 61.3 0 3.3-0.4 6.6-1.1 9.9-4.4 20.8-22.6 40.4-51.2 55.2-23.4 12.1-52.1 20.1-82.8 23.3 5.1 0.5 10.3 0.9 15.6 1.2 40.5-1.8 92-10.3 119.2-24.5 28.6-14.9 35.8-34.5 40.2-55.2 0.7-3.3 0.1-6.6 0.1-9.9 0.1-22.6-4-44.4-33.2-61.4z" fill="#FFA51E" p-id="11622"></path><path d="M624.8 626.5c-1.2-7.2-7.5-12.5-14.8-12.5H414c-7.3 0-13.6 5.3-14.8 12.5-9.2 55.2-28.1 108-56.2 157-2.7 4.6-2.6 10.4 0 15s7.6 7.5 13 7.5h312c5.4 0 10.3-2.9 13-7.5s2.7-10.3 0-15c-28.1-49-47-101.8-56.2-157zM381.2 776c21.3-41.9 36.5-86.1 45.4-132h170.9c8.9 45.9 24.1 90.1 45.4 132H381.2z" fill="#1C0900" p-id="11623"></path><path d="M1004 655.5l-63.1-109.2c-0.1-0.1-0.1-0.2-0.2-0.3l-82.2-142.4-86.3-152.8c-3.6-6.4-9-11.4-15.7-14.5l-49.6-23.1c0.1-1.4 0.1-2.7 0.1-4.1 0-33.6-21.4-64.6-60.2-87.2C610.6 100.6 562.7 89 512 89s-98.6 11.6-134.8 32.8C338.4 144.4 317 175.4 317 209c0 1.4 0 2.7 0.1 4.1l-49.6 23.1c-6.7 3.1-12.1 8.1-15.7 14.5l-86.3 152.8-82.3 142.4c-0.1 0.1-0.1 0.2-0.2 0.3L20 655.5c-4.7 8.1-5.9 17.5-3.5 26.6 2.4 9 8.2 16.6 16.3 21.2l101.3 58.5c16.7 9.6 38.1 3.9 47.8-12.8L252 628v272c0 19.3 15.7 35 35 35h450c19.3 0 35-15.7 35-35V628l70.1 121c9.7 16.7 31.1 22.4 47.8 12.8l101.3-58.5c8.1-4.7 13.9-12.2 16.3-21.3 2.4-9 1.2-18.4-3.5-26.5zM512 119c89.4 0 165 41.2 165 90 0 3.3-0.4 6.6-1.1 9.9-0.1 0.7-0.3 1.4-0.5 2.1-9.3 36.2-59.3 65.8-122.1 75-2.4 0.4-4.8 0.7-7.3 1s-4.9 0.6-7.4 0.8l-7.5 0.6c-2.5 0.2-5 0.3-7.6 0.4-3.8 0.2-7.7 0.2-11.5 0.2s-7.7-0.1-11.5-0.2c-2.5-0.1-5.1-0.2-7.6-0.4l-7.5-0.6c-70.8-6.6-128.9-38.9-137.4-78.9-0.7-3.3-1.1-6.6-1.1-9.9 0.1-48.8 75.7-90 165.1-90z m466.5 555.3c-0.2 0.7-0.8 2.1-2.3 3l-101.3 58.5c-2.4 1.4-5.4 0.6-6.8-1.8L772 568.2V434c0-8.3-6.7-15-15-15s-15 6.7-15 15v466c0 2.8-2.2 5-5 5H287c-2.8 0-5-2.2-5-5V434c0-8.3-6.7-15-15-15s-15 6.7-15 15v134.2L155.9 734c-1.4 2.4-4.4 3.2-6.8 1.8L47.8 677.3c-1.6-0.9-2.1-2.3-2.3-3s-0.4-2.2 0.5-3.8L109.2 561c0.1-0.1 0.1-0.2 0.2-0.3l82.1-142.1s0-0.1 0.1-0.1L278 265.6c0.5-0.9 1.3-1.6 2.2-2.1l44.4-20.7c0.2 0.3 0.3 0.6 0.5 1 0.1 0.3 0.2 0.5 0.4 0.8 0.4 0.7 0.7 1.4 1.1 2.1 0 0.1 0.1 0.2 0.1 0.3 0.4 0.8 0.9 1.6 1.3 2.4 0.1 0.2 0.3 0.4 0.4 0.7 0.3 0.6 0.7 1.2 1 1.7 0.2 0.3 0.3 0.5 0.5 0.8 0.3 0.6 0.7 1.1 1 1.7 0.2 0.2 0.3 0.5 0.5 0.7 0.5 0.7 0.9 1.4 1.4 2.1 0 0.1 0.1 0.1 0.1 0.2 0.5 0.8 1.1 1.5 1.7 2.3 0.2 0.2 0.3 0.4 0.5 0.6 0.4 0.6 0.8 1.1 1.3 1.7 0.2 0.2 0.4 0.5 0.6 0.7 0.4 0.5 0.9 1.1 1.3 1.6 0.2 0.2 0.4 0.4 0.5 0.7l1.8 2.1s0 0.1 0.1 0.1c0.7 0.7 1.3 1.5 2 2.2 0.2 0.2 0.4 0.4 0.5 0.6 0.5 0.5 1 1.1 1.5 1.6l0.7 0.7c0.5 0.5 1 1 1.6 1.5l0.6 0.6c0.7 0.7 1.5 1.4 2.2 2.1 0.8 0.7 1.5 1.4 2.3 2.1l0.6 0.6 1.8 1.5c0.3 0.2 0.5 0.4 0.8 0.7 0.6 0.5 1.2 1 1.8 1.4 0.2 0.2 0.5 0.4 0.7 0.6 1.7 1.3 3.4 2.6 5.2 3.9 0.2 0.2 0.5 0.4 0.7 0.5 0.6 0.5 1.3 0.9 2 1.4l0.9 0.6c0.7 0.4 1.3 0.9 2 1.3 0.3 0.2 0.6 0.4 0.8 0.6 0.9 0.6 1.9 1.2 2.8 1.8 1 0.6 1.9 1.2 2.9 1.8 0.3 0.2 0.6 0.4 0.9 0.5l2.1 1.2c0.3 0.2 0.7 0.4 1 0.6 0.7 0.4 1.4 0.8 2.2 1.2 0.3 0.2 0.6 0.3 0.9 0.5 1 0.6 2.1 1.1 3.1 1.7C420.5 319 465.5 329 512 329h4.4c37.7-0.5 74.2-7.6 105.1-20.3 1.2-0.5 2.4-1 3.5-1.5 2.3-1 4.6-2 6.9-3.1 2.3-1.1 4.5-2.2 6.7-3.3 1.1-0.5 2.1-1.1 3.1-1.7 0.3-0.2 0.6-0.3 0.9-0.5l2.1-1.2c0.3-0.2 0.7-0.4 1-0.6l2.1-1.2c0.3-0.2 0.6-0.4 0.9-0.5 1-0.6 2-1.2 2.9-1.8 1-0.6 1.9-1.2 2.8-1.8 0.3-0.2 0.6-0.4 0.8-0.6 0.7-0.4 1.3-0.9 2-1.3l0.9-0.6c0.7-0.5 1.3-0.9 1.9-1.4 0.3-0.2 0.5-0.4 0.8-0.6 0.9-0.6 1.8-1.3 2.6-1.9 0 0 0.1 0 0.1-0.1 0.8-0.6 1.6-1.3 2.5-1.9 0.3-0.2 0.5-0.4 0.8-0.6 0.6-0.5 1.2-0.9 1.7-1.4 0.3-0.2 0.6-0.5 0.8-0.7 0.6-0.5 1.1-1 1.7-1.5 0.2-0.2 0.5-0.4 0.7-0.6 0.8-0.7 1.5-1.4 2.3-2.1l0.2-0.2c0.7-0.6 1.4-1.3 2.1-1.9l0.7-0.7 1.5-1.5 0.8-0.8c0.5-0.5 1-1 1.4-1.5 0.2-0.2 0.4-0.5 0.6-0.7 0.7-0.7 1.3-1.4 2-2.2l0.3-0.3c0.6-0.6 1.1-1.3 1.6-1.9 0.2-0.3 0.4-0.5 0.6-0.8l1.2-1.5c0.2-0.3 0.5-0.6 0.7-0.9 0.4-0.5 0.8-1 1.1-1.5 0.2-0.3 0.4-0.5 0.6-0.8 0.5-0.7 1.1-1.5 1.6-2.2 0.1-0.2 0.2-0.3 0.3-0.5l1.2-1.8 0.6-0.9c0.3-0.5 0.6-1 0.9-1.4 0.2-0.3 0.4-0.6 0.6-1l0.9-1.5c0.2-0.3 0.3-0.6 0.5-0.9 0.4-0.8 0.8-1.5 1.3-2.3l0.3-0.6 0.9-1.8c0.2-0.3 0.3-0.6 0.5-1 0.1-0.3 0.3-0.6 0.4-0.8l44.4 20.7c0.9 0.4 1.7 1.2 2.2 2.1L832.4 418s0 0.1 0.1 0.1l82.1 142.1c0.1 0.1 0.1 0.2 0.2 0.3l63.2 110c0.9 1.5 0.7 3 0.5 3.8z" fill="#1C0900" p-id="11624"></path></svg>