<?xml version="1.0" standalone="no"?><!DOCTYPE svg PUBLIC "-//W3C//DTD SVG 1.1//EN" "http://www.w3.org/Graphics/SVG/1.1/DTD/svg11.dtd"><svg t="1555405246568" class="icon" style="" viewBox="0 0 1024 1024" version="1.1" xmlns="http://www.w3.org/2000/svg" p-id="1020" xmlns:xlink="http://www.w3.org/1999/xlink" width="48" height="48"><defs><style type="text/css"></style></defs><path d="M393 14s53.5 13.1 118.5 13.1S630 14 630 14L507.7 210.9 393 14z" fill="#CCFFCC" p-id="1021"></path><path d="M507.7 221.4h-0.2c-3.7-0.1-7.1-2-9-5.2L383.9 19.4c-2.1-3.7-1.9-8.2 0.7-11.6 2.5-3.4 6.9-4.9 11-3.9 0.5 0.1 53.2 12.8 116 12.8 63 0 115.5-12.7 116-12.8 4.2-1 8.5 0.6 11 4.1 2.5 3.5 2.7 8.1 0.4 11.8L516.6 216.5c-1.9 3.1-5.3 4.9-8.9 4.9zM413.9 29l94 161.4L608.2 29.2c-22.1 3.8-57.2 8.5-96.7 8.5-40.1 0-75.6-4.8-97.6-8.7z" fill="#40B276" p-id="1022"></path><path d="M921.7 946l-144.2 21.2s-31.6-124-57.7-351.3S671.3 194 671.3 194l179.3-15.9s57.8 237.4 72.6 441.6c17.4 241.5-1.5 326.3-1.5 326.3z" fill="#CCFFCC" p-id="1023"></path><path d="M777.5 977.8c-4.8 0-9-3.2-10.2-7.9-0.3-1.2-32.1-127.3-58-352.7-26.2-227.4-48.4-422-48.4-422-0.3-2.8 0.5-5.7 2.3-7.9s4.4-3.6 7.2-3.8l179.3-15.9c5.2-0.5 9.9 2.9 11.2 8 0.6 2.4 58.2 240.6 72.8 443.3 17.3 240.3-0.9 325.9-1.7 329.4-0.9 4.3-4.4 7.5-8.8 8.1L779 977.7c-0.5 0-1 0.1-1.5 0.1zM683 203.5c5 43.7 24.6 215.3 47.2 411.2 21.8 189.5 47.7 308 55.3 340.7l127.2-18.7c3.8-24.8 14.4-117.3 0-316.3-12.9-178.9-59.7-386.2-70.2-431L683 203.5zM921.7 946z m0 0z" fill="#40B276" p-id="1024"></path><path d="M794.5 1008.5l119.8-17-5.1-40.3-119.9 16.9z" fill="#FFFFFF" p-id="1025"></path><path d="M794.5 1019c-2.3 0-4.6-0.7-6.4-2.2-2.2-1.7-3.7-4.2-4.1-7.1l-5.1-40.3c-0.7-5.7 3.3-11 9-11.8l119.8-16.9c2.8-0.4 5.6 0.4 7.9 2.1 2.2 1.7 3.7 4.2 4.1 7.1l5.1 40.3c0.7 5.7-3.3 11-9 11.8L796 1018.9c-0.5 0.1-1 0.1-1.5 0.1z m6.6-41.9l2.5 19.4 98.9-14-2.5-19.4-98.9 14z" fill="#40B276" p-id="1026"></path><path d="M102.1 945.9l144.2 21.3s31.8-126.3 58.4-357.7c26.6-231.5 49.2-429.6 49.2-429.6L170.7 165s-54.4 240.9-69.5 448.8c-17.8 245.8 0.9 332.1 0.9 332.1z" fill="#CCFFCC" p-id="1027"></path><path d="M246.4 977.8c-0.5 0-1 0-1.5-0.1l-144.2-21.3c-4.3-0.6-7.8-3.9-8.8-8.2-0.9-3.6-18.9-90.6-1.2-335.2 15-206.2 69.2-447.9 69.8-450.3 1.2-5.1 5.9-8.6 11.1-8.2l183.2 14.9c2.8 0.2 5.5 1.6 7.3 3.8 1.8 2.2 2.7 5.1 2.3 7.9 0 0-22.6 198.1-49.2 429.6-26.3 229.5-58.3 357.8-58.6 359.1-1.2 4.7-5.5 8-10.2 8z m-135.2-41.2l127.1 18.7c7.6-33.1 33.8-153.9 55.9-347.1 22.9-199.6 42.9-374.5 47.9-418.8L179 176.1c-9.9 45.5-54.1 256-67.3 438.3-14.7 203.6-4.3 297.2-0.5 322.2z" fill="#40B276" p-id="1028"></path><path d="M775.8 880.2H245.6s-20.4-72.2-34.3-202.4C197.4 547.6 170.7 165 170.7 165s109.2-98.4 336.8-98.4c249.5 0 343.1 111.5 343.1 111.5s-30.3 425.3-42.4 521c-12.2 95.8-32.4 181.1-32.4 181.1z" fill="#FFFFFF" p-id="1029"></path><path d="M775.8 890.7H245.6c-4.7 0-8.9-3.1-10.1-7.7-0.8-3-20.8-74.5-34.6-204.1C187 550 160.5 169.5 160.2 165.7c-0.2-3.2 1.1-6.4 3.5-8.6C168.3 153 278.5 56 507.6 56c251.5 0 347.2 110.6 351.1 115.3 1.8 2.1 2.6 4.8 2.4 7.5-0.3 4.3-30.4 426.6-42.5 521.6-12.1 95.2-32.4 181.3-32.6 182.2-1.1 4.8-5.3 8.1-10.2 8.1z m-522.1-21.1h513.6c5.3-23.5 20.6-94.6 30.4-171.8 11.3-89.1 38.7-469.6 42-515.9-17-17.3-114.1-104.8-332.2-104.8-197.4 0-304.9 76-325.9 92.6 3.3 47.1 27.3 386.9 40.1 507 11.2 103.9 26.6 171.2 32 192.9z" fill="#40B276" p-id="1030"></path><path d="M229.3 1008.5l-119.8-17 5.1-40.3 119.9 16.9z" fill="#FFFFFF" p-id="1031"></path><path d="M229.3 1019c-0.5 0-1 0-1.5-0.1L108 1002c-5.7-0.8-9.7-6.1-9-11.8l5.1-40.3c0.4-2.8 1.8-5.3 4.1-7.1 2.2-1.7 5.1-2.4 7.9-2.1l119.8 16.9c5.7 0.8 9.7 6.1 9 11.8l-5.1 40.3c-0.4 2.8-1.8 5.3-4.1 7.1-1.8 1.4-4.1 2.2-6.4 2.2z m-108-36.4l98.9 14 2.5-19.4-98.9-14-2.5 19.4z" fill="#40B276" p-id="1032"></path><path d="M477.2 165h68.6v715.2h-68.6z" fill="#CCFFCC" p-id="1033"></path><path d="M545.8 890.7h-68.6c-5.8 0-10.5-4.7-10.5-10.5V165c0-5.8 4.7-10.5 10.5-10.5h68.6c5.8 0 10.5 4.7 10.5 10.5v715.2c0 5.8-4.7 10.5-10.5 10.5z m-58.1-21.1h47.5V175.5h-47.5v694.1z" fill="#40B276" p-id="1034"></path><path d="M396.1 14s-18.7 13.1-37.4 32.8c-15 15.8-25 32.8-25 32.8l137.2 124.7 43.7-52.5c1 0.8-38.1-18.2-62.4-52.5-23-32.4-56.1-85.3-56.1-85.3z" fill="#CCFFCC" p-id="1035"></path><path d="M470.9 214.9c-2.6 0-5.1-1-7.1-2.7L326.6 87.5c-3.7-3.4-4.5-8.8-2-13.1 0.4-0.7 10.8-18.3 26.4-34.8C370.2 19.4 389.2 6 390 5.4c2.4-1.7 5.3-2.3 8.1-1.7 2.8 0.6 5.3 2.3 6.8 4.7 0.3 0.5 33.2 53 55.8 84.8 21.1 29.8 53.8 46.9 57.4 48.7 1.1 0.4 2.2 1 3.1 1.8 3.1 2.6 4.5 6.8 3.5 10.8-0.5 1.8-1.4 3.4-2.6 4.6l-43.1 52c-1.8 2.2-4.5 3.6-7.4 3.8h-0.7zM347.4 77.8l122.5 111.3 28.4-34.1c-16.7-10-40.1-29-54.6-49.5-17-23.9-39.6-59.1-50.3-76-6.9 5.5-17 14.2-27 24.7-8.3 8.5-14.9 17.6-19 23.6z" fill="#40B276" p-id="1036"></path><path d="M626.1 14s18.7 13.1 37.4 32.8c15 15.8 25 32.8 25 32.8L551.3 204.3l-36.6-52.5c-1 0.8 31-18.2 55.3-52.5C593 66.9 626.1 14 626.1 14z" fill="#CCFFCC" p-id="1037"></path><path d="M551.2 214.9c-0.4 0-0.8 0-1.2-0.1-3-0.3-5.7-2-7.5-4.4l-36.2-51.8c-0.9-1.2-1.7-2.5-2-4-1-4 0.3-8.2 3.5-10.8 0.6-0.5 1.4-1 2.1-1.4 3-1.8 30.1-19.1 51.4-49.1C584 61.4 616.8 9 617.2 8.4a10 10 0 0 1 6.8-4.7c2.8-0.6 5.8 0 8.1 1.7 0.8 0.6 19.8 14 39 34.2 15.7 16.5 26 34 26.4 34.8 2.5 4.3 1.7 9.8-2 13.1L558.3 212.1c-1.9 1.8-4.4 2.8-7.1 2.8z m-21.8-60.3l23.6 33.8L674.8 77.8c-4.1-6.1-10.7-15.1-18.9-23.7-10-10.6-20.1-19.2-27-24.7-10.7 16.9-33.3 52.1-50.3 76-12.9 18.1-33.8 38.5-49.2 49.2z" fill="#40B276" p-id="1038"></path><path d="M509.8 237.3s-5.3 25.8-1.3 32.7" fill="#FFFFFF" p-id="1039"></path><path d="M508.8 280.8c-3.8 0-7.5-2-9.5-5.5-5-8.6-2.7-26.6 0.1-40.2 1.2-5.7 6.8-9.4 12.5-8.2 5.7 1.2 9.4 6.8 8.2 12.5-2.2 10.5-3.2 22.8-2.3 25.9 2.9 5 1 11.2-4 14.1-1.5 0.9-3.3 1.4-5 1.4z" fill="#40B276" p-id="1040"></path><path d="M509.1 322.4v26.3" fill="#FFFFFF" p-id="1041"></path><path d="M509.1 359.2c-5.8 0-10.5-4.7-10.5-10.5v-26.2c0-5.8 4.7-10.5 10.5-10.5s10.5 4.7 10.5 10.5v26.2c0 5.8-4.7 10.5-10.5 10.5z" fill="#40B276" p-id="1042"></path><path d="M509.1 407.7V434" fill="#FFFFFF" p-id="1043"></path><path d="M509.1 444.5c-5.8 0-10.5-4.7-10.5-10.5v-26.2c0-5.8 4.7-10.5 10.5-10.5s10.5 4.7 10.5 10.5V434c0 5.8-4.7 10.5-10.5 10.5z" fill="#40B276" p-id="1044"></path><path d="M509.1 493v26.3" fill="#FFFFFF" p-id="1045"></path><path d="M509.1 529.8c-5.8 0-10.5-4.7-10.5-10.5V493c0-5.8 4.7-10.5 10.5-10.5s10.5 4.7 10.5 10.5v26.2c0 5.9-4.7 10.6-10.5 10.6z" fill="#40B276" p-id="1046"></path><path d="M509.1 578.3v26.3" fill="#FFFFFF" p-id="1047"></path><path d="M509.1 615.1c-5.8 0-10.5-4.7-10.5-10.5v-26.2c0-5.8 4.7-10.5 10.5-10.5s10.5 4.7 10.5 10.5v26.2c0 5.8-4.7 10.5-10.5 10.5z" fill="#40B276" p-id="1048"></path><path d="M509.1 663.6v26.3" fill="#FFFFFF" p-id="1049"></path><path d="M509.1 700.4c-5.8 0-10.5-4.7-10.5-10.5v-26.2c0-5.8 4.7-10.5 10.5-10.5s10.5 4.7 10.5 10.5v26.2c0 5.8-4.7 10.5-10.5 10.5z" fill="#40B276" p-id="1050"></path><path d="M509.1 748.9v26.3" fill="#FFFFFF" p-id="1051"></path><path d="M509.1 785.7c-5.8 0-10.5-4.7-10.5-10.5V749c0-5.8 4.7-10.5 10.5-10.5s10.5 4.7 10.5 10.5v26.2c0 5.8-4.7 10.5-10.5 10.5z" fill="#40B276" p-id="1052"></path><path d="M509.1 834.2v26.3" fill="#FFFFFF" p-id="1053"></path><path d="M509.1 871c-5.8 0-10.5-4.7-10.5-10.5v-26.2c0-5.8 4.7-10.5 10.5-10.5s10.5 4.7 10.5 10.5v26.2c0 5.8-4.7 10.5-10.5 10.5z" fill="#40B276" p-id="1054"></path><path d="M791.4 317.5v15.2c0 28.6-23.4 52.1-52.1 52.1h-81.5c-28.6 0-52.1-23.4-52.1-52.1v-15.2h185.7z" fill="#FFFFFF" p-id="1055"></path><path d="M739.4 395.3h-81.5c-34.5 0-62.6-28.1-62.6-62.6v-15.2c0-5.8 4.7-10.5 10.5-10.5h185.7c5.8 0 10.5 4.7 10.5 10.5v15.2c0 34.5-28.1 62.6-62.6 62.6z m-123.1-67.2v4.6c0 22.9 18.6 41.5 41.5 41.5h81.5c22.9 0 41.5-18.6 41.5-41.5v-4.6H616.3z" fill="#40B276" p-id="1056"></path><path d="M424 311v15.2c0 28.6-23.4 52.1-52.1 52.1h-81.5c-28.6 0-52.1-23.4-52.1-52.1V311H424z" fill="#FFFFFF" p-id="1057"></path><path d="M371.9 388.8h-81.5c-34.5 0-62.6-28.1-62.6-62.6V311c0-5.8 4.7-10.5 10.5-10.5H424c5.8 0 10.5 4.7 10.5 10.5v15.2c0 34.5-28.1 62.6-62.6 62.6z m-123-67.3v4.6c0 22.9 18.6 41.5 41.5 41.5h81.5c22.9 0 41.5-18.6 41.5-41.5v-4.6H248.9z" fill="#40B276" p-id="1058"></path><path d="M320.3 342.1h26.3" fill="#FFFFFF" p-id="1059"></path><path d="M346.6 352.7h-26.2c-5.8 0-10.5-4.7-10.5-10.5s4.7-10.5 10.5-10.5h26.2c5.8 0 10.5 4.7 10.5 10.5s-4.7 10.5-10.5 10.5z" fill="#40B276" p-id="1060"></path><path d="M681.2 348.7H714" fill="#FFFFFF" p-id="1061"></path><path d="M714 359.2h-32.8c-5.8 0-10.5-4.7-10.5-10.5s4.7-10.5 10.5-10.5H714c5.8 0 10.5 4.7 10.5 10.5 0.1 5.8-4.7 10.5-10.5 10.5z" fill="#40B276" p-id="1062"></path><path d="M271.959 635.81l51.88-8.048 27.456 176.987-51.88 8.048z" fill="#FFFFFF" p-id="1063"></path><path d="M299.4 823.3c-2.2 0-4.4-0.7-6.2-2-2.3-1.7-3.8-4.1-4.2-6.9l-27.5-176.9c-0.9-5.8 3-11.1 8.8-12l51.9-8.1c2.8-0.4 5.6 0.3 7.8 1.9 2.3 1.7 3.8 4.1 4.2 6.9l27.5 176.9c0.9 5.8-3 11.1-8.8 12l-51.9 8.1c-0.5 0.1-1 0.1-1.6 0.1zM284 644.6l24.2 156.1 31-4.8L315 639.8l-31 4.8z" fill="#40B276" p-id="1064"></path><path d="M307 690.2l7 45.4" fill="#FFFFFF" p-id="1065"></path><path d="M314 746.1c-5.1 0-9.6-3.7-10.4-8.9l-7-45.4c-0.9-5.8 3.1-11.1 8.8-12 5.8-0.9 11.1 3.1 12 8.8l7 45.4c0.9 5.8-3.1 11.1-8.8 12-0.6 0.1-1.1 0.1-1.6 0.1z" fill="#40B276" p-id="1066"></path><path d="M710.965 812.835l-51.88-8.049L686.54 627.8l51.88 8.048z" fill="#FFFFFF" p-id="1067"></path><path d="M711 823.3c-0.5 0-1.1 0-1.6-0.1l-51.9-8.1c-5.8-0.9-9.7-6.3-8.8-12l27.5-176.9c0.4-2.8 1.9-5.2 4.2-6.9 2.3-1.6 5.1-2.3 7.8-1.9l51.9 8.1c5.8 0.9 9.7 6.3 8.8 12l-27.5 176.9c-0.4 2.8-1.9 5.2-4.2 6.9-1.8 1.3-4 2-6.2 2z m-39.9-27.4l31 4.8 24.2-156.1-31-4.8-24.2 156.1z" fill="#40B276" p-id="1068"></path><path d="M703.4 690.2l-6.9 45.4" fill="#FFFFFF" p-id="1069"></path><path d="M696.5 746.1c-0.5 0-1.1 0-1.6-0.1-5.8-0.9-9.7-6.3-8.8-12l7-45.4c0.9-5.7 6.2-9.7 12-8.8 5.8 0.9 9.7 6.3 8.8 12l-7 45.4c-0.8 5.2-5.3 8.9-10.4 8.9z" fill="#40B276" p-id="1070"></path></svg>