<?xml version="1.0" standalone="no"?><!DOCTYPE svg PUBLIC "-//W3C//DTD SVG 1.1//EN" "http://www.w3.org/Graphics/SVG/1.1/DTD/svg11.dtd"><svg t="1555589902481" class="icon" style="" viewBox="0 0 1958 1024" version="1.1" xmlns="http://www.w3.org/2000/svg" p-id="8260" xmlns:xlink="http://www.w3.org/1999/xlink" width="91.78125" height="48"><defs><style type="text/css"></style></defs><path d="M1557.0938011 817.5203706H388.14629604V693.54108975l1168.94750506-26.56698868v150.54626953zM441.28027338 764.38639326h1062.67954978v-43.39274854L441.28027338 744.90393447V764.38639326z" fill="#323232" p-id="8261"></path><path d="M1187.81265746 729.84930782l-3.54226524-188.62562022-213.42147626-185.9689213c-15.05462724-12.39792833-15.94019296-35.42265176-3.54226523-49.5917121l69.9597372-80.58653292c12.39792833-15.05462724 35.42265176-15.94019296 49.5917121-3.54226463l183.31222236 159.40193202 177.99882451-71.73086923c8.8556631-3.54226523 18.59689189-3.54226523 27.45255498 0s15.05462724 10.62679571 18.5968925 19.48245819l26.56698866 65.53190567c3.54226523 8.8556631 3.54226523 18.59689189 0 27.45255498s-10.62679571 15.05462724-19.48245821 18.59689189l-175.34212617 70.8453035 3.54226524 216.07817521-141.69060644 2.65669894zM1018.66949544 326.91664501L1236.51880325 516.42783154l2.65669893 159.40193263 35.42265176-0.88556632-3.54226524-200.13798223 193.05345175-77.9298334-13.28349462-32.76595282-192.16788485 77.92983339-193.93901807-168.2575951-46.04944747 53.13397732zM883.17785317 728.96374151L751.22847552 527.05462724c-10.62679571-16.82575927-6.19896417-38.07935068 10.62679571-48.70614639l74.38756817-47.82057948c7.97009677-5.31339786 17.71132558-7.08453046 26.56698866-5.31339786 8.8556631 1.77113261 16.82575927 7.08453046 22.13915772 15.05462666l166.48646249 256.81422482-46.93501318 30.10925389-121.32258192 1.77113263z m-77.929834-216.07817519l106.26795528 162.94419785 62.87520674-0.88556633-123.97928086-191.28231912-45.16388116 29.2236876zM707.83572758 737.81940459H533.3791677l-44.27831424-99.18342481c-3.54226523-8.8556631-4.42783154-18.59689189-0.88556631-27.45255497s9.7412294-15.94019296 18.59689189-19.48245879l80.58653232-36.30821747c17.71132558-7.97009677 38.964917 0 46.93501377 17.71132557L707.83572758 737.81940459z m-139.91947443-53.13397794h58.44737521l-32.76595283-73.50200184-48.7061458 21.25359081 23.02472342 52.24841103z" fill="#323232" p-id="8262"></path></svg>