<?xml version="1.0" standalone="no"?><!DOCTYPE svg PUBLIC "-//W3C//DTD SVG 1.1//EN" "http://www.w3.org/Graphics/SVG/1.1/DTD/svg11.dtd"><svg t="1555404889871" class="icon" style="" viewBox="0 0 1024 1024" version="1.1" xmlns="http://www.w3.org/2000/svg" p-id="8798" xmlns:xlink="http://www.w3.org/1999/xlink" width="48" height="48"><defs><style type="text/css"></style></defs><path d="M682.5 245.5h189.8c13.9 0 25.4 10.7 26.3 24.5l14.2 218c4.5 68.6 4.5 137.3 0 205.9l-14.2 218c-0.9 13.8-12.4 24.5-26.3 24.5H176.7c-13.9 0-25.4-10.7-26.3-24.5l-14.2-218c-4.5-68.6-4.5-137.3 0-205.9l14.2-218c0.9-13.8 12.4-24.5 26.3-24.5h189.8" fill="#F3D1C6" p-id="8799"></path><path d="M869.6 948.3H131.4c-21 0-38.5-16.4-39.9-37.4L76.4 677.8c-4.8-73.6-4.8-148.2 0-221.7L91.6 223c1.4-21 18.9-37.4 39.9-37.4h201.4v24H131.4c-8.4 0-15.4 6.6-16 15l-15.1 233.1c-4.7 72.6-4.7 146.1 0 218.7l15.1 233.1c0.5 8.4 7.6 15 16 15h738.2c8.4 0 15.4-6.6 16-15l15.1-233.1c4.7-72.5 4.7-146.1 0-218.7l-15.1-233.1c-0.5-8.4-7.6-15-16-15H668.2v-24h201.4c21 0 38.5 16.4 39.9 37.4l15.1 233.1c4.8 73.6 4.8 148.2 0 221.7l-15.1 233.1c-1.3 21-18.9 37.4-39.9 37.4z" fill="" p-id="8800"></path><path d="M500.5 327c-3.6 0-6.9-1.6-9.2-4.4l-160-193.5c-10.9-9.3-14.8-22.8-10.3-35.6 5.2-14.8 20.6-24.9 38.4-25.3l16.4-3.3c82.7-16.7 166.6-16.7 249.3 0l17.6 3.6c15.3 0.1 32 10 37.3 25.1 4.5 12.7 0.5 26.3-10.4 35.6l-160 193.5c-2.1 2.7-5.5 4.3-9.1 4.3z m0-250.7c-40.1 0-80.1 4-119.9 12.1L363.1 92c-0.8 0.2-1.6 0.2-2.4 0.2-9.6 0-15.5 4.7-17.1 9.3-1.2 3.5 0 6.8 3.8 9.8 0.6 0.5 1.2 1.1 1.7 1.7l151.5 183.2L652 113c0.5-0.6 1.1-1.2 1.8-1.7 3.7-3 5-6.3 3.8-9.8-1.6-4.7-7.6-9.3-17.1-9.3l-20-3.8c-39.8-8.1-79.9-12.1-120-12.1z" fill="" p-id="8801"></path><path d="M669.9 430.9c-2.2 0-4.4-0.6-6.3-1.8l-163.1-100-163.1 100.1c-3.7 2.3-8.3 2.4-12.1 0.3-3.8-2.1-6.1-6.1-6.1-10.5V104.7c0-6.6 5.4-12 12-12s12 5.4 12 12v292.9l151.2-92.7c3.8-2.4 8.7-2.4 12.5 0L658 397.5V104.7c0-6.6 5.4-12 12-12s12 5.4 12 12V419c0 4.3-2.3 8.3-6.1 10.5-1.9 0.9-4 1.4-6 1.4z" fill="" p-id="8802"></path><path d="M604.2 199.7c-67.9-7.4-139.6-7.4-207.5 0l-2.6-23.8c69.6-7.6 143.1-7.6 212.7 0l-2.6 23.8z" fill="" p-id="8803"></path><path d="M618.6 510H836v217.4H618.6z" fill="#EDB5A6" p-id="8804"></path><path d="M847.9 739.4H577.7V469.1H848l-0.1 270.3z m-246.3-23.9H824V493.1H601.6v222.4z" fill="" p-id="8805"></path><path d="M712.8 615.1l-129.2-75.7 12.1-20.7 117.1 68.7 117.1-68.7 12.1 20.7zM488.5 315h24v621.4h-24zM453.9 936.4h-24v-16h24v16z m0-63.9h-24v-47.9h24v47.9z m0-95.9h-24v-47.9h24v47.9z m0-95.8h-24v-47.9h24v47.9z m0-95.9h-24V537h24v47.9z m0-95.8h-24v-47.9h24v47.9z m0-95.8h-24v-47.9h24v47.9z" fill="" p-id="8806"></path></svg>