<?xml version="1.0" standalone="no"?><!DOCTYPE svg PUBLIC "-//W3C//DTD SVG 1.1//EN" "http://www.w3.org/Graphics/SVG/1.1/DTD/svg11.dtd"><svg t="1555593759082" class="icon" style="" viewBox="0 0 1024 1024" version="1.1" xmlns="http://www.w3.org/2000/svg" p-id="44280" xmlns:xlink="http://www.w3.org/1999/xlink" width="48" height="48"><defs><style type="text/css"></style></defs><path d="M129 319.5h774c14.4 0 26 11.6 26 26v460c0 14.4-11.6 26-26 26H129c-14.4 0-26-11.6-26-26v-460c0-14.4 11.6-26 26-26z" fill="#EBF0F0" p-id="44281"></path><path d="M219 825.5h52c3.3 0 6 2.7 6 6v57c0 3.3-2.7 6-6 6h-52c-3.3 0-6-2.7-6-6v-57c0-3.3 2.7-6 6-6zM754 825.5h52c3.3 0 6 2.7 6 6v57c0 3.3-2.7 6-6 6h-52c-3.3 0-6-2.7-6-6v-57c0-3.3 2.7-6 6-6z" fill="#233E49" p-id="44282"></path><path d="M164 326.5c-33.1 0-60 26.9-60 60v376c0 33.1 26.9 60 60 60h696c33.1 0 60-26.9 60-60v-376c0-33.1-26.9-60-60-60H164z m0-40h696c55.2 0 100 44.8 100 100v376c0 55.2-44.8 100-100 100H164c-55.2 0-100-44.8-100-100v-376c0-55.2 44.8-100 100-100z" fill="#233E49" p-id="44283"></path><path d="M794 703.5h76c14.4 0 26 11.6 26 26v12c0 14.4-11.6 26-26 26h-76c-14.4 0-26-11.6-26-26v-12c0-14.4 11.6-26 26-26z" fill="#3AD0FA" p-id="44284"></path><path d="M803.5 716c-12.2 0-22 9.8-22 22s9.8 22 22 22h57c12.2 0 22-9.8 22-22s-9.8-22-22-22h-57z m0-25h57c26 0 47 21 47 47s-21 47-47 47h-57c-26 0-47-21-47-47s21-47 47-47z" fill="#233E49" p-id="44285"></path><path d="M822 750.5c-6.9 0-12.5-5.6-12.5-12.5s5.6-12.5 12.5-12.5h21.6c6.9 0 12.5 5.6 12.5 12.5s-5.6 12.5-12.5 12.5H822z" fill="#FFFFFF" p-id="44286"></path><path d="M190.6 382.5h434.8c24.6 0 44.6 21.9 44.6 49v286c0 27.1-20 49-44.6 49H190.6c-24.6 0-44.6-21.9-44.6-49v-286c0-27.1 20-49 44.6-49z" fill="#3AD0FA" p-id="44287"></path><path d="M351.8 658.2c-4.9 4.9-12.8 4.9-17.7 0-4.9-4.9-4.9-12.8 0-17.7L460 514.7c4.9-4.9 12.8-4.9 17.7 0 4.9 4.9 4.9 12.8 0 17.7L351.8 658.2z" fill="#FFFFFF" p-id="44288"></path><path d="M323.8 605.5c-4.9 4.9-12.8 4.9-17.7 0s-4.9-12.8 0-17.7l92.2-92.2c4.9-4.9 12.8-4.9 17.7 0s4.9 12.8 0 17.7l-92.2 92.2z" fill="#FFFFFF" p-id="44289"></path><path d="M433.8 653.5c-4.9 4.9-12.8 4.9-17.7 0-4.9-4.9-4.9-12.8 0-17.7l69.1-69.1c4.9-4.9 12.8-4.9 17.7 0 4.9 4.9 4.9 12.8 0 17.7l-69.1 69.1z" fill="#FFFFFF" p-id="44290"></path><path d="M190.6 422.5c-4.5 0-8.2 4-8.2 9v286c0 5 3.7 9 8.2 9h434.8c4.5 0 8.2-4 8.2-9v-286c0-5-3.7-9-8.2-9H190.6z m0-40h434.8c24.6 0 44.6 21.9 44.6 49v286c0 27.1-20 49-44.6 49H190.6c-24.6 0-44.6-21.9-44.6-49v-286c0-27.1 20-49 44.6-49z" fill="#233E49" p-id="44291"></path><path d="M871 583c0 24.8-19.7 44.5-44.5 44.5S782 607.8 782 583s19.7-44.5 44.5-44.5S871 558.2 871 583" fill="#F4CC02" p-id="44292"></path><path d="M826 639.5c-31.7 0-57-25.1-57-56.5s25.3-56.5 57-56.5 57 25.1 57 56.5-25.3 56.5-57 56.5z m0-87.9c-17.7 0-31.7 13.8-31.7 31.4s13.9 31.4 31.7 31.4 31.7-13.8 31.7-31.4-14-31.4-31.7-31.4z" fill="#233E49" p-id="44293"></path><path d="M814 583.5c0 2.8-2.2 5-5 5s-5-2.2-5-5c0-12.8 10.2-23 23-23s23 10.2 23 23c0 2.8-2.2 5-5 5s-5-2.2-5-5c0-7.3-5.7-13-13-13s-13 5.7-13 13zM871 420c0 24.8-19.7 44.5-44.5 44.5S782 444.8 782 420s19.7-44.5 44.5-44.5S871 395.2 871 420" fill="#FFFFFF" p-id="44294"></path><path d="M826 476.5c-31.7 0-57-25.1-57-56.5s25.3-56.5 57-56.5 57 25.1 57 56.5-25.3 56.5-57 56.5z m0-87.9c-17.7 0-31.7 13.8-31.7 31.4s13.9 31.4 31.7 31.4 31.7-13.8 31.7-31.4-14-31.4-31.7-31.4z" fill="#233E49" p-id="44295"></path><path d="M814 420.5c0 2.8-2.2 5-5 5s-5-2.2-5-5c0-12.8 10.2-23 23-23s23 10.2 23 23c0 2.8-2.2 5-5 5s-5-2.2-5-5c0-7.3-5.7-13-13-13s-13 5.7-13 13z" fill="#3AD0FA" p-id="44296"></path><path d="M701 328c0-9.7 7.8-17.5 17.5-17.5S736 318.3 736 328v262.8c0 9.7-7.8 17.5-17.5 17.5s-17.5-7.8-17.5-17.5V328z m0 369.5c0-9.7 7.8-17.5 17.5-17.5s17.5 7.8 17.5 17.5V831c0 9.7-7.8 17.5-17.5 17.5S701 840.7 701 831V697.5z" fill="#233E49" p-id="44297"></path><path d="M720.5 641m-22.5 0a22.5 22.5 0 1 0 45 0 22.5 22.5 0 1 0-45 0Z" fill="#233E49" p-id="44298"></path></svg>