<?xml version="1.0" standalone="no"?><!DOCTYPE svg PUBLIC "-//W3C//DTD SVG 1.1//EN" "http://www.w3.org/Graphics/SVG/1.1/DTD/svg11.dtd"><svg t="1555590431372" class="icon" style="" viewBox="0 0 1024 1024" version="1.1" xmlns="http://www.w3.org/2000/svg" p-id="17580" xmlns:xlink="http://www.w3.org/1999/xlink" width="48" height="48"><defs><style type="text/css"></style></defs><path d="M899.124 425.283c-66.529 0-120.459 26.864-120.459 59.999 0 33.138 53.931 60 120.459 60 66.53 0 120.461-26.862 120.461-60 0-33.136-53.932-59.999-120.461-59.999zM882.322 531.255c-47.264 0-85.582-20.996-85.582-46.896s38.315-46.896 85.582-46.896c47.268 0 85.584 20.996 85.584 46.896s-38.316 46.896-85.584 46.896zM122.127 425.283c-66.527 0-120.458 26.864-120.458 59.999 0 33.138 53.932 60 120.458 60 66.53 0 120.46-26.862 120.46-60 0-33.136-53.931-59.999-120.46-59.999zM105.323 531.255c-47.267 0-85.582-20.996-85.582-46.896s38.314-46.896 85.582-46.896 85.583 20.996 85.583 46.896-38.315 46.896-85.583 46.896zM648.551 425.283c-21.524 0-41.722 2.817-59.206 7.743v10.602c12.498-3.918 26.97-6.159 42.403-6.159 47.267 0 85.583 20.996 85.583 46.896s-38.315 46.895-85.584 46.895c-33.093 0-61.781-10.301-76.019-25.362v-35.139h-0.036v-46.918h-43.475v169.71h43.513v-70.023c22.096 13.29 55.473 21.758 92.825 21.758 66.53 0 120.46-26.862 120.46-60 0-33.137-53.931-60-120.46-60zM384.058 425.283c-21.523 0-41.721 2.817-59.205 7.743v10.602c12.497-3.918 26.97-6.159 42.4-6.159 47.268 0 85.584 20.996 85.584 46.896s-38.315 46.895-85.584 46.895c-33.094 0-61.78-10.301-76.020-25.362v-35.139h-0.034v-46.918h-43.478v169.71h43.513v-70.023c22.096 13.29 55.474 21.758 92.823 21.758 66.531 0 120.461-26.862 120.461-60 0-33.137-53.931-60-120.459-60z" p-id="17581"></path></svg>