<?xml version="1.0" standalone="no"?><!DOCTYPE svg PUBLIC "-//W3C//DTD SVG 1.1//EN" "http://www.w3.org/Graphics/SVG/1.1/DTD/svg11.dtd"><svg t="1555592702064" class="icon" style="" viewBox="0 0 1024 1024" version="1.1" xmlns="http://www.w3.org/2000/svg" p-id="23907" xmlns:xlink="http://www.w3.org/1999/xlink" width="48" height="48"><defs><style type="text/css"></style></defs><path d="M298.1 949.8c-22.1 0-40-17.9-40-40V114.2c0-22.1 17.9-40 40-40H726c22.1 0 40 17.9 40 40v795.6c0 22.1-17.9 40-40 40H298.1z" fill="#7ECAFF" p-id="23908"></path><path d="M439.4 107h116.9c8.3 0 15 6.7 15 15s-6.7 15-15 15H439.4c-8.3 0-15-6.7-15-15s6.8-15 15-15zM608.4 107c8.3 0 15 6.7 15 15s-6.7 15-15 15-15-6.7-15-15 6.8-15 15-15z" fill="#0E193D" p-id="23909"></path><path d="M415.1 78.1L258.7 916.7V114.4c0-20 16.2-36.3 36.3-36.3h120.1z" fill="#A9E0FF" p-id="23910"></path><path d="M725.9 84.2c16.5 0 30 13.5 30 30v795.6c0 16.5-13.5 30-30 30H298.1c-16.5 0-30-13.5-30-30V114.2c0-16.5 13.5-30 30-30h427.8m0-20H298.1c-27.6 0-50 22.4-50 50v795.6c0 27.6 22.4 50 50 50H726c27.6 0 50-22.4 50-50V114.2c-0.1-27.6-22.4-50-50.1-50z" fill="#0E193D" p-id="23911"></path></svg>