<?xml version="1.0" standalone="no"?><!DOCTYPE svg PUBLIC "-//W3C//DTD SVG 1.1//EN" "http://www.w3.org/Graphics/SVG/1.1/DTD/svg11.dtd"><svg t="1555594115843" class="icon" style="" viewBox="0 0 1024 1024" version="1.1" xmlns="http://www.w3.org/2000/svg" p-id="45993" xmlns:xlink="http://www.w3.org/1999/xlink" width="48" height="48"><defs><style type="text/css"></style></defs><path d="M244.363636 372.829091H456.145455v46.545454H244.363636z" fill="#1B37A8" p-id="45994"></path><path d="M750.778182 294.632727h-46.545455V139.636364H320.232727v154.996363h-46.545454V116.829091a23.272727 23.272727 0 0 1 23.272727-23.272727h430.545455a23.272727 23.272727 0 0 1 23.272727 23.272727z" fill="#FFB718" p-id="45995"></path><path d="M884.363636 737.745455h-81.92v-46.545455h56.785455V396.101818a78.196364 78.196364 0 0 0-78.196364-78.196363H242.967273a78.196364 78.196364 0 0 0-78.196364 78.196363v294.632727h53.527273v46.545455H139.636364a23.272727 23.272727 0 0 1-23.272728-23.272727V396.101818a124.741818 124.741818 0 0 1 126.603637-124.741818h538.065454a124.741818 124.741818 0 0 1 124.741818 124.741818v317.905455a23.272727 23.272727 0 0 1-21.410909 23.738182z" fill="#1B37A8" p-id="45996"></path><path d="M727.505455 930.909091H296.96a23.272727 23.272727 0 0 1-23.272727-23.272727v-369.570909a23.272727 23.272727 0 0 1 23.272727-23.272728l430.08-2.792727a23.272727 23.272727 0 0 1 23.272727 23.272727v372.363637a23.272727 23.272727 0 0 1-22.807272 23.272727z m-407.272728-46.545455h384v-325.818181l-384 2.792727z" fill="#FFB718" p-id="45997"></path></svg>