<?xml version="1.0" standalone="no"?><!DOCTYPE svg PUBLIC "-//W3C//DTD SVG 1.1//EN" "http://www.w3.org/Graphics/SVG/1.1/DTD/svg11.dtd"><svg t="1555593716091" class="icon" style="" viewBox="0 0 1024 1024" version="1.1" xmlns="http://www.w3.org/2000/svg" p-id="42692" xmlns:xlink="http://www.w3.org/1999/xlink" width="48" height="48"><defs><style type="text/css"></style></defs><path d="M256 554.666667h554.666667v384H256z" fill="#7FC8EB" p-id="42693"></path><path d="M298.666667 298.666667v-85.333334c0-23.466667 19.2-42.666667 42.666666-42.666666s42.666667 19.2 42.666667 42.666666v85.333334c0 23.466667-19.2 42.666667-42.666667 42.666666s-42.666667-19.2-42.666666-42.666666zM298.666667 725.333333v-85.333333c0-23.466667 19.2-42.666667 42.666666-42.666667s42.666667 19.2 42.666667 42.666667v85.333333c0 23.466667-19.2 42.666667-42.666667 42.666667s-42.666667-19.2-42.666666-42.666667z" fill="#F7F11C" p-id="42694"></path><path d="M810.666667 0H213.333333C166.4 0 128 38.4 128 85.333333v213.333334c0 23.466667 19.2 42.666667 42.666667 42.666666s42.666667-19.2 42.666666-42.666666V85.333333h597.333334v341.333334H213.333333c-21.333333 0-42.666667 8.533333-59.733333 25.6C136.533333 469.333333 128 490.666667 128 512v426.666667c0 46.933333 38.4 85.333333 85.333333 85.333333h597.333334c46.933333 0 85.333333-38.4 85.333333-85.333333V85.333333c0-46.933333-38.4-85.333333-85.333333-85.333333z m0 938.666667H213.333333V512h597.333334v426.666667z" fill="#0092D8" p-id="42695"></path></svg>