<?xml version="1.0" standalone="no"?><!DOCTYPE svg PUBLIC "-//W3C//DTD SVG 1.1//EN" "http://www.w3.org/Graphics/SVG/1.1/DTD/svg11.dtd"><svg t="1555593405486" class="icon" style="" viewBox="0 0 1024 1024" version="1.1" xmlns="http://www.w3.org/2000/svg" p-id="37674" xmlns:xlink="http://www.w3.org/1999/xlink" width="48" height="48"><defs><style type="text/css"></style></defs><path d="M733.279399 1023.933991H300.799767a25.509592 25.509592 0 0 1 0-50.887692h432.611125a25.509592 25.509592 0 1 1 0 50.887692" fill="#2169F9" p-id="37675"></path><path d="M156.946706 917.687854V78.895646a78.895646 78.895646 0 0 1 78.895646-78.895646h552.269521a78.895646 78.895646 0 0 1 78.895646 78.895646v851.941483a65.746372 65.746372 0 0 1-65.746372 65.746371H235.842352a78.895646 78.895646 0 0 1-78.895646-78.895646" fill="#00DDF4" p-id="37676"></path><path d="M506.454417 396.582113a165.417871 165.417871 0 1 1 165.417871-165.417871 165.417871 165.417871 0 0 1-165.417871 165.417871" fill="#2169F9" p-id="37677"></path><path d="M510.662185 273.636398a38.132896 38.132896 0 1 1 38.132896-38.132895 38.132896 38.132896 0 0 1-38.132896 38.132895" fill="#FFE164" p-id="37678"></path><path d="M517.499808 905.064551a229.060359 229.060359 0 1 1 228.928865-228.928866 229.060359 229.060359 0 0 1-228.928865 228.928866" fill="#2169F9" p-id="37679"></path><path d="M510.267707 719.791276a50.887692 50.887692 0 1 1 50.887691-50.887692 50.887692 50.887692 0 0 1-50.887691 50.887692" fill="#FFE164" p-id="37680"></path></svg>