<?xml version="1.0" standalone="no"?><!DOCTYPE svg PUBLIC "-//W3C//DTD SVG 1.1//EN" "http://www.w3.org/Graphics/SVG/1.1/DTD/svg11.dtd"><svg t="1557235713334" class="icon" style="" viewBox="0 0 1024 1024" version="1.1" xmlns="http://www.w3.org/2000/svg" p-id="3376" xmlns:xlink="http://www.w3.org/1999/xlink" width="32" height="32"><defs><style type="text/css"></style></defs><path d="M951.021501 158.930405l-112.897575 112.897575L756.252605 189.95666l112.897575-112.897575L824.383727 32.292632l-112.897575 112.897575-83.327654-83.327655-44.766453 44.766453L666.68804 189.95666l-113.530764 113.530764-80.320007-80.320008-44.766453 44.766453L508.422483 348.253877l-120.02095 120.020949 44.766453 44.766453 120.02095-120.02095L635.060256 474.89165l-120.020949 120.02095 44.766452 44.766452 120.02095-120.020949 80.320008 80.320007 44.766453-44.766452L724.593162 474.89165l113.530764-113.530764 83.327655 83.327655 44.766452-44.766453L882.890379 316.594433l112.897574-112.897575L951.021501 158.930405z m-271.194792 271.194792L597.955389 348.253877l113.530763-113.530764L793.325813 316.594433l-113.499104 113.530764z" fill="#66CCFF" p-id="3377"></path><path d="M34.005725 998.032291A94.028547 94.028547 0 0 0 100.015664 1023.961375a95.421562 95.421562 0 0 0 67.149679-28.271882l152.851793-153.105068v-0.126638a94.97833 94.97833 0 0 0 27.82865-67.212998 94.725054 94.725054 0 0 0-9.212898-40.049196c52.554676-47.457506 133.919445-86.936831 198.156456-87.443383l106.470708-1.994544a343.916533 343.916533 0 0 0 115.683606-23.111394c51.098342-19.470558 100.328776-50.940044 143.132343-93.711952 76.23594-76.362577 116.760027-173.082177 116.886665-264.577968 0.094978-68.2261-23.174713-134.267699-72.120212-183.14988C897.991933 32.292632 831.918675 8.991282 763.692574 9.11792c-91.527451 0.094978-188.215391 40.619066-264.577967 116.886664-42.771908 42.803567-74.241395 92.034002-93.711953 143.132344a343.916533 343.916533 0 0 0-23.111393 115.683606v0.031659l-1.994545 106.470708c-0.506551 64.237011-39.985877 145.57012-87.443383 198.156456a94.471779 94.471779 0 0 0-39.985877-9.212898 94.756714 94.756714 0 0 0-67.149679 27.82865L32.865985 860.946902l22.383226 22.383226 22.383227 22.383227 152.851792-152.851793a31.437827 31.437827 0 0 1 22.383226-9.276217 31.437827 31.437827 0 0 1 22.383227 9.276217 31.437827 31.437827 0 0 1 9.276217 22.383227 31.437827 31.437827 0 0 1-9.276217 22.383226l-152.851793 152.851793a31.532806 31.532806 0 0 1-22.383226 9.244557c-7.37665-0.031659-14.468366 0.316594-20.388681-4.115728-0.759827-1.013102-1.13974-2.406118-1.994545-3.292582A33.55901 33.55901 0 0 1 68.356221 928.983046c0.031659-8.199796 3.039307-16.589548 9.276217-22.858119v-0.221616l-22.383227-22.509864-22.383226-22.446545A94.756714 94.756714 0 0 0 5.037334 928.096581c-0.031659 24.187815 9.339536 52.428038 27.828651 70.885494l1.13974-0.949784z m411.604422-612.008699a281.135857 281.135857 0 0 1 18.964007-94.3768c16.177976-42.518632 42.740248-84.340757 79.338565-120.907414 65.186794-65.313432 147.248071-98.429209 219.811515-98.334231 54.327605 0.094978 102.639915 17.919245 138.383427 53.567778 35.648533 35.711852 53.44114 84.024163 53.567778 138.351767 0.094978 72.595104-33.052459 154.624721-98.334231 219.811515-36.566657 36.566657-78.388782 63.12893-120.907414 79.338565a280.9459 280.9459 0 0 1-94.345141 18.964007l-4.59062 0.031659c-54.359264-0.094978-102.671575-17.919245-138.383426-53.567778-35.648533-35.711852-53.4728-84.024163-53.567779-138.383427l0.063319-4.495641z m-10.289319 165.958802c5.888656 7.534948 12.157226 14.848279 19.058985 21.750038 6.901759 6.901759 14.21509 13.170328 21.750038 19.058985-20.673616 4.812235-40.998979 11.619016-60.84945 20.072087a374.21462 374.21462 0 0 0 20.040427-60.88111zM23.589768 980.334663v-3.767474c0 1.393016 0.633189 2.469437 0.823145 3.767474H23.589768zM142.470978 253.275547c63.318887-0.063319 126.131222-56.733722 126.194541-126.637774A126.954368 126.954368 0 0 0 141.806129 0 126.447817 126.447817 0 0 0 15.51661 126.637773c0.031659 69.904051 63.635481 126.574454 126.954368 126.637774zM141.806129 63.318887c34.825388 0.063319 63.603822 28.493499 63.667141 63.318886-0.063319 34.825388-31.342849 63.255568-63.002292 63.318887-31.659443-0.063319-63.6988-28.493499-63.762119-63.318887A63.382206 63.382206 0 0 1 141.806129 63.318887z" fill="#4E5F80" p-id="3378"></path></svg>