<?xml version="1.0" standalone="no"?><!DOCTYPE svg PUBLIC "-//W3C//DTD SVG 1.1//EN" "http://www.w3.org/Graphics/SVG/1.1/DTD/svg11.dtd"><svg t="1554970212505" class="icon" style="" viewBox="0 0 1024 1024" version="1.1" xmlns="http://www.w3.org/2000/svg" p-id="11164" xmlns:xlink="http://www.w3.org/1999/xlink" width="48" height="48"><defs><style type="text/css"></style></defs><path d="M1007.222033 124.423757l-73.357857-35.98193-35.377931-72.757858c-5.397989-10.19198-16.191968-14.991971-26.983947-14.99197-10.791979 0-21.587958 4.799991-26.385949 14.99197L809.13842 88.441827l-70.759862 35.98193c-10.19598 4.795991-16.791967 14.991971-16.791967 26.383948s6.595987 22.187957 16.791967 26.981948l70.759862 35.381931 35.977929 71.35986c4.799991 10.19198 14.991971 16.191968 26.385949 16.191969 11.393978 0 22.187957-5.997988 26.983947-16.191969l35.377931-71.35986 73.357857-35.381931c10.19598-4.795991 16.191968-15.58797 16.191968-26.981948s-5.993988-21.589958-16.191968-26.383948zM285.635442 124.423757l-71.359861-35.98193L178.897651 15.683969C173.501661 5.489989 162.707682 0.691999 151.913703 0.691999s-21.587958 4.799991-26.383948 14.99197l-35.97993 72.757858L16.791967 124.423757C6.595987 129.217748 0 139.415728 0 150.807705s6.595987 22.187957 16.791967 26.981948l72.757858 35.381931 35.97793 71.35986c4.799991 10.19198 14.991971 16.191968 26.383948 16.191969s22.187957-5.997988 26.983948-16.191969l35.37793-71.35986 71.359861-35.381931c10.19598-4.795991 16.191968-15.58797 16.191968-26.981948s-5.991988-21.589958-16.189968-26.383948z" fill="#FEDB41" p-id="11165"></path><path d="M1022.536003 407.957203a29.987941 29.987941 0 0 0-24.213953-20.40796l-318.047379-45.93991L538.936947 55.219892a29.929942 29.929942 0 0 0-26.877947-16.717967c-0.128 0-0.224 0.098-0.351999 0.098l-29.981942 45.87991v406.627206l29.981942 34.485932 63.517876 15.299971 393.723231-91.025823 53.587895-41.909918z" fill="#FCBF29" p-id="11166"></path><path d="M784.246468 661.610708c150.031707-146.245714 112.53178-107.74379 230.70555-222.937565a29.985941 29.985941 0 0 0 7.583985-30.71394l-510.829002 117.63577 2.379995 49.389904 249.767512 393.103232 62.465878 49.573903a29.967941 29.967941 0 0 0 11.917977-29.309942l-53.991895-326.741362z" fill="#FE9923" p-id="11167"></path><path d="M826.526386 1017.864012c-9.591981 6.597987-21.587958 7.195986-31.783938 1.801996L512.306999 861.598317h-0.599998l-282.439449 158.067691c-10.19198 5.393989-22.187957 4.797991-31.179939-1.801996l6.595987-40.77592 259.653493-424.513171 47.369908-26.979948 314.819385 492.269039z" fill="#FEDB41" p-id="11168"></path><path d="M1.551997 407.957203a29.983941 29.983941 0 0 0 7.583985 30.71394c118.151769 115.175775 80.751842 76.76785 230.70555 222.937565L185.877637 988.35207a29.963941 29.963941 0 0 0 11.917977 29.309942l313.911387-492.067039-45.935911-40.61592-390.357237-94.533816-73.861856 17.511966z" fill="#FEA832" p-id="11169"></path><path d="M511.707001 38.597925c-11.265978 0.146-21.545958 6.485987-26.525949 16.619967l-141.365724 286.387441-318.047378 45.94391A29.989941 29.989941 0 0 0 1.553997 407.957203l510.155004 117.63577V38.597925z" fill="#FEDB41" p-id="11170"></path><path d="M826.526386 1017.864012c-9.591981 6.597987-21.587958 7.195986-31.783938 1.801996L512.306999 861.598317h-0.599998V525.594973l314.819385 492.269039z" fill="#FCBF29" p-id="11171"></path></svg>