<?xml version="1.0" standalone="no"?><!DOCTYPE svg PUBLIC "-//W3C//DTD SVG 1.1//EN" "http://www.w3.org/Graphics/SVG/1.1/DTD/svg11.dtd"><svg t="1555405125265" class="icon" style="" viewBox="0 0 1024 1024" version="1.1" xmlns="http://www.w3.org/2000/svg" p-id="13730" xmlns:xlink="http://www.w3.org/1999/xlink" width="48" height="48"><defs><style type="text/css"></style></defs><path d="M740.5 178.3c0 44.7-172 166.8-228.5 166.8-62.5 0-228.5-122.2-228.5-166.8S385.8 77.4 512 77.4s228.5 56.2 228.5 100.9z" fill="#E8E9EA" p-id="13731"></path><path d="M512 361.7c-38.4 0-101.4-36.1-147.5-69.9-26.4-19.3-49.3-39.1-66.2-57.3-21.1-22.6-31.4-41-31.4-56.2 0-29.2 27.8-59.1 76.4-82.2C391.2 73.3 451.1 60.8 512 60.8s120.8 12.5 168.7 35.3c48.5 23.1 76.4 53 76.4 82.2 0 15.2-10.6 33.7-32.4 56.4-17.2 18-40.6 37.8-67.6 57.2-46.7 33.7-109.4 69.8-145.1 69.8zM512 94c-55.2 0-111.5 11.7-154.4 32.1-39.7 18.8-57.5 39.8-57.5 52.2 0 0.4 0.3 9.8 22.5 33.6 15.3 16.5 37.2 35.3 61.6 53.2 51 37.4 103.6 63.5 127.9 63.5 21.8 0 74.7-26.7 125.7-63.5 25-18 47.4-37 63-53.3 22.9-23.9 23.1-33.3 23.1-33.4 0-12.4-17.8-33.4-57.5-52.2C623.5 105.8 567.2 94 512 94z" fill="#2F3849" p-id="13732"></path><path d="M512.3 948.2h-0.2 187.3c12.5 0 35.4 0 48.8-13.1 13.2-12.9 17.5-27.7 18.4-49.7 2.5-57.6-18.2-44.2-22.1-92.9-1.4-17.5 17.6-38.5 13.2-83.2-4.1-41.8-26.4-53.7-28.7-77.4-6.4-64.8-10.6-125.4-10.6-125.4s3.1 52.7 11 69c4.4 9 21.7 31 34.5 46.6 0.1 0.1 0.2 0.2 0.3 0.4 13.3 16.3 23.3 35.1 29.9 55.1l0.1 0.3c7.9 24.1 19.8 46.6 35.4 66.6 16.1 20.6 36.1 36.7 44.3 61.4 11.7 35.3 23 46.8 32.1 48.6 16 3.1 88.9-38.3 88.9-55 0-13.7-13.6-19.3-18.5-38.3-9.6-37.4 12.8-24.4-12.1-100.5-18.5-56.3-41.7-63.7-47.6-78.2-7.8-19.4 6.8-40.6-32.5-112.7-34.2-62.6-53.5-56.8-63.6-76.7-10.6-20.9-28.2-54-34.2-61.1-23.4-27.6-120.1-86-120.1-86s-73.4 87-154 87h-0.2c-80.6 0-154-87-154-87s-96.7 58.3-120.1 86c-6 7.1-23.6 40.2-34.2 61.1-10.1 19.9-29.4 14.2-63.6 76.7-39.4 72.1-24.7 93.3-32.5 112.7-5.9 14.5-29.1 21.9-47.6 78.2-24.9 76.1-2.6 63.2-12.1 100.5-4.9 18.9-18.5 24.5-18.5 38.3 0 16.7 72.9 58.1 88.9 55 9-1.7 20.4-13.3 32.1-48.6 8.1-24.7 28.2-40.8 44.3-61.4 15.6-20 27.6-42.5 35.4-66.6l0.1-0.3c6.5-20 16.5-38.8 29.9-55.1 0.1-0.1 0.2-0.2 0.3-0.4 12.8-15.6 30.1-37.5 34.5-46.6 7.8-16.3 11-69 11-69s-4.2 60.5-10.6 125.4c-2.3 23.7-24.6 35.6-28.7 77.4-4.4 44.7 14.6 65.7 13.2 83.2-4 48.7-24.6 35.3-22.1 92.9 0.9 22.1 5.2 36.8 18.4 49.7 13.4 13.1 36.3 13.1 48.8 13.1h187.3-0.2" fill="#FD6A88" p-id="13733"></path><path d="M512.3 948.2h-0.2 187.3c12.5 0 35.4 0 48.8-13.1 13.2-12.9 17.5-27.7 18.4-49.7 2.5-57.6-18.2-44.2-22.1-92.9-1.4-17.5 17.6-38.5 13.2-83.2-4.1-41.8-26.4-53.7-28.7-77.4-6.4-64.8-10.6-125.4-10.6-125.4s3.1 52.7 11 69c4.4 9 21.7 31 34.5 46.6 0.1 0.1 0.2 0.2 0.3 0.4 13.3 16.3 23.3 35.1 29.9 55.1l0.1 0.3c7.9 24.1 19.8 46.6 35.4 66.6 16.1 20.6 36.1 36.7 44.3 61.4 11.7 35.3 23 46.8 32.1 48.6 16 3.1 88.9-38.3 88.9-55 0-13.7-13.6-19.3-18.5-38.3-9.6-37.4 12.8-24.4-12.1-100.5-18.5-56.3-41.7-63.7-47.6-78.2-7.8-19.4 6.8-40.6-32.5-112.7-34.2-62.6-53.5-56.8-63.6-76.7-10.6-20.9-28.2-54-34.2-61.1-23.4-27.6-120.1-86-120.1-86s-73.4 87-154 87h-0.2c-80.6 0-154-87-154-87s-96.7 58.3-120.1 86c-6 7.1-23.6 40.2-34.2 61.1-10.1 19.9-29.4 14.2-63.6 76.7-39.4 72.1-24.7 93.3-32.5 112.7-5.9 14.5-29.1 21.9-47.6 78.2-24.9 76.1-2.6 63.2-12.1 100.5-4.9 18.9-18.5 24.5-18.5 38.3 0 16.7 72.9 58.1 88.9 55 9-1.7 20.4-13.3 32.1-48.6 8.1-24.7 28.2-40.8 44.3-61.4 15.6-20 27.6-42.5 35.4-66.6l0.1-0.3c6.5-20 16.5-38.8 29.9-55.1 0.1-0.1 0.2-0.2 0.3-0.4 12.8-15.6 30.1-37.5 34.5-46.6 7.8-16.3 11-69 11-69s-4.2 60.5-10.6 125.4c-2.3 23.7-24.6 35.6-28.7 77.4-4.4 44.7 14.6 65.7 13.2 83.2-4 48.7-24.6 35.3-22.1 92.9 0.9 22.1 5.2 36.8 18.4 49.7 13.4 13.1 36.3 13.1 48.8 13.1h187.3-0.2" fill="#FD6A88" p-id="13734"></path><path d="M232.6 656.7c-2.2 0-4.5-0.5-6.6-1.5l-113.5-55.7c-7.4-3.7-10.5-12.6-6.8-20.1 3.7-7.4 12.6-10.5 20.1-6.8l113.4 55.7c7.4 3.7 10.5 12.6 6.8 20.1-2.6 5.3-7.9 8.3-13.4 8.3zM793.1 656.7c-5.5 0-10.9-3.1-13.5-8.4-3.7-7.4-0.6-16.4 6.8-20.1l113.4-55.7c7.4-3.7 16.4-0.6 20.1 6.8 3.7 7.4 0.6 16.4-6.8 20.1L799.7 655c-2.1 1.3-4.3 1.7-6.6 1.7zM299.6 299.2s-36.9 27.3-42.2 33.8l254.7 116.7-212.5-150.5zM724.9 299.2s36.9 27.3 42.2 33.8L512.4 449.7l212.5-150.5z" fill="#EF597D" p-id="13735"></path><path d="M337.7 277.8s127.1 153 174.2 153C559 430.8 693 274.4 693 274.4l-183 57-172.3-53.6z" fill="#FFFFFF" p-id="13736"></path><path d="M699.4 963.2H324.6c-14.5 0-41.6 0-59.3-17.4-18.6-18.3-22-39.5-22.9-59.8-1.4-33.3 4.1-46.2 12.1-60.7 4.6-8.3 8.5-15.4 10-34.1 0.3-3.6-1.7-9.6-4.1-16.6-5.1-15.2-12.1-35.9-9.1-66.8 2.7-27.1 12.1-43.2 19.7-56.2 4.9-8.3 8.4-14.3 9.1-21.2 0.3-3.5 0.7-6.9 1-10.4-2.8 3.5-5.9 7.4-9.4 11.6l-0.3 0.3c-12 14.7-21.1 31.7-27.2 50.3l-0.1 0.3c-8.4 25.8-21.2 49.8-37.9 71.2-5 6.3-10.2 12.2-15.2 17.8-11.2 12.6-21.8 24.5-26.6 39.1-12.1 36.6-25.9 55.2-43.5 58.6-3.7 0.7-13.5 2.6-43.1-12.2-16.4-8.2-32.9-18.6-44.3-28-13.4-11.1-19.4-20.2-19.4-29.6 0-12 5.9-20 10.7-26.5 3.6-4.9 6.7-9.1 8.3-15.5 3-11.6 2.2-16.1 1-23-2.8-16.3-3.7-32.5 11.4-78.5 13.5-41.4 29.8-58.7 40.6-70.1 3.5-3.7 6.5-6.9 7.4-9 1.4-3.6 1.7-8.3 2-14.8 0.9-18.5 2.3-46.4 31.3-99.5 23.2-42.4 40.8-56.1 52.5-65.2 6.2-4.9 8.8-7 11-11.1 6.4-12.5 27.8-54.1 36.1-64 24.3-28.7 113.6-83 123.8-89.1 6.3-3.8 14.5-2.5 19.2 3.2 0.7 0.8 69.9 81.6 142.5 81.6h0.2c72.8 0 141.8-80.8 142.5-81.6 4.8-5.6 12.9-7 19.2-3.2 10.1 6.1 99.5 60.4 123.8 89.1 8.3 9.8 29.8 51.5 36.1 64 2.1 4.1 4.7 6.3 11 11.1 11.7 9.1 29.3 22.8 52.5 65.2 29 53.1 30.4 81 31.3 99.5 0.3 6.5 0.6 11.2 2 14.8 0.8 2.1 3.9 5.3 7.4 9 10.8 11.5 27 28.8 40.6 70.1 15.1 46 14.2 62.2 11.4 78.5-1.2 6.9-1.9 11.4 1 23 1.6 6.4 4.7 10.6 8.3 15.5 4.7 6.5 10.7 14.5 10.7 26.5 0 9.4-6 18.5-19.4 29.6-11.3 9.4-27.9 19.8-44.3 28-29.6 14.8-39.4 12.9-43.1 12.2-17.6-3.4-31.4-22-43.5-58.6-4.8-14.6-15.4-26.5-26.6-39.1-5-5.6-10.2-11.5-15.2-17.8-16.7-21.4-29.4-45.4-37.9-71.2l-0.1-0.3c-6.1-18.7-15.2-35.6-27.2-50.3l-0.3-0.4c-3.4-4.2-6.5-8-9.3-11.5 0.3 3.4 0.7 6.9 1 10.4 0.7 6.9 4.2 12.9 9.1 21.2 7.6 13 17 29.1 19.7 56.2 3 30.9-4 51.6-9.1 66.8-2.4 7-4.4 13-4.1 16.6 1.5 18.7 5.5 25.8 10 34.1 8 14.5 13.6 27.3 12.1 60.7-0.9 20.2-4.2 41.5-22.9 59.8-17.8 17.4-44.9 17.4-59.4 17.4zM319.8 518.8c-1.5 20.6-5.1 66.6-9.8 114.5-1.3 13.5-7.3 23.6-13 33.4-6.7 11.5-13.7 23.4-15.7 44-2.4 24.5 2.9 40.3 7.7 54.3 3.3 9.7 6.4 18.9 5.6 28.7-2.1 25.1-8.5 36.8-13.7 46.2-5.4 9.7-9.6 17.4-8.4 44.9 0.9 20 4.5 30.4 13.9 39.6 9 8.8 28 8.8 38.3 8.8h374.8c10.2 0 29.3 0 38.3-8.8 9.4-9.3 13.1-19.6 13.9-39.6 1.2-27.5-3.1-35.2-8.4-44.9-5.2-9.4-11.6-21.1-13.7-46.2-0.8-9.8 2.3-18.9 5.6-28.7 4.7-14 10-29.8 7.7-54.3-2-20.6-9-32.5-15.7-44-5.7-9.8-11.7-20-13-33.4-4.7-47.8-8.3-93.8-9.8-114.4-0.4-5.3-0.7-9.4-0.8-11.5-0.5-8.2 5.8-15.3 14-15.9 8.2-0.5 15.4 5.7 15.9 13.9 0 0.1 0.3 3.8 0.7 10.2 1.7 20.1 5 45.4 8.8 53.3 1 2.2 6.5 11.7 32.6 43.6l0.3 0.4c14.3 17.6 25.2 37.7 32.5 60l0.1 0.3c7.3 22.5 18.4 43.4 33 62 4.3 5.6 9.2 11 13.9 16.3 12.8 14.3 26 29.1 32.7 49.6 10.3 31.1 18.7 37.4 20.4 38.4 4.9-0.5 19.6-6 38.4-17 19.7-11.5 29.8-20.8 32.7-24.6-0.5-1.6-2-3.6-4.6-7.2-4.3-5.8-10.1-13.8-13.2-25.8-4.6-17.8-3-27.2-1.6-35.5 1.7-10.1 3.7-21.5-10.3-64.1-11.5-35-24.5-48.8-33.9-58.9-5.3-5.7-10.4-11.1-13.3-18.3-3.3-8.3-3.7-16.1-4.1-24.5-0.8-16.7-1.9-39.5-27.7-86.6-20.2-37-34.3-48-44.6-56-6.9-5.4-14-10.9-19.3-21.2-14.3-28.2-28.5-53.7-32.3-58.2-15.8-18.7-74.5-56.9-105.9-76.4-22.7 23.7-86 82.7-156.7 82.7h-0.2c-70.7 0-134.1-59-156.7-82.7-31.4 19.5-90 57.7-105.9 76.4-3.8 4.5-18 30-32.3 58.2-5.2 10.3-12.4 15.8-19.3 21.2-10.3 8-24.4 19-44.6 55.9-25.7 47.1-26.8 69.9-27.7 86.6-0.4 8.3-0.8 16.2-4.1 24.5-2.9 7.3-8 12.7-13.3 18.3-9.5 10.1-22.5 23.9-33.9 58.9-14 42.7-12 54.1-10.3 64.1 1.4 8.3 3 17.7-1.6 35.5-3.1 12-8.9 20-13.2 25.8-2.6 3.6-4 5.6-4.6 7.2 2.9 3.9 13 13.1 32.7 24.6 18.8 11 33.6 16.5 38.4 17 1.6-1 10.1-7.1 20.4-38.4 6.8-20.5 20-35.3 32.7-49.6 4.7-5.3 9.6-10.7 13.9-16.3 14.6-18.6 25.7-39.5 33-62l0.1-0.3c7.2-22.2 18.2-42.4 32.5-59.9l0.3-0.4c26.1-31.9 31.5-41.4 32.6-43.6 3.8-8 7.1-33.1 8.8-53.2 0.5-6.5 0.7-10.2 0.7-10.4 0.6-8.2 7.6-14.5 15.9-13.9 8.2 0.5 14.5 7.6 14 15.9 0.1 2-0.2 6.2-0.6 11.5z m660.4 278z" fill="#2F3849" p-id="13737"></path><path d="M511.8 284c-74.4 0-158-21.9-161.6-22.8l7.7-29c0.8 0.2 83.5 21.8 153.9 21.8 65.5 0 153.6-21.7 154.5-21.9l7.2 29.1c-3.7 0.9-92.6 22.8-161.7 22.8z" fill="#2F3849" p-id="13738"></path><path d="M511.8 430.8s123.3-76 207.2-143c57.5-45.9-19.3-110-19.3-110" fill="#5899FE" p-id="13739"></path><path d="M511.8 445.8c-5 0-10-2.5-12.8-7.1-4.3-7.1-2.2-16.3 4.9-20.6 1.2-0.8 123.5-76.3 205.7-142 10.5-8.4 15.6-17.5 15.7-27.8 0.3-24-25.4-50.7-35.3-59-6.4-5.3-7.2-14.8-1.9-21.1 5.3-6.4 14.8-7.2 21.1-1.9 1.9 1.6 46.5 39.3 46.1 82.3-0.2 19.4-9.5 37-27 50.9-83.6 66.9-207.4 143.3-208.6 144.1-2.5 1.5-5.2 2.2-7.9 2.2z" fill="#2F3849" p-id="13740"></path><path d="M324.2 177.8s-76.8 64.1-19.3 110c83.9 67 207.2 143 207.2 143" fill="#5899FE" p-id="13741"></path><path d="M512.1 445.8c-2.7 0-5.4-0.7-7.9-2.2-1.2-0.8-125.1-77.2-208.7-144.1-17.4-13.9-26.8-31.6-27-50.9-0.5-43 44.2-80.7 46.1-82.3 6.4-5.3 15.8-4.5 21.1 1.9 5.3 6.4 4.5 15.8-1.9 21.1-9.9 8.3-35.6 35.2-35.3 59 0.1 10.3 5.3 19.4 15.7 27.8 82.2 65.7 204.5 141.2 205.7 142 7.1 4.3 9.2 13.6 4.9 20.6-2.8 4.6-7.7 7.1-12.7 7.1z" fill="#2F3849" p-id="13742"></path><path d="M153.3 813c-2.4 0-4.8-0.6-7-1.8l-103-54.9c-7.3-3.9-10.1-13-6.2-20.3s13-10.1 20.3-6.2l103 54.9c7.3 3.9 10.1 13 6.2 20.3-2.7 5.2-7.9 8-13.3 8z" fill="#2F3849" p-id="13743"></path><path d="M870.3 813c-5.4 0-10.6-2.9-13.3-7.9-3.9-7.3-1.1-16.4 6.2-20.3l103-54.9c7.3-3.9 16.4-1.1 20.3 6.2 3.9 7.3 1.1 16.4-6.2 20.3l-103 54.9c-2.2 1.2-4.6 1.7-7 1.7zM512 948.2c-8.3 0-15-6.8-15-15V451.4c0-8.3 6.7-15 15-15 8.2 0 15 6.8 15 15v481.7c0 8.3-6.7 15.1-15 15.1z" fill="#2F3849" p-id="13744"></path><path d="M534.6 460.4h-45.3c-1.8 0-3.4-1.5-3.4-3.4v-15.3c0-1.8 1.5-3.4 3.4-3.4h45.4c1.9 0 3.3 1.7 3.3 3.5V455c0 3.9-1.5 5.4-3.4 5.4z" fill="#2F3849" p-id="13745"></path><path d="M529.1 492.1h-34.3c-2.3 0-4.2-1.9-4.2-6.2v-45.3c0-0.3 1.9-2.2 4.2-2.2h34.3c2.3 0 4.2 1.9 4.2 4.2v45.3c0 2.3-1.9 4.2-4.2 4.2z" fill="#2F3849" p-id="13746"></path><path d="M352.5 649.5s17.6 11 46.5 11c30.2 0 47.5-11 47.5-11" fill="#FFFFFF" p-id="13747"></path><path d="M399 675.5c-32.2 0-52.2-11.9-54.4-13.3l15.9-25.5-0.1-0.1c0.1 0.1 15 8.8 38.7 8.8 24.9 0 39.5-8.7 39.6-8.7l-0.1 0.1 16.1 25.3c-2.3 1.4-22.2 13.4-55.7 13.4z" fill="#2F3849" p-id="13748"></path><path d="M352.5 793s17.6 11 46.5 11c30.2 0 47.5-11 47.5-11" fill="#FFFFFF" p-id="13749"></path><path d="M399 819c-32.2 0-52.2-11.9-54.4-13.3l15.9-25.5-0.1-0.1c0.1 0.1 15 8.8 38.7 8.8 24.9 0 39.5-8.7 39.6-8.7l-0.1 0.1 16.1 25.3C452.4 807 432.5 819 399 819z" fill="#2F3849" p-id="13750"></path><path d="M581.1 649.5s17.6 11 46.5 11c30.2 0 47.5-11 47.5-11" fill="#FFFFFF" p-id="13751"></path><path d="M627.6 675.5c-32.2 0-52.2-11.9-54.4-13.3l15.9-25.5-0.1-0.1c0.1 0.1 15 8.8 38.7 8.8 24.9 0 39.5-8.7 39.6-8.7l-0.1 0.1 16.1 25.3c-2.3 1.4-22.2 13.4-55.7 13.4z" fill="#2F3849" p-id="13752"></path><path d="M581.1 793s17.6 11 46.5 11c30.2 0 47.5-11 47.5-11" fill="#FFFFFF" p-id="13753"></path><path d="M627.6 819c-32.2 0-52.2-11.9-54.4-13.3l15.9-25.5-0.1-0.1c0.1 0.1 15 8.8 38.7 8.8 24.9 0 39.5-8.7 39.6-8.7l-0.1 0.1 16.1 25.3C681 807 661.1 819 627.6 819z" fill="#2F3849" p-id="13754"></path></svg>