<?xml version="1.0" standalone="no"?><!DOCTYPE svg PUBLIC "-//W3C//DTD SVG 1.1//EN" "http://www.w3.org/Graphics/SVG/1.1/DTD/svg11.dtd"><svg t="1555589923833" class="icon" style="" viewBox="0 0 1024 1024" version="1.1" xmlns="http://www.w3.org/2000/svg" p-id="9401" xmlns:xlink="http://www.w3.org/1999/xlink" width="48" height="48"><defs><style type="text/css"></style></defs><path d="M512 390.07c0-122.846-99.586-222.432-222.432-222.432-122.846 0-222.432 99.586-222.432 222.432v240.504H512V390.07z" fill="#FECC85" p-id="9402"></path><path d="M67.136 630.574v211.31c0 85.224 69.088 154.312 154.312 154.312h136.24c85.224 0 154.312-69.088 154.312-154.312V630.574H67.136z" fill="#BBDCE3" p-id="9403"></path><path d="M375.81 293.632c-48.32 0-86.234 53.878-86.234 53.878s-35.762-53.878-86.256-53.878c-49.112 0-89.22 40.508-91.844 89.554-1.48 27.706 7.454 48.796 20.038 67.894 25.148 38.158 135.096 130.022 158.224 130.022 23.606 0 132.574-91.528 157.888-130.02 12.612-19.184 21.518-40.186 20.032-67.894-2.622-49.048-42.728-89.556-91.848-89.556" fill="#FF5E8A" p-id="9404"></path><path d="M956.864 250.236c0-122.846-99.586-222.432-222.432-222.432C611.586 27.804 512 127.39 512 250.236V490.74h444.864V250.236z" fill="#FECC85" p-id="9405"></path><path d="M512 490.74v211.31c0 85.224 69.088 154.312 154.312 154.312h136.24c85.224 0 154.312-69.088 154.312-154.312V490.74H512z" fill="#BBDCE3" p-id="9406"></path><path d="M820.674 153.794c-48.32 0-86.234 53.878-86.234 53.878s-35.762-53.878-86.256-53.878c-49.112 0-89.22 40.508-91.844 89.554-1.48 27.706 7.454 48.796 20.038 67.894 25.148 38.158 135.094 130.02 158.224 130.02 23.606 0 132.574-91.528 157.888-130.02 12.612-19.184 21.52-40.186 20.032-67.894-2.622-49.046-42.73-89.554-91.848-89.554" fill="#FF5E8A" p-id="9407"></path><path d="M404.146 843.274h-146.19c-15.356 0-27.804 12.45-27.804 27.804s12.448 27.804 27.804 27.804h146.19c15.356 0 27.804-12.45 27.804-27.804s-12.448-27.804-27.804-27.804zM174.992 843.282c-7.312 0-14.486 2.95-19.658 8.15a27.956 27.956 0 0 0-8.146 19.654 28.236 28.236 0 0 0 4.698 15.43c1 1.532 2.168 2.95 3.448 4.228 5.172 5.172 12.344 8.118 19.658 8.118 7.34 0 14.486-2.948 19.658-8.118a26.568 26.568 0 0 0 3.448-4.228 25.68 25.68 0 0 0 2.558-4.808c0.696-1.668 1.252-3.42 1.584-5.2 0.362-1.78 0.556-3.614 0.556-5.422 0-7.34-2.976-14.486-8.146-19.654-5.176-5.202-12.35-8.15-19.658-8.15z" fill="" p-id="9408"></path><path d="M734.432 0c-132.416 0-241.118 103.388-249.674 233.678-45.898-57.174-116.338-93.844-195.19-93.844-137.98 0-250.236 112.256-250.236 250.236V841.884c0 100.42 81.696 182.116 182.116 182.116h136.24c100.42 0 182.116-81.696 182.116-182.116v-9.014c32.792 31.718 77.396 51.296 126.508 51.296h136.24c100.42 0 182.116-81.696 182.116-182.116V250.236C984.668 112.256 872.412 0 734.432 0z m96.234 412.082c30.652-25.448 69.092-61.288 85.058-85.564 4.31-6.556 9.114-14.552 13.334-24.034v160.45h-171.152c14.352-6.754 36.746-20.952 72.76-50.852z m-95.998 0.468c-26.84-12.03-114.296-85.08-135.072-116.604-11.814-17.928-16.446-33.214-15.492-51.112 1.866-34.866 30.612-63.234 64.08-63.234 28.78 0 55.344 29.986 63.09 41.45 5.06 7.622 13.574 12.228 22.722 12.384 9.028 0.134 17.812-4.238 23.13-11.684 8.37-11.724 36.1-42.15 63.548-42.15 33.47 0 62.22 28.366 64.086 63.238 0.97 18.092-3.522 32.906-15.498 51.128-20.878 31.74-107.992 104.734-134.594 116.584z m-0.236-356.942c77.782 0 145.02 45.882 176.158 111.984-22.01-25.56-54.22-41.6-89.918-41.6-36.528 0-66.69 21.144-86.028 39.554-19.124-18.42-49.186-39.554-86.462-39.554-35.692 0-67.9 16.038-89.906 41.598 31.138-66.102 98.376-111.982 176.156-111.982z m-194.628 246.904c4.23 9.486 9.042 17.48 13.358 24.034 15.832 24.022 54.474 59.886 85.36 85.438 36.214 29.964 58.636 44.188 72.952 50.95h-171.67v-160.422zM94.94 442.35c4.228 9.486 9.042 17.48 13.358 24.034 15.832 24.022 54.474 59.886 85.36 85.438 36.212 29.962 58.63 44.186 72.946 50.948H94.94v-160.42z m44.3-57.676c1.866-34.866 30.612-63.234 64.08-63.234 28.78 0 55.344 29.986 63.09 41.45 5.06 7.622 13.574 12.228 22.722 12.384 9.04 0.078 17.812-4.238 23.13-11.684 8.368-11.724 36.1-42.15 63.548-42.15 33.47 0 62.22 28.366 64.086 63.238 0.97 18.092-3.522 32.906-15.498 51.128-20.876 31.74-107.99 104.734-134.594 116.584-26.84-12.034-114.294-85.08-135.072-116.604-11.812-17.932-16.444-33.218-15.492-51.112z m246.564 167.246c30.652-25.448 69.092-61.288 85.058-85.564 4.31-6.556 9.114-14.552 13.334-24.034v160.448h-171.148c14.354-6.756 36.746-20.956 72.756-50.85zM289.568 195.442c77.784 0 145.022 45.884 176.16 111.988-22.01-25.56-54.22-41.604-89.918-41.604-36.528 0-66.69 21.144-86.028 39.554-19.124-18.42-49.186-39.554-86.462-39.554-35.694 0-67.902 16.04-89.91 41.6 31.138-66.102 98.38-111.984 176.158-111.984z m194.628 646.442c0 69.758-56.75 126.508-126.508 126.508h-136.24c-69.758 0-126.508-56.75-126.508-126.508v-183.506h389.256v183.506z m444.864-139.834c0 69.758-56.75 126.508-126.508 126.508h-136.24c-69.758 0-126.508-56.75-126.508-126.508v-183.506H929.06v183.506z" fill="" p-id="9409"></path><path d="M702.818 759.048h146.19c15.356 0 27.804-12.45 27.804-27.804s-12.448-27.804-27.804-27.804h-146.19c-15.356 0-27.804 12.45-27.804 27.804s12.448 27.804 27.804 27.804zM594.192 741.882c0.696 1.668 1.558 3.28 2.558 4.782a26.44 26.44 0 0 0 3.448 4.228 27.918 27.918 0 0 0 19.658 8.172c1.808 0 3.642-0.192 5.45-0.554a29.73 29.73 0 0 0 5.2-1.584c1.668-0.696 3.28-1.56 4.782-2.558a28.204 28.204 0 0 0 7.702-7.704c1-1.502 1.862-3.114 2.53-4.782 0.696-1.668 1.252-3.42 1.584-5.2a27.6 27.6 0 0 0 0.556-5.45c0-1.808-0.194-3.642-0.556-5.422a26.196 26.196 0 0 0-1.584-5.2 26.582 26.582 0 0 0-2.53-4.808 28.338 28.338 0 0 0-3.476-4.23 26.4 26.4 0 0 0-4.226-3.444c-1.502-1-3.114-1.862-4.782-2.558a28.54 28.54 0 0 0-5.2-1.584 27.556 27.556 0 0 0-10.872 0 28.19 28.19 0 0 0-10.01 4.142 26.4 26.4 0 0 0-4.226 3.444c-1.28 1.278-2.446 2.7-3.448 4.23-1 1.502-1.862 3.142-2.558 4.808-0.696 1.672-1.224 3.42-1.584 5.2a27.366 27.366 0 0 0-0.556 5.422c0 1.836 0.194 3.646 0.556 5.45 0.358 1.78 0.888 3.534 1.584 5.2z" fill="" p-id="9410"></path></svg>