<?xml version="1.0" standalone="no"?><!DOCTYPE svg PUBLIC "-//W3C//DTD SVG 1.1//EN" "http://www.w3.org/Graphics/SVG/1.1/DTD/svg11.dtd"><svg t="1555589474294" class="icon" style="" viewBox="0 0 1024 1024" version="1.1" xmlns="http://www.w3.org/2000/svg" p-id="2923" xmlns:xlink="http://www.w3.org/1999/xlink" width="48" height="48"><defs><style type="text/css"></style></defs><path d="M170.4 716.2c-10.7 7.2-9.6 16.7 2.6 21.1 46.8 16.8 150.9 29.1 231.2 29.1 105.1 0 160.1 3.8 206.6-71.2s96.4-183.4 151.4-197.8c44.5-11.7 69.6 3.7 69.6 3.7s6.9-37.5 20.4-69.7c27-64.3-11.5-157.7-55.9-173.2-35.9-12.6-134.6 179.2-170.6 230.2S474.3 699.7 357.2 642.9c-27-13.1-137.7 40.2-186.8 73.3z" fill="#FD6A88" p-id="2924"></path><path d="M339.4 625.4s36.2 81.4 123.5 47.5c75.4-29.3 181.5-166.8 243.4-281.6 26.7-49.5 53.6-87.4 51.1-125.4 0 0-164 310.5-291 354.5-129.3 44.7-127 5-127 5z" fill="#EF597D" p-id="2925"></path><path d="M792.7 257.6c1.3 0 2.4 0.2 3.6 0.6 44.4 15.5 82.9 108.9 55.9 173.2-13.5 32.2-20.4 69.7-20.4 69.7s-13.2-8.1-37.3-8.1c-9.2 0-20 1.2-32.3 4.4-55 14.4-104.9 122.8-151.4 197.8-42.2 68.1-91.4 71.2-178.8 71.2h-27.8c-80.3 0-184.4-12.3-231.2-29.1-12.1-4.4-13.3-13.9-2.6-21.1 43.9-29.6 137-75.3 175.5-75.3 4.6 0 8.4 0.6 11.3 2 17.2 8.4 34.4 12 51.3 12 98 0 186.5-123 217.2-166.5 34.9-49.4 128.5-230.8 167-230.8m0-30c-20.1 0-36.5 14.3-47.1 25-10.5 10.6-22.2 25.2-35.8 44.6-23.7 33.8-48.6 75.5-70.5 112.2-15.7 26.4-29.3 49.2-38.1 61.7-12.6 17.9-42.2 59.8-79.5 95.1-41.1 39-79.2 58.7-113.2 58.7-13.2 0-25.7-2.9-38.2-9-7-3.4-15-5-24.4-5-22.1 0-55.1 9.8-98.1 29.2-33.9 15.3-70 34.9-94.2 51.2-14.6 9.8-22.2 24.9-20.3 40.2s12.9 28 29.5 34c31.2 11.2 76.7 18.3 109.5 22.4 44.3 5.5 91.1 8.5 131.8 8.5H431.8c45.5 0 82.8-0.9 115.7-11.6 36.7-12 64.8-35.4 88.7-73.9 10.1-16.2 20.4-34.2 30.4-51.6 18.5-32.1 37.6-65.3 56.7-91 22.9-30.7 37.8-39.8 46.4-42.1 8.6-2.3 16.9-3.4 24.6-3.4 13.3 0 20.9 3.4 22.3 4l36.7 22.4 7.9-43c0.1-0.3 6.5-34.8 18.6-63.5 9-21.4 12.7-46.6 10.8-72.9-1.7-23.2-7.7-46.9-17.3-68.5-7.3-16.4-16.7-31.4-27-43.2-12.3-13.9-25.7-23.5-40.1-28.5-4.3-1.3-8.9-2-13.5-2z" fill="#2F3849" p-id="2926"></path><path d="M845.6 795.7c-8.3 0-15-6.7-15-15V509.4h30v271.3c0 8.3-6.7 15-15 15z" fill="#2F3849" p-id="2927"></path></svg>