<?xml version="1.0" standalone="no"?><!DOCTYPE svg PUBLIC "-//W3C//DTD SVG 1.1//EN" "http://www.w3.org/Graphics/SVG/1.1/DTD/svg11.dtd"><svg t="1555405041454" class="icon" style="" viewBox="0 0 1024 1024" version="1.1" xmlns="http://www.w3.org/2000/svg" p-id="11386" xmlns:xlink="http://www.w3.org/1999/xlink" width="48" height="48"><defs><style type="text/css"></style></defs><path d="M504.3 358.4c87.9 0 153.4-90 153.4-142 0-31-61.3-63.6-149.2-63.6S363 187.6 363 218.6s53.3 139.8 141.3 139.8z" fill="#F3CBC8" p-id="11387"></path><path d="M835.1 374.5c-12.6-67.3-54.5-88.7-116.1-106.2-35.2 60.6-131.7 130.1-198.6 130.1-81.6 0-183.5-71.4-218.4-132.6-63.4 14.2-99.1 65.6-115.8 100.8-19.3 40.5-25.1 266.2-27 327.9-1.9 61.7 2.8 116.6 23 123.4 22.2 7.6 63.8 8.8 100.6 8.5 4.5 40.6 14.4 65 32 73.7 34.8 17.3 376.3 21.3 406.5-14.8 8.3-10 14-32.8 17.8-63.3 31.3-0.1 53.6-0.1 61.4-0.2 35.1-0.3 56.4-9.1 63.1-37.9 8-34.9-14.2-333-28.5-409.4z" fill="#F3CBC8" p-id="11388"></path><path d="M511.1 110.6c-122.3 0-221.4 52.1-221.4 116.3 0 41.6 54.7 101.2 120.5 138.1-1.5 21.6-2.4 48.3-2.4 77.2 0 72.3 5.7 130.8 12.7 130.8 7 0 12.7-58.6 12.7-130.8 0-24.2-0.6-46.9-1.7-66.3 29.7 13.9 60.6 22.6 89.1 22.6 21.9 0 47.1-7.5 72.2-19.6-1 18.8-1.6 40.4-1.6 63.4 0 72.3 5.7 130.8 12.7 130.8s12.7-58.6 12.7-130.8c0-27.9-0.8-53.7-2.3-74.9 62.2-36.7 118.5-98 118.5-140.4-0.3-64.4-99.4-116.4-221.7-116.4z m-6.8 247.8c-87.9 0-141.2-108.7-141.2-139.8 0-31 57.5-65.8 145.4-65.8s149.2 32.6 149.2 63.6c-0.1 52-65.5 142-153.4 142zM182.2 818c-1.3-0.4-2.4-1-3.6-1.8-1.8 17.4-0.9 31.6 7.6 39.7 14.9 14 92.1 15.3 102.3 3.7-2.5-9.5-4.4-20.5-5.8-33-36.8 0.2-78.3-1-100.5-8.6zM847.6 810.4c-10.9 8.3-26.7 11.3-47.2 11.5-7.8 0.1-30.1 0.1-61.4 0.2-1.6 13.3-3.6 25.1-6.1 35 0.5 4 1.3 6.3 2.8 6.2 10.2-0.9 86.2 2.8 102.8-10.2 8.9-6.9 9.9-24.3 9.1-42.7z" fill="#FB948F" p-id="11389"></path><path d="M601.8 318.6c3.1-2.8 6.1-5.6 9-8.6-2.8 3-5.8 5.8-9 8.6zM433.4 332.9c-1-0.7-1.9-1.5-2.9-2.3 1 0.8 1.9 1.5 2.9 2.3zM411.7 313c0.8 0.9 1.7 1.8 2.5 2.6-0.9-0.8-1.7-1.7-2.5-2.6z" fill="#C36B85" p-id="11390"></path><path d="M841 373.4c-6.5-34.8-20.8-59.6-44.9-77.7-18.4-13.9-41-22.9-68.7-31.1 7-13.6 10.7-26.4 10.7-37.7 0-33.3-24.1-64.2-67.9-87.2C627.6 117.3 571 105 511 105s-116.6 12.3-159.2 34.7c-43.8 23-67.9 54-67.9 87.2 0 10.6 3.3 22.5 9.5 35-22.5 6.2-43.2 17.4-61.8 33.6-25.8 22.5-41.9 49.7-50.9 68.7-8.2 17.3-14.7 65.4-19.9 146.9-4.1 65.1-6.2 134.6-7.3 171.9-0.1 4.3-0.2 8.2-0.4 11.5-1.1 34.5 0 62.5 3.3 83.4 3.2 20.3 8.4 33.9 15.9 41-1.5 17.6 0 32.2 9.8 41.4 9.6 9 37.6 13.1 63 13.1 17.3 0 33.3-1.9 41.5-5.4 1-0.4 2-0.9 2.8-1.4 4.2 20.5 10.3 33 22.7 39.2 17.8 8.8 100.5 13.4 179.6 13.4 9.5 0 18.9-0.1 28.1-0.2 51-0.7 96.2-3.3 130.8-7.5 63.1-7.6 72.2-18.5 75.2-22.1 3.8-4.6 6.1-11.5 7.7-20.3 0.7 0.2 1.4 0.3 2.1 0.3h0.7c1.9-0.2 7.4-0.2 13.7-0.1 37.5 0.1 78.7-0.7 92.3-11.3 10.4-8.1 12.1-25.7 11.5-44.7 7.2-6.3 12.7-15.2 15.6-27.8 8.4-36.7-13.8-334.1-28.4-412.1zM357.2 149.6c41-21.5 95.7-33.4 153.9-33.4S624 128.1 665 149.6c39.9 20.9 61.8 48.3 61.8 77.2 0 27.9-28.6 69.3-72.8 105.5-45.6 37.3-96.8 60.5-133.7 60.5-44.5 0-100.3-22.6-149.4-60.5-45.9-35.5-75.6-76.9-75.6-105.4 0-28.9 22-56.3 61.9-77.3z m253.1 292.6c0 55.7-3.3 96.2-6.7 115-3.4-18.8-6.7-59.3-6.7-115 0-22.6 0.5-42.7 1.4-59.8 3.4-1.7 6.8-3.5 10.2-5.4 1.2 18.2 1.8 40.2 1.8 65.2z m-183.2 0c0 55.7-3.3 96.2-6.7 115-3.4-18.8-6.7-59.3-6.7-115 0-26.2 0.7-49 1.9-67.8 3.3 1.7 6.6 3.4 9.9 5 0.9 17.7 1.6 38.8 1.6 62.8zM255.7 861.1c-27.9 1.3-58.5-3.2-65.4-9.7-5.6-5.3-7-14.7-6.4-26.6 21.6 6.2 56.6 7.8 89.4 7.8h10.1c0.2 7.9 0.2 15.8 0.2 23.3-1.9 1.3-9.6 4.3-27.9 5.2z m460.9 20.5c-8.7 10.5-65.6 23.4-197 25.3-93.8 1.3-186.4-4.1-202.2-12-13-6.5-16.4-24.2-20-55.1 4.2 5.1 8.9 8.9 14.2 11.6 17.8 8.8 100.5 13.4 179.6 13.4 9.5 0 18.9-0.1 28.1-0.2 51-0.7 96.2-3.3 130.8-7.5 63.1-7.6 72.2-18.5 75.2-22.1 0.1-0.1 0.1-0.2 0.2-0.2-2 21.8-2.4 39.1-8.9 46.8z m118.3-33.2c-11.5 8.9-62.9 8.8-84.9 8.8h-11c-0.7-4.6-0.5-14.7 0.5-29.1h9.4c25.9-0.1 44.6-0.1 51.6-0.2 14.3-0.1 29-1.5 41.3-7.1-0.1 12.5-1.6 23.4-6.9 27.6z m22.7-65.8c-5.5 23.6-21.5 32.9-57.3 33.3-6.9 0.1-25.6 0.1-51.5 0.2h-13.9c20.2-60.2 17.8-217.4 13.4-375.6-1.2-41.1-2.1-73.6-1.5-89.4 0.1-3.3-2.5-6.1-5.8-6.2-3.3-0.1-6.1 2.5-6.2 5.8-0.5 16.2 0.4 48.8 1.5 90.1 1.8 65.1 4.3 154.3 2.4 230.5-1.5 60.7-6.7 137-22.5 156-8.7 10.5-65.6 23.4-197 25.3-93.8 1.3-186.4-4.1-202.2-12-23.5-11.7-33.2-60.2-31.5-157.2 1.9-108.4 1.3-232.1-1.7-339.5-0.1-3.3-2.9-5.9-6.2-5.8-3.3 0.1-5.9 2.9-5.8 6.2 3 107.2 3.6 230.7 1.7 338.9-1.2 66.4 2.8 110.3 13.2 137.2-36.8 0.4-80.5-0.7-102.5-8.2-4-1.4-11.4-7.9-15.8-36.4-3.1-20.1-4.2-47.4-3.1-81.2 0.1-3.4 0.2-7.2 0.4-11.5 2.1-68.5 8.4-276.8 26.1-314 8.5-17.9 23.8-43.7 48-64.8 17.9-15.6 38-26.2 59.9-31.8 13.7 22.6 36 46.5 64.6 68.5 12.9 10 26.3 18.9 39.9 26.7-1.4 21.7-2.2 47.4-2.2 74.2 0 35.1 1.3 68.2 3.7 93.1 1.2 12.3 2.6 22 4.2 28.8 1.2 5.2 3.4 14.9 10.8 14.9s9.6-9.7 10.8-14.9c1.6-6.8 3-16.5 4.2-28.8 2.4-24.9 3.7-58 3.7-93.1 0-20.2-0.4-39.6-1.3-57.2 28.9 12.4 57.4 19.2 82.6 19.2 19.5 0 42.1-5.6 65.7-16-0.7 16.8-1.1 35.1-1.1 54.1 0 35.1 1.3 68.2 3.7 93.1 1.2 12.3 2.6 22 4.2 28.8 1.2 5.2 3.4 14.9 10.8 14.9s9.6-9.7 10.8-14.9c1.6-6.8 3-16.5 4.2-28.8 2.4-24.9 3.7-58 3.7-93.1 0-25.9-0.7-50.7-2.1-71.9 13.8-8.4 27.6-18.1 41-29.1 26.2-21.4 46.8-44.3 60.1-65.8 27.6 8 49.9 16.7 67.5 30 21.6 16.3 34.4 38.6 40.3 70.4 6.6 35.2 15.6 123.5 22.5 219.5 6.8 99 9.1 172.6 5.6 187.5z" fill="#C36B85" p-id="11391"></path></svg>