<?xml version="1.0" standalone="no"?><!DOCTYPE svg PUBLIC "-//W3C//DTD SVG 1.1//EN" "http://www.w3.org/Graphics/SVG/1.1/DTD/svg11.dtd"><svg t="1555589847418" class="icon" style="" viewBox="0 0 1024 1024" version="1.1" xmlns="http://www.w3.org/2000/svg" p-id="7592" xmlns:xlink="http://www.w3.org/1999/xlink" width="48" height="48"><defs><style type="text/css"></style></defs><path d="M922.7 611.6H766.9c-2.1 0-23.5 0.1-53.3 4.2v28.4h209v-32.6z" fill="#FDCDE1" p-id="7593"></path><path d="M919.8 393.2c-4.1-7.2-13-10.2-20.7-7-1.2 0.5-125.1 52.4-197.6 53.8h-1.9c-68.4 0-146.5-72.9-147.3-73.6-6-5.7-15.3-6-21.7-0.8l-38.9 31.5c2.9-13.1 8.4-27.8 19.2-36.8 7-5.8 7.9-16.2 2.1-23.2-5.8-7-16.2-7.9-23.2-2.1-19.9 16.6-28.2 42.3-31.6 62.2-20.8-7-44.7-2.9-62.1 12.8-21.7 19.5-26.5 50.9-13.5 75.6l-81.9 66.3c-11.1 0.3-38.1 0.9-72.7 0.9-25.1 0-49.4-0.3-72.5-0.9h-2.4c-53 0-85 47.1-89.4 66.7-2.5 11.4 3.4 18.6 9.3 21.4 44.3 20.9 236.9 50 366 50 66.5 0 109-7.4 129.9-22.5 33.6-24.4 75.4-38.2 111.9-45.9v39.2c0 9.1 7.4 16.5 16.5 16.5h242c9.1 0 16.5-7.4 16.5-16.5V597v-0.4c16.8-109.8-33.9-199.7-36-203.4z" fill="#E66978" p-id="7594"></path><path d="M713.7 615.7c29.8-4.1 51.2-4.2 53.3-4.2h155.8v32.6h-209v-28.4zM418.1 434.4c9.3-8.4 22.5-9.8 33.1-4.5l-41.9 33.9c-2.7-10.3 0.3-21.7 8.8-29.4z" fill="#FFF4E5" p-id="7595"></path><path d="M549.5 640.6c-6.7 4.9-30.9 16.2-110.5 16.2-115.7 0-280.3-24.2-337.6-41.6 8.3-12.5 26-31.2 53.2-30.5 23.3 0.6 48 0.9 73.3 0.9 46 0 78.9-1 79.3-1 3.6-0.1 7.1-1.4 9.8-3.7l89.1-72.2 39.5 34.7c3.1 2.8 7 4.1 10.9 4.1 4.6 0 9.1-1.9 12.4-5.6 6-6.8 5.3-17.3-1.5-23.3l-35.3-31 39.6-32.1 58.8 51.7c3.1 2.8 7 4.1 10.9 4.1 4.6 0 9.1-1.9 12.4-5.6 6-6.8 5.3-17.3-1.5-23.3l-54.6-48 42.8-34.7c26.2 22.1 95.3 74.4 161.6 73 64.2-1.3 159.4-36.4 195.4-50.6 11.6 25.5 34.4 86.2 27.2 156.2H766.9c-13.5 0.3-134.3 2-217.4 62.3z" fill="#FFAEBF" p-id="7596"></path></svg>