<?xml version="1.0" standalone="no"?><!DOCTYPE svg PUBLIC "-//W3C//DTD SVG 1.1//EN" "http://www.w3.org/Graphics/SVG/1.1/DTD/svg11.dtd"><svg t="1555404936730" class="icon" style="" viewBox="0 0 1024 1024" version="1.1" xmlns="http://www.w3.org/2000/svg" p-id="9883" xmlns:xlink="http://www.w3.org/1999/xlink" width="48" height="48"><defs><style type="text/css"></style></defs><path d="M791.81312 99.7888v90.7776h-559.616l-0.1536 0.256V99.7888c0-28.2624 22.9376-51.2 51.2-51.2h457.3696c28.31872 0 51.2 22.9376 51.2 51.2z" fill="#80AFDE" p-id="9884"></path><path d="M810.50624 887.1424h-145.8688s-21.6576-61.9008-56.2688-191.5904c-29.44-110.2848-24.7296-233.216-96.3584-233.216-58.9312 0-66.91328 122.9312-96.35328 233.216-34.61632 129.6896-56.2688 191.5904-56.2688 191.5904h-145.8688c-137.5232-419.2768 13.2608-687.15008 18.5344-696.32a2.6624 2.6624 0 0 0 0.1536-0.256h559.616c-0.01024 0 158.60736 269.8752 18.68288 696.576z" fill="#6094CE" p-id="9885"></path><path d="M810.48576 935.68512a20.48 20.48 0 0 1-20.48 20.48H685.1072a20.48 20.48 0 0 1-20.48-20.48v-48.55296h145.85856v48.55296zM359.38304 935.68512a20.48 20.48 0 0 1-20.48 20.48H234.00448a20.48 20.48 0 0 1-20.48-20.48v-48.55296h145.85856v48.55296z" fill="#80AFDE" p-id="9886"></path><path d="M709.02784 423.2704a20.48 20.48 0 0 1-20.224-17.408c-27.4176-180.65408-110.53056-243.74272-111.37024-244.36224a20.49024 20.49024 0 0 1-4.34176-28.63616 20.49536 20.49536 0 0 1 28.64128-4.34176c3.968 2.92352 97.62816 73.94304 127.56992 271.19104a20.48512 20.48512 0 0 1-20.2752 23.55712zM310.7584 423.2704a20.48 20.48 0 0 1-20.27008-23.55712c29.94176-197.248 123.60192-268.26752 127.56992-271.19104a20.48512 20.48512 0 0 1 24.38144 32.91648c-1.33632 1.024-84.37248 65.9968-111.45216 244.42368a20.48512 20.48512 0 0 1-20.22912 17.408z" fill="#FFFFFF" p-id="9887"></path><path d="M289.152 99.7888c0-28.2624 22.9376-51.2 51.2-51.2H283.24352c-28.2624 0-51.2 22.9376-51.2 51.2v91.0336a2.6624 2.6624 0 0 0 0.1536-0.256h56.94976V99.7888z" fill="#1A71B2" opacity=".4" p-id="9888"></path><path d="M289.152 190.8224a2.6624 2.6624 0 0 0 0.1536-0.256H232.20224l-0.1536 0.256c-5.2736 9.1648-156.0576 277.0432-18.5344 696.32h57.10336c-137.52832-419.2768 13.25568-687.1552 18.5344-696.32zM734.848 190.8224a2.6624 2.6624 0 0 1-0.1536-0.256h57.10336l0.1536 0.256c5.2736 9.1648 156.0576 277.0432 18.5344 696.32h-57.10336c137.52832-419.2768-13.25568-687.1552-18.5344-696.32z" fill="#1A71B2" opacity=".4" p-id="9889"></path><path d="M270.62784 935.68512v-48.55296H213.52448v48.55296a20.48 20.48 0 0 0 20.48 20.48h57.10336a20.48 20.48 0 0 1-20.48-20.48z" fill="#1A71B2" opacity=".4" p-id="9890"></path><path d="M881.42848 607.6416c0.50176-7.8592 0.91648-15.7184 1.23392-23.57248 0.03072-0.72192 0.07168-1.44896 0.09728-2.16576 0.51712-13.17376 0.79872-26.31168 0.79872-39.28064 0-7.97696-0.10752-15.8976-0.31744-23.50592a364.3136 364.3136 0 0 0-0.20992-7.63904l-0.46592-12.49792a931.9936 931.9936 0 0 0-0.93696-17.29024c-0.20992-3.31776-0.42496-6.58432-0.6656-9.50784a343.63392 343.63392 0 0 0-0.80384-10.2912l-0.88064-9.75872c-0.31744-3.3024-0.62976-6.5536-0.9728-9.58464-0.36352-3.67104-0.78336-7.29088-1.2288-11.136l-0.30208-2.41664a231.34208 231.34208 0 0 0-0.39936-3.17952 457.27232 457.27232 0 0 0-1.152-8.84736 776.8064 776.8064 0 0 0-4.30592-28.42624l-1.00352-5.79072a742.2464 742.2464 0 0 0-5.5296-28.73344 473.49248 473.49248 0 0 0-2.08896-9.56416c-1.1008-4.92032-2.19648-9.78432-3.34848-14.4896a859.392 859.392 0 0 0-2.30912-9.21088 419.1488 419.1488 0 0 0-3.456-13.0816 538.72128 538.72128 0 0 0-5.32992-18.55488c-0.57344-1.94048-1.15712-3.83488-1.74592-5.76-15.03232-48.60928-30.40768-80.4864-37.17632-93.43488a75.27424 75.27424 0 0 0-0.81408-1.55136l-0.41472-0.77824-0.5376-1.01888V99.7888c0-36.70016-29.85984-66.56-66.56-66.56H283.2384c-36.70016 0-66.56 29.85984-66.56 66.56v87.0656c-19.08224 35.44576-149.53984 300.7488-18.50368 702.76096v46.06464c0 19.75808 16.08192 35.84 35.84 35.84h104.89856c19.75808 0 35.84-16.08192 35.84-35.84v-46.04416c4.41856-12.97408 24.80128-74.25024 55.72608-190.1312 7.10656-26.61888 12.91264-53.66272 18.5344-79.8208C464.69632 546.66752 479.50848 477.696 512 477.696c37.48352 0 48.2304 49.77152 62.65856 130.9696 5.2736 29.69088 10.73152 60.3904 18.86208 90.84416 31.0016 116.16256 51.39968 177.4592 55.7568 190.22848v45.94688c0 19.75808 16.08192 35.84 35.84 35.84H790.016c19.75808 0 35.84-16.08192 35.84-35.84v-46.11072l0.35328-1.09056c0.9728-2.97984 1.94048-5.93408 2.88256-8.92928 1.77664-5.64736 3.47648-11.24864 5.1712-16.86528 0.32256-1.07008 0.6656-2.14016 0.98304-3.21024l0.48128-1.5616 2.39104-8.1408c1.47968-5.18144 2.94912-10.32192 4.30592-15.27296l0.16384-0.58368c0.58368-2.05312 1.16736-4.10624 1.69472-6.1184l0.5376-2.02752c1.37728-5.1712 2.73408-10.30656 4.00384-15.37024 0.6656-2.61632 1.27488-5.248 1.92512-7.86944 0.79872-3.23072 1.60256-6.46144 2.37056-9.68192 2.10944-8.82176 4.14208-17.63328 6.02112-26.38336l0.2304-1.01376a15.36 15.36 0 0 0-14.90432-18.57024 15.24736 15.24736 0 0 0-5.39136 0.97792c-0.1536 0.05632-0.32256 0.0768-0.47104 0.13312a15.34464 15.34464 0 0 0-3.96288 2.432c-0.31744 0.26112-0.66048 0.47616-0.95744 0.75776-0.06144 0.06144-0.10752 0.13312-0.16896 0.19456a15.32416 15.32416 0 0 0-4.18816 7.64416c-0.16896 0.78848-0.36352 1.59744-0.53248 2.38592a1157.87776 1157.87776 0 0 1-5.06368 22.31296c-0.8192 3.46624-1.68448 6.93248-2.53952 10.3936a1201.72032 1201.72032 0 0 1-4.7872 18.89792l-0.81408 3.11296c-2.42176 9.0624-4.94592 18.1248-7.58784 27.19744l-0.128 0.44032a1243.5712 1243.5712 0 0 1-8.54528 28.00128h-24.90368c108.33408-349.55264 19.16416-592.5632-14.75072-665.84064h22.96832c6.59968 12.8512 20.41856 42.19904 34.10944 86.47168 0.54784 1.79712 1.1008 3.59424 1.69472 5.59104a506.0864 506.0864 0 0 1 5.12512 17.84832c1.13152 3.98848 2.21696 8.12544 3.28704 12.44672a689.2544 689.2544 0 0 1 5.49376 22.99904c0.6912 2.95936 1.3312 5.97504 1.98656 9.10336 1.82272 8.4992 3.56352 17.536 5.34016 27.74528l0.99328 5.72416c1.41824 8.2944 2.7648 17.19296 4.13184 27.33056 0.39424 2.75968 0.7424 5.52448 1.11616 8.56576l0.67584 5.41696c0.40448 3.44576 0.80384 6.89664 1.17248 10.60864 0.34304 3.07712 0.64 6.15424 0.9472 9.31328l0.8704 9.65632c0.29184 3.06688 0.53248 6.23104 0.74752 9.63584 0.25088 3.03104 0.44544 6.11328 0.64512 9.23648 0.34816 5.53984 0.65536 11.07968 0.90112 16.6144l0.46592 12.4672c0.1024 2.34496 0.14336 4.68992 0.19456 7.13728a849.14688 849.14688 0 0 1 0.29696 23.64928c0 3.37408-0.0512 6.77376-0.09216 10.16832a926.5408 926.5408 0 0 1-0.84992 31.08352c-0.09728 2.20672-0.1792 4.4032-0.29184 6.6048-0.60928 12.1344-1.48992 24.54016-2.59584 37.15584a1041.95072 1041.95072 0 0 1-2.75456 27.50976c-0.08192 0.6912-0.13312 1.36192-0.21504 2.048a15.35488 15.35488 0 0 0 13.47584 17.03424c0.64 0.0768 1.25952 0.03584 1.88416 0.03072 0.39936-0.00512 0.80896 0.0512 1.20832 0.01536a15.3856 15.3856 0 0 0 12.3648-8.43776c0.78848-1.5616 1.37216-3.2512 1.5872-5.08416 0.95232-8.15616 1.78176-16.38912 2.53952-24.59648 0.13312-1.45408 0.27648-2.90816 0.40448-4.36736 0.14848-1.68448 0.32256-3.38944 0.46592-5.0688 0.26624-2.97984 0.49152-5.94432 0.71168-8.8832l0.38912-5.07392c0.11264-1.664 0.19456-3.328 0.3072-4.99712 0.01024-0.32768 0.03072-0.66048 0.0512-0.98816z m-542.5152 333.16352H234.01472a5.12 5.12 0 0 1-5.12-5.12v-33.18272h115.13856v33.18272a5.12 5.12 0 0 1-5.12 5.12z m451.10272 0h-104.89856a5.12 5.12 0 0 1-5.12-5.12v-33.18272H795.136v33.18272a5.12 5.12 0 0 1-5.12 5.12z m-47.83616-69.03296h-66.51392c-7.40352-22.51264-26.28608-82.07872-52.46464-180.17792-7.79264-29.19424-13.12768-59.2384-18.29376-88.29952-14.2848-80.384-27.776-156.3136-92.90752-156.3136-57.30816 0-73.86112 77.05088-93.02016 166.26688-5.53984 25.78944-11.26912 52.45952-18.18112 78.35136-26.17856 98.0992-45.06624 157.66528-52.46976 180.17792H281.89696c-50.97472-160.07168-65.81248-315.6224-43.90912-462.464a15.36 15.36 0 1 0-30.37696-4.5312c-22.17984 148.67456-8.04864 305.67936 41.98912 466.9952h-24.89856C106.0352 499.02592 217.63072 251.96032 241.3568 205.9264h22.97344c-9.1136 19.66592-22.20032 51.54816-34.39616 94.5152a15.36 15.36 0 0 0 29.54752 8.39168c15.08864-53.16096 31.61088-88.43264 39.0144-102.90688h38.76864c-0.19456 0.34816-0.36864 0.72704-0.5632 1.0752a432.02048 432.02048 0 0 0-9.49248 18.11968c-0.34816 0.70144-0.71168 1.38752-1.05472 2.08896a472.704 472.704 0 0 0-8.76032 19.03104 447.77984 447.77984 0 0 0-9.41568 23.12192c-0.44032 1.1776-0.8704 2.37056-1.31072 3.55328a550.78912 550.78912 0 0 0-7.33184 21.02784l-0.39424 1.25952a611.16928 611.16928 0 0 0-6.40512 21.39648l-0.896 3.15904a628.25472 628.25472 0 0 0-6.6048 26.42432 688.2304 688.2304 0 0 0-4.79744 22.75328c-0.24064 1.2544-0.46592 2.52416-0.70144 3.77856-1.52064 8.12544-2.94912 16.3328-4.21888 24.704-2.944 19.44064 10.38848 37.6576 29.76256 40.74496a31.9488 31.9488 0 0 0 5.69344 0.47104c17.55136 0 32.77312-13.09696 35.40992-30.45888 0.99328-6.56384 2.0736-12.95872 3.21536-19.20512 0.384-2.0992 0.81408-4.09088 1.21344-6.15936 0.78336-4.07552 1.56672-8.1664 2.41152-12.1088 0.51712-2.40128 1.0752-4.69504 1.60256-7.04512 0.78848-3.46624 1.57184-6.94784 2.39616-10.30656 0.59904-2.42688 1.2288-4.75648 1.84832-7.12704 0.8192-3.14368 1.63328-6.2976 2.4832-9.344 0.66048-2.37056 1.3568-4.65408 2.03264-6.9632 0.85504-2.89792 1.70496-5.80096 2.59072-8.61184 0.72192-2.29376 1.4592-4.51072 2.19648-6.74304 0.88576-2.68288 1.77664-5.37088 2.67776-7.97184 0.76288-2.19136 1.55136-4.32128 2.3296-6.45632 0.91648-2.50368 1.82784-4.99712 2.7648-7.424 0.79872-2.07872 1.60768-4.10624 2.42688-6.12352a412.8256 412.8256 0 0 1 16.33792-35.712c0.99328-1.91488 1.99168-3.78368 2.99008-5.62176a283.96544 283.96544 0 0 1 5.59104-9.95328c0.85504-1.46432 1.70496-2.93376 2.56-4.34688 1.00864-1.68448 2.0224-3.29728 3.03104-4.90496 0.82944-1.32608 1.664-2.66752 2.48832-3.9424 1.01888-1.58208 2.03264-3.08736 3.0464-4.58752 0.80384-1.19296 1.60768-2.41152 2.40128-3.5584 1.03424-1.49504 2.05312-2.90304 3.07712-4.32128 0.74752-1.03936 1.50528-2.11968 2.24256-3.11808 0.14336-0.19968 0.29184-0.37888 0.44032-0.57856h174.92992l0.44032 0.57344c0.70144 0.9472 1.41312 1.96608 2.1248 2.94912 1.0496 1.45408 2.09408 2.89792 3.15392 4.43392 0.768 1.10592 1.55136 2.28864 2.32448 3.43552 1.024 1.52576 2.048 3.0464 3.08736 4.64384 0.81408 1.2544 1.62816 2.57536 2.45248 3.87584 1.00352 1.60768 2.01728 3.22048 3.03104 4.90496 0.8448 1.40288 1.69472 2.8672 2.54464 4.3264 0.99328 1.70496 1.99168 3.42016 2.98496 5.20192 0.86016 1.54112 1.72544 3.13344 2.5856 4.73088a325.29408 325.29408 0 0 1 5.54496 10.6752 379.52 379.52 0 0 1 8.32512 17.78688 386.60608 386.60608 0 0 1 5.31968 12.68224c0.82944 2.06848 1.65376 4.15232 2.47296 6.28224 0.90624 2.36544 1.80224 4.80256 2.688 7.2448 0.79872 2.19648 1.60256 4.39296 2.38592 6.65088 0.88064 2.52928 1.73568 5.13024 2.59072 7.74144 0.76288 2.31936 1.53088 4.62336 2.27328 7.00928 0.8448 2.7136 1.664 5.5296 2.48832 8.33024 0.71168 2.41152 1.42336 4.79744 2.11456 7.2704 0.82432 2.96448 1.60768 6.03648 2.4064 9.088 0.64 2.46272 1.29536 4.8896 1.91488 7.41376 0.80384 3.28192 1.5616 6.68672 2.3296 10.07104 0.54784 2.45248 1.13152 4.84352 1.664 7.3472 0.81408 3.84 1.57696 7.8336 2.34496 11.80672 0.41984 2.19136 0.87552 4.31104 1.28 6.54336 1.14176 6.27712 2.22208 12.6976 3.22048 19.29216 2.75456 17.6128 17.6384 30.39744 35.39456 30.39744 2.14528 0 3.98336-0.1536 5.74976-0.48128a35.56864 35.56864 0 0 0 23.20896-14.19264 35.42528 35.42528 0 0 0 6.5024-26.54208 727.15264 727.15264 0 0 0-4.21888-24.69888c-0.23552-1.25952-0.4608-2.5344-0.70144-3.7888a676.7872 676.7872 0 0 0-4.79232-22.7328c-0.3328-1.46944-0.68096-2.92864-1.01888-4.38784a638.01344 638.01344 0 0 0-5.58592-22.03648l-0.91136-3.20512a594.04288 594.04288 0 0 0-6.38976-21.34016l-0.39936-1.28512a540.75392 540.75392 0 0 0-7.32672-21.00224c-0.44032-1.19296-0.87552-2.40128-1.32608-3.58912a496.37888 496.37888 0 0 0-9.41056-23.12192 471.68 471.68 0 0 0-8.75008-19.01056c-0.34816-0.71168-0.7168-1.40288-1.06496-2.10944a451.11808 451.11808 0 0 0-9.49248-18.11456c-0.18944-0.34816-0.36352-0.72192-0.55808-1.07008h43.02336c23.69536 45.90592 135.33696 292.97152 16.64512 665.8304zM424.45824 143.02208c1.58208-1.31072 2.51392-2.00704 2.69312-2.14016a5.1456 5.1456 0 0 1 7.18848 1.0752c0.83456 1.13664 1.13664 2.5088 0.91136 3.82976a5.63712 5.63712 0 0 1-2.24768 3.55328c-1.67936 1.31072-8.832 7.12704-19.00544 18.48832-1.99168 2.22208-4.12672 4.72576-6.32832 7.37792h-0.15872l-4.61312 5.87776-0.06144 0.08192-19.46624 24.76032h1.88416c-26.48064 41.12896-55.30112 104.63744-69.4272 197.62688-0.37888 2.4832-2.54464 4.35712-5.28896 4.37248l-0.57344-0.1024a5.10464 5.10464 0 0 1-4.26496-5.80608c0.95232-6.25152 1.96608-12.37504 3.04128-18.3552 16.13312-89.7792 45.81376-149.64736 68.58752-184.72448 21.4272-32.96768 40.2944-50.2272 47.1296-55.91552z m162.06336 6.1184l0.02048-0.0256a5.13536 5.13536 0 0 1-1.1264-7.09632 5.2224 5.2224 0 0 1 4.20864-2.13504c1.10592 0 2.1248 0.33792 3.0208 0.9984 0.11776 0.08704 0.57344 0.42496 1.33632 1.03424 5.30944 4.2496 25.45664 21.5808 48.50176 57.02656l0.04608 0.07168c24.28928 37.44256 56.40704 103.03488 71.58784 203.07968a4.87424 4.87424 0 0 1-0.91648 3.70176c-0.45568 0.61952-1.4848 1.664-3.52256 2.05312l-0.6656 0.06656c-2.47808 0-4.64896-1.89952-5.03296-4.34688a672.65024 672.65024 0 0 0-7.5008-41.00608c-2.80576-12.97408-5.888-25.27232-9.19552-36.90496s-6.83008-22.62016-10.51648-32.9728c-12.89216-36.20864-27.72992-64.73216-41.89696-86.74304h1.92l-19.59936-24.86784-0.06656-0.0768-4.54656-5.77536h-0.14336c-12.52352-15.0528-22.13376-23.296-25.91232-26.08128z m122.50624 26.06592h-45.44512l-0.3328-0.47616c-0.8192-1.19808-1.62304-2.3296-2.44224-3.48672-0.90112-1.28512-1.80736-2.5856-2.69312-3.82464a281.47712 281.47712 0 0 0-2.44736-3.32288c-0.86016-1.16224-1.72032-2.33472-2.56512-3.44576-0.8192-1.08032-1.61792-2.10944-2.432-3.1488a243.11296 243.11296 0 0 0-2.42688-3.0976c-0.79872-1.00352-1.5872-1.96608-2.37056-2.92864a315.31008 315.31008 0 0 0-2.32448-2.82624c-0.768-0.9216-1.52064-1.80224-2.27328-2.68288-0.7424-0.86528-1.47456-1.72032-2.19648-2.54464a239.44704 239.44704 0 0 0-2.2016-2.47808l-2.048-2.26816a248.704 248.704 0 0 0-4.00384-4.27008 260.28032 260.28032 0 0 0-3.72224-3.80416c-0.60928-0.60928-1.20832-1.20832-1.792-1.77664-0.55808-0.54784-1.09568-1.05984-1.62816-1.57184a136.7552 136.7552 0 0 0-3.08736-2.89792l-1.41312-1.29024-1.29536-1.152c-0.41984-0.36864-0.8448-0.74752-1.2288-1.0752-0.38912-0.33792-0.73728-0.62464-1.09056-0.92672l-1.02912-0.8704-0.896-0.73216-0.7936-0.64-0.73216-0.57344c-0.16896-0.128-0.36352-0.28672-0.50688-0.38912a35.584 35.584 0 0 0-21.98528-7.54688 36.1728 36.1728 0 0 0-28.94848 14.6432 35.64544 35.64544 0 0 0-6.87104 19.7632 35.79904 35.79904 0 0 0 14.52544 30.28992l0.18944 0.13824 0.23552 0.18944 0.41984 0.34304a38.67136 38.67136 0 0 1 0.7936 0.68096H449.92512c1.05472-0.9216 1.68448-1.42848 1.7152-1.45408 15.744-11.71968 19.09248-34.14016 7.4496-49.9968a36.00384 36.00384 0 0 0-34.59584-14.15168 35.5072 35.5072 0 0 0-15.5392 6.52288 69.80096 69.80096 0 0 0-3.06688 2.4064 79.22176 79.22176 0 0 0-1.76128 1.46944l-0.94208 0.7936-1.29536 1.13152-1.23904 1.09568-1.43872 1.31072-1.46944 1.3568-1.55648 1.47968c-0.55808 0.53248-1.1264 1.0752-1.7152 1.65376-0.54784 0.53248-1.11104 1.09568-1.68448 1.664-0.61952 0.61952-1.24416 1.24928-1.8944 1.91488-0.59392 0.60416-1.19296 1.2288-1.81248 1.8688-0.68608 0.71168-1.37728 1.44384-2.08384 2.19648-0.62976 0.67072-1.25952 1.3568-1.90976 2.06336a234.3936 234.3936 0 0 0-4.26496 4.75648 305.408 305.408 0 0 0-4.48 5.23264c-0.83456 0.9984-1.68448 2.03776-2.53952 3.09248a267.03872 267.03872 0 0 0-4.82816 6.08256c-0.73728 0.94208-1.4592 1.8688-2.2016 2.84672-0.92672 1.21856-1.86368 2.49856-2.81088 3.77344-0.73728 1.00352-1.46944 1.98144-2.21696 3.01568-0.96768 1.34144-1.95072 2.75456-2.92864 4.15232-0.74752 1.06496-1.4848 2.09408-2.23744 3.19488-0.11776 0.1792-0.24064 0.34304-0.36352 0.52224H247.3984V99.7888c0-19.7632 16.08192-35.84 35.84-35.84h457.3696c19.75808 0 35.84 16.0768 35.84 35.84v75.4176h-67.42016z" p-id="9891"></path></svg>