<?xml version="1.0" standalone="no"?><!DOCTYPE svg PUBLIC "-//W3C//DTD SVG 1.1//EN" "http://www.w3.org/Graphics/SVG/1.1/DTD/svg11.dtd"><svg t="1555589957512" class="icon" style="" viewBox="0 0 1024 1024" version="1.1" xmlns="http://www.w3.org/2000/svg" p-id="11456" xmlns:xlink="http://www.w3.org/1999/xlink" width="48" height="48"><defs><style type="text/css"></style></defs><path d="M141 281.2h236.4c9 0 16.3 7.3 16.3 16.3s-7.3 16.3-16.3 16.3H149.6l-8.6-32.6z m18.2 77.1h223.2c10.9 0 20.7 6.5 25 16.4 2.6 6-0.2 12.9-6.1 15.5-1.5 0.6-3.1 1-4.7 1H165.2l-6-32.9z" fill="#91D0ED" p-id="11457"></path><path d="M719.8 720.9l46.5-101.2c5.7-12.5 20.5-17.9 33-12.2l1.8 0.9c12.5 7.1 17.8 22.4 12.4 35.7l-31.6 76.8h51.9l59-29c14.9-7.3 32.9-1.2 40.2 13.7 2 4.1 3.1 8.6 3.1 13.2 0 22.5-15 42.2-36.7 48.2l-43.1 11.9H152.4c-15.9 0-29.9-10.4-34.6-25.6-2.7-8.7-0.4-17.8 5.2-24.1-13.7-31.9-20.8-61.6-21.2-89.1-0.4-23.5 1.5-50.8 5.3-87.6 0.9-8.4 1.8-17 3.1-28.5 4.9-43.3 5.3-46.7 6.5-61.4 1.7-19.9 2.2-34.4 1.4-44.5-5.8-69.5-16.1-118.5-30.3-146.3l-1.2-2.3-0.1-2.5c-1-18.3 9.4-30 27.3-30 15.8 0 28 8.7 35.1 24.4l0.5 1.2 0.3 1.3c0.6 2.8 1.2 5.6 1.7 8.3h225.9c14 0 25.3 11.3 25.3 25.3s-11.3 25.3-25.3 25.3H162.1c1.9 9 3.8 17.9 5.7 26.5h214.6c14.4 0 27.5 8.6 33.2 21.8 4.5 10.5-0.3 22.7-10.8 27.3-2.6 1.1-5.4 1.7-8.2 1.7H179c15.2 68.2 28.3 122.7 39.4 163.5 3.9 14.3 7.8 28.2 11.9 41.5L407.8 434c11.6-11.2 29.8-11.4 41.6-0.5 11.3 10.4 12 28.1 1.6 39.4-0.4 0.4-0.8 0.9-1.3 1.3L249.9 664.7c7.3 20.2 14.7 38.9 22.4 56.3h106.5l93.8-232.5c5.2-12.9 19.9-19.1 32.8-13.9 2.1 0.9 4.1 2 5.9 3.4 13.2 10.1 18 27.8 11.8 43.3l-81 199.8h54.7L575 539.8c5.4-12.5 19.8-18.2 32.3-12.8 1.2 0.5 2.4 1.2 3.6 1.9 12.6 8.1 17.5 24.2 11.5 38l-67 154.1H571l67-152.2c6-13.5 21.7-19.6 35.2-13.7 0.5 0.2 1.1 0.5 1.6 0.8 13.6 7.1 19.5 23.5 13.4 37.7L633.6 721h16.1L708 594.5c5.7-12.3 20-18.1 32.6-13 12.4 5 18.5 19.1 13.5 31.5l-0.3 0.6-46.2 107.5h12.2z m19.8 0h22.8l34.5-83.6c2-4.9 0.1-10.5-4.6-13.1-0.2-0.1-0.3-0.2-0.5-0.3-3.5-1.6-7.5-0.1-9.1 3.4l-43.1 93.6z m-51.6 0l49.3-114.6c0-0.1 0-0.1 0.1-0.2 1.3-3.2-0.3-6.8-3.5-8.1-3.7-1.5-7.9 0.2-9.6 3.8l-54.8 119H688z m-97.4 0H614l57.6-134.5c2.3-5.5 0.1-11.8-5.2-14.6-0.2-0.1-0.3-0.2-0.5-0.2-4.4-1.9-9.6 0.1-11.5 4.5l-63.8 144.8z m-55 0l70.2-161.3c2.5-5.7 0.5-12.3-4.7-15.7-0.3-0.2-0.6-0.4-1-0.5-3.3-1.4-7.2 0.1-8.6 3.4l-75.1 174h19.2z m-137.4 0h24.4l83.7-206.5c3.2-7.9 0.7-17-6-22.2-0.5-0.4-1.1-0.7-1.7-1-3.7-1.5-7.9 0.3-9.4 4l-91 225.7z m-252.7 0h100.6c-18.2-42.7-35.1-93.1-50.9-151-17.7-65.5-40.6-165.3-68.7-299.7-3.3-6.6-7.1-9.2-12.7-9.2-3 0-3.5-0.1-3.5 2.2 15.3 31.4 25.7 82.3 31.7 152.9 1 11.8 0.5 27.4-1.4 48.6-1.3 15.1-1.7 18.4-6.6 62.1-1.3 11.5-2.2 20-3.1 28.3-3.7 35.9-5.5 62.5-5.2 84.8 0.5 24.5 7 51.5 19.8 81z m90.8-96.5c2.3 7.4 4.7 14.6 7.1 21.6l194-184.9c0.2-0.1 0.3-0.3 0.4-0.5 3.7-4 3.5-10.3-0.6-14-4.8-4.4-12.2-4.4-16.9 0.2l-184 177.6z m-78-319.6h219.1c4 0 7.3-3.3 7.3-7.3s-3.3-7.3-7.3-7.3H155.2c1.1 4.9 2.1 9.8 3.1 14.6z m16.7 77.3h221.6c0.4 0 0.7-0.1 1.1-0.2 1.4-0.6 2-2.2 1.4-3.6-2.9-6.7-9.5-11-16.7-11H171.8c1.1 5 2.1 10 3.2 14.8zM892.9 744c11.3-3.1 19.1-13.4 19.1-25.1 0-0.9-0.2-1.8-0.6-2.7-1.5-3-5.1-4.2-8.1-2.8l-64 31.4H141.9c-0.1 0-0.2 0-0.4 0.1-0.6 0.2-1 0.9-0.8 1.5 1.6 5.1 6.3 8.6 11.6 8.6H853l39.9-11z" p-id="11458"></path></svg>