<?xml version="1.0" standalone="no"?><!DOCTYPE svg PUBLIC "-//W3C//DTD SVG 1.1//EN" "http://www.w3.org/Graphics/SVG/1.1/DTD/svg11.dtd"><svg t="1555404877691" class="icon" style="" viewBox="0 0 1024 1024" version="1.1" xmlns="http://www.w3.org/2000/svg" p-id="8571" xmlns:xlink="http://www.w3.org/1999/xlink" width="48" height="48"><defs><style type="text/css"></style></defs><path d="M399.36 73.83S373.89 192.2 473 149.62c24.88-10.69 64.67-40.94 77-75.79-23.32 8.39-14.42 4.57-88.31 0-70.55-4.28-62.33 0-62.33 0z" fill="#FFE8C0" p-id="8572"></path><path d="M894.13 862.57c51.67-50.27-66.33-571.14-66.33-571.14-16.57-66.28-35.38-83.05-50.53-87l-0.44 0.34-126.2-53.17s-21.92 98.62-115.36 97.82-120.61-99.83-120.61-99.83l-128.39 54 0.81 3c-14 6.74-30.18 26.79-44.68 84.78 0 0-120.62 532.45-64.51 572.56l-1.43-0.17-27.85 79.12s29.06-5.87 56.73 9.85c20.91 11.88 50 6.39 60.84 4.24l-5.05-81c12-5.93 36.53-38.57 69.83-188.16 0 0-17.76 152.48-20.73 187.44C341 889.25 433.92 912 531.71 912c112.79 0 203.63-22.75 229.68-37.14 0-2.81-18.25-93.76-27.16-207.1l0.95 1.45q3.35 15.67 6.58 29.8c31.9 139.54 55.47 171 67.18 177L804 954.68c10.87 2.15 39.93 7.64 60.84-4.24 27.67-15.72 56.73-9.85 56.73-9.85z" fill="#FCC7BE" p-id="8573"></path><path d="M593.02 73.83L496.19 186.4l47.45 69.87 78.06-137.86-28.68-44.58zM399.36 73.83l96.83 112.57-47.46 69.87-78.05-137.86 28.68-44.58z" fill="#FFFFFF" p-id="8574"></path><path d="M868.74 707.26a10 10 0 0 0-9.32 10.66c0.54 8.09 0.95 15.84 1.21 23a10 10 0 0 0 10 9.65h0.37a10 10 0 0 0 9.64-10.37c-0.27-7.39-0.69-15.35-1.25-23.63a10 10 0 0 0-10.65-9.31z" fill="#5D354A" p-id="8575"></path><path d="M869.24 829.08c9.13-14.16 11.14-38.31 11.66-58.13a10 10 0 0 0-9.74-10.27 9.89 9.89 0 0 0-10.27 9.74c-0.7 26.65-4.28 39.93-7.54 46l-81.56 9.91h-0.16c-9.55-11.76-29.74-48.84-56.31-165.06q-3.21-14.09-6.55-29.66v-0.16c-4.57-58.14-5.27-104.41-4.52-138.62 3-138.73 34-270 44-309 12.66 10.55 24 35.47 33.68 74.3 0.58 2.58 58.57 259.64 74.89 427.43a10 10 0 0 0 10 9 9.36 9.36 0 0 0 1 0 10 10 0 0 0 9-10.93c-16.44-169-74.71-427.33-75.34-430.14-14.47-57.85-32.81-87.8-57.74-94.23l-0.56-0.11-114.1-48.07-27.64-42.67-0.06-0.08c-0.17-0.25-0.34-0.49-0.53-0.73l-0.31-0.37-0.36-0.39-0.35-0.35c-0.17-0.16-0.35-0.31-0.53-0.46s-0.36-0.28-0.55-0.41l-0.35-0.24-0.5-0.3-0.27-0.14a10 10 0 0 0-1.09-0.48l-0.19-0.07-0.67-0.21h-0.16a10 10 0 0 0-1.36-0.25h-1.7a10.15 10.15 0 0 0-1.09 0.12h-0.09a10.23 10.23 0 0 0-1.3 0.3c-0.33 0.1-33.69 10.37-93.81 10.37s-93.33-10.22-93.8-10.37a10 10 0 0 0-3.53-0.44h-0.36c-0.28 0-0.55 0.06-0.83 0.11l-0.47 0.1-0.59 0.15-0.45 0.14-0.57 0.22-0.57 0.25-0.56 0.29-0.38 0.23-0.52 0.35-0.3 0.21c-0.24 0.19-0.48 0.39-0.71 0.61l-0.27 0.27q-0.24 0.24-0.47 0.51l-0.23 0.27c-0.19 0.24-0.38 0.49-0.56 0.76v0.1l-26.39 41-117.67 49.5a10 10 0 0 0-5.68 6.28c-18.47 12.37-32.85 40.94-44.7 88.33a10 10 0 0 0 19.43 4.86c8.67-34.7 18.58-58.28 29.56-70.5 11 44.38 39.1 168.43 44.34 292.17 2.43 57.21 0.28 115-3.59 167.14a9.91 9.91 0 0 0-1.24 3c-29.75 133.64-51.65 169-60.54 178.26L146 819c-8.66-11.14-29.84-77.77 50.41-469.23a10 10 0 1 0-19.61-4c-15.31 74.59-36.2 183.63-48.8 279.34-19.84 150.06-9.41 189.64 1.18 204.73L103 904.16a10 10 0 0 0 11.4 13.14c0.25-0.06 25.67-5 49.8 8.74 11.83 6.72 25.56 8.69 37.79 8.69a152.88 152.88 0 0 0 29.94-3.33 10 10 0 0 0 8.07-10.45l-4.68-75c8.67-7.13 21.59-25.16 38.08-74.44-1.55 12.09-3 22.93-4.26 32.27-2.19 16.3-3.77 28.08-4.38 35.23a10 10 0 0 0 5.85 10c30.69 13.91 113.11 33.94 201.72 37.14a9.9 9.9 0 0 0 5.22 0.17q9.3 0.26 18.66 0.27 9.44 0 18.7-0.21a9.85 9.85 0 0 0 4.56-0.11c102.06-2.84 185.15-23.66 211.22-38.06a10 10 0 0 0 5.17-8.77c0-1.33-0.14-2.18-1.68-11q-4.92-28.13-8.87-54.34c16 47 28.54 64.61 37 71.72l-4.54 72.77a10 10 0 0 0 8.12 10.41 152.77 152.77 0 0 0 29.94 3.33c12.23 0 26-2 37.79-8.69 23.88-13.57 49.58-8.79 49.8-8.75a10 10 0 0 0 11.43-13.14zM174.1 908.63c-17.23-9.79-34.84-12.11-47.16-12.22l19.54-55.53c0.52 0.06 1 0.1 1.51 0.13l65.39 9.2a15.5 15.5 0 0 0 2.18 0.85l3.88 62.23c-12.16 1.84-31.44 3.23-45.34-4.66z m334.68-721.51l83.08-96.58 14 21.78a10 10 0 0 0 1.8 10.54l-64.8 114.46z m-59.27 50.2l-65-114.74a10 10 0 0 0 3.82-12.3c-0.07-0.17-0.16-0.33-0.24-0.49l12.38-19.25 83.08 96.58z m116.63-147.6l-70 81.32-69.9-81.32a460.69 460.69 0 0 0 69.95 5 460.79 460.79 0 0 0 69.95-5zM289 806.46c8.57-63.86 26.4-196.76 20.86-327.23-5.68-133.33-37.48-266.88-46.86-303.76a10 10 0 0 0 1.2-2.11L366 130.53l74 130.67a10 10 0 0 0 8.31 5.07h0.41a10 10 0 0 0 8.28-4.37l8.22-12.11v616c-79.07-3.78-150-20.93-179.78-32.31 0.82-6.86 2.07-16.14 3.56-27.02zM527 866V740.59a10 10 0 0 0-20 0v125.88q-5.34 0.07-10.74 0.07-5.48 0-10.93-0.1V220.86v-0.52l10.95-16.12 11.49 16.92a10 10 0 0 0-0.71 3.7v424a10 10 0 0 0 20 0V249.58l8.37 12.32a10 10 0 0 0 8.28 4.39h0.41a10 10 0 0 0 8.31-5.07l73.41-129.68 103.92 43.79c-9.1 35-42.35 172-45.52 317.12-1.47 67.5 2.59 181.19 30.3 339.46 0.11 0.63 0.22 1.23 0.31 1.79C685.82 846.48 614.68 862.76 527 866z m296.72 40.31c-13.88 7.89-33.17 6.51-45.34 4.66l3.73-59.84a15.51 15.51 0 0 0 2.33-0.9l65.38-9.2c0.79 0 1.57-0.11 2.32-0.21l18.75 53.26c-12.33 0.09-29.94 2.41-47.18 12.2z" fill="#5D354A" p-id="8576"></path><path d="M249.68 916.36a1.18 1.18 0 0 1 0.5-0.19h-0.5zM249.68 919.79c1.43 0 3-0.22 3-2.73l-3 0.25zM184.44 309a10 10 0 1 0 19.56 4.12c2-9.66 2.78-13.13 4-18.73l1-4.75a10 10 0 0 0-19.58-4.22l-1 4.74c-1.18 5.63-1.93 9.12-3.98 18.84zM517 674.64a10 10 0 0 0-10 10v19.23a10 10 0 1 0 20 0v-19.22a10 10 0 0 0-10-10.01z" fill="#5D354A" p-id="8577"></path></svg>