<?xml version="1.0" standalone="no"?><!DOCTYPE svg PUBLIC "-//W3C//DTD SVG 1.1//EN" "http://www.w3.org/Graphics/SVG/1.1/DTD/svg11.dtd"><svg t="1555589539145" class="icon" style="" viewBox="0 0 1024 1024" version="1.1" xmlns="http://www.w3.org/2000/svg" p-id="3526" xmlns:xlink="http://www.w3.org/1999/xlink" width="48" height="48"><defs><style type="text/css"></style></defs><path d="M391.6928 271.3856c-48.128 0-48.128 48.128-48.128 48.128v48.128H487.936c-24.064-48.128-72.1792-96.256-96.2432-96.256z" fill="#CCCCCC" p-id="3527"></path><path d="M680.4352 560.128c-48.128 0-168.4352-168.4352-192.4864-192.4864-24.064-24.064-48.128-48.128-72.1792-48.128 0 0-24.064 0-48.128 24.064s-72.1792 48.128-120.3072 48.128h-48.128c-24.064 0-48.128 0-48.128 24.064v48.128c0 24.064-24.064 72.0896-24.064 144.3712v72.1792h697.7792v-96.2432c-120.3072-24.0768-144.3584-24.0768-144.3584-24.0768z" fill="#E6E6E6" p-id="3528"></path><path d="M487.936 367.6288c-24.064-24.064-48.128-48.128-72.1792-48.128 0 0-24.064 0-48.128 24.064l72.1792 72.1792c17.0112 17.0112 0 24.064 24.064 48.128s48.128 0 72.1792 24.064c48.128 48.128 72.1792 96.2432 144.3712 96.2432v-24.064C632.3072 560.128 512 391.6928 487.936 367.6288z" fill="#D46557" p-id="3529"></path><path d="M536.064 584.1792c0-48.128-48.128-72.1792-48.128-72.1792s2.2784 48.128-24.064 48.128c-19.8912 0-58.112-14.2208-101.184-33.728 39.3984-50.176 95.8208-105.2672 125.248-134.6944 0 0 0-24.064-24.064-48.128s-48.128-24.064-48.128-24.064c-62.9632 62.9632-119.1936 112.5888-164.9408 151.2576-55.7312-29.5424-99.7376-55.0144-99.7376-55.0144v24.0384s31.1808 22.6816 74.0864 52.4672c-61.3632 50.9952-98.1504 79.0656-98.1504 91.9168v96.2432H319.488v-72.1792c0-11.4304 5.888-26.0352 15.5648-42.368 56.96 36.3648 109.7856 66.432 128.8064 66.432 24.0768 0 72.2048 0 72.2048-48.128z m288.7424 0s-24.064 48.128-96.2432 48.128c-24.064 0-24.064-24.064-24.064-48.128 0 0 0-24.064-24.064-24.064s-48.128 24.064-72.1792 48.128-96.256 72.192-96.256 72.192h360.9216v-48.128c0-48.128-48.1152-48.128-48.1152-48.128z" fill="#ED7161" p-id="3530"></path><path d="M872.9216 632.3072c-24.064 0-55.3344 48.128-360.9216 48.128-120.3072 0-336.8576-24.064-360.9216-24.064-24.064 0-24.064 0-24.064 24.064 0 48.128 0 72.1792 84.2112 72.1792H512c72.1792 0 384.9856 0 384.9856-96.2432 0 0 0-24.064-24.064-24.064z" fill="#CCCCCC" p-id="3531"></path></svg>