<?xml version="1.0" standalone="no"?><!DOCTYPE svg PUBLIC "-//W3C//DTD SVG 1.1//EN" "http://www.w3.org/Graphics/SVG/1.1/DTD/svg11.dtd"><svg t="1555404799519" class="icon" style="" viewBox="0 0 1024 1024" version="1.1" xmlns="http://www.w3.org/2000/svg" p-id="6954" xmlns:xlink="http://www.w3.org/1999/xlink" width="48" height="48"><defs><style type="text/css"></style></defs><path d="M512 500.3m-68.9 0a68.9 68.9 0 1 0 137.8 0 68.9 68.9 0 1 0-137.8 0Z" fill="#FF64CB" p-id="6955"></path><path d="M863.5 465.2s-38.2 36.8-118.8 59.3l5.7 38.1 72.8-28.7 50-31.4 3.4-19.4-13.1-17.9zM279.5 524.5C199 502 160.8 465.2 160.8 465.2L148 494.8l56.4 40.8 64.9 24.6c0 0.1 12.4 8.5 10.2-35.7M512 256.9c127.7 0 151.9-121.9 151.9-121.9l-29.7-16.5c-29.8 107-121.9 102.9-121.9 102.9" fill="#FF64CB" p-id="6956"></path><path d="M513 221.4s-92.1 4.1-121.9-102.9L360.4 135s24.2 121.9 151.9 121.9" fill="#FF64CB" p-id="6957"></path><path d="M775.1 513.6l-15.6-207.4c-1.1-14.7-14-25.8-28.7-24.7l-8.6 0.6L739.4 524l4.8-1.8 30.9-8.6zM284.6 523.7L302.3 282l-8.6-0.7c-14.7-1.1-27.6 9.9-28.8 24.6l-16 206.3 30.9 11.4 4.8 0.1zM630.6 118.5s-22 97.4-120.6 100.1-116.1-100.1-116.1-100.1 107.4 35 236.7 0z" fill="#B9C1C4" p-id="6958"></path><path d="M779.7 558.7c-3.1 0-5.9-2-6.7-5.1l-4.3-15.5c-1-3.7 1.1-7.6 4.9-8.6 3.7-1 7.6 1.1 8.6 4.9l4.3 15.5c1 3.7-1.1 7.6-4.9 8.6-0.7 0.1-1.3 0.2-1.9 0.2zM808.3 546.9c-2.9 0-5.6-1.8-6.6-4.7l-5.1-14.5c-1.3-3.6 0.6-7.6 4.3-8.9 3.6-1.3 7.6 0.6 8.9 4.3l5.1 14.5c1.3 3.6-0.6 7.6-4.3 8.9-0.7 0.2-1.5 0.4-2.3 0.4zM834.2 533.2c-2.6 0-5.1-1.5-6.3-4l-6.3-13.1c-1.7-3.5-0.2-7.7 3.3-9.3 3.5-1.7 7.7-0.2 9.3 3.3l6.3 13.1c1.7 3.5 0.2 7.7-3.3 9.3-1 0.5-2 0.7-3 0.7zM857.4 517.5c-2.6 0-5.1-1.5-6.3-4l-5.5-11.6c-1.7-3.5-0.2-7.7 3.3-9.3 3.5-1.7 7.7-0.2 9.3 3.3l5.5 11.6c1.7 3.5 0.2 7.7-3.3 9.3-1 0.4-2 0.7-3 0.7zM244.6 558.7c-0.6 0-1.3-0.1-1.9-0.3-3.7-1-5.9-4.9-4.9-8.6l4.3-15.5c1-3.7 4.9-5.9 8.6-4.9 3.7 1 5.9 4.9 4.9 8.6l-4.3 15.5c-0.8 3.2-3.6 5.2-6.7 5.2zM215.9 546.9c-0.8 0-1.6-0.1-2.3-0.4-3.6-1.3-5.5-5.3-4.3-8.9l5.1-14.5c1.3-3.6 5.3-5.5 8.9-4.3 3.6 1.3 5.5 5.3 4.3 8.9l-5.1 14.5c-1 2.9-3.7 4.7-6.6 4.7zM190.1 533.2c-1 0-2.1-0.2-3-0.7-3.5-1.7-5-5.9-3.3-9.3l6.3-13.1c1.7-3.5 5.9-4.9 9.3-3.3 3.5 1.7 5 5.9 3.3 9.3l-6.3 13.1c-1.2 2.6-3.7 4-6.3 4zM277.6 531.2c-81.3-22.7-120.1-59.4-121.7-61l9.7-10.1c0.4 0.3 38.2 35.9 115.8 57.6l-3.8 13.5z" p-id="6959"></path><path d="M512.1 912.6v-14c154.5 0 232.5-18.2 244.9-23.1 6.4-2.5 5.8-7.6 5.8-7.8v-0.3c-0.8-11.4-20.4-279.9-20.9-293.5-0.5-15.4 11.9-22.4 18.6-23.9l0.4-0.1c39.2-6.9 91.6-39 104.3-51.3 2.8-2.7 3.7-6.9 2.1-10.5-25.5-61.2-69.5-191.9-69.9-193.3-1.3-3.9-2.6-7.7-3.9-11.5-16.6-49.6-27.6-82.3-72.8-106.8-27.2-12.1-76.5-46.5-78.5-47.9-5.2-3.7-13.7-7.1-24.6-2.9-1.5 0.6-36.8 13.6-105.4 13.6v-14c65.7 0 100.1-12.5 100.4-12.6 17.4-6.8 31.1-0.1 37.6 4.5 17.4 12.2 55.7 37.6 76.4 46.7l0.5 0.2c50.3 27 62.7 63.8 79.7 114.8 1.2 3.7 2.5 7.5 3.8 11.4 0.4 1.3 44.3 131.6 69.6 192.3 3.7 9 1.7 19.1-5.3 25.9-15.2 14.8-70.4 47.7-111.3 55-1.5 0.4-7.9 2.6-7.6 9.7 0.5 13.3 20.4 285.7 20.9 292.9 0.6 5.6-1.7 17.2-14.6 22.3-16 6.3-96.1 24.2-250.2 24.2z" p-id="6960"></path><path d="M748.9 581.7c-3.6 0-6.7-2.8-7-6.5L720.2 283c-0.3-3.9 2.6-7.2 6.5-7.5 3.9-0.3 7.2 2.6 7.5 6.5L756 574.2c0.3 3.9-2.6 7.2-6.5 7.5h-0.6zM513.7 228.4H512l0.6-14-0.3 7 0.3-7c0.2 0 22.1 0.7 47.1-11 33.2-15.6 56-44.8 67.7-86.8l13.5 3.8c-16.1 57.8-50.2 84.1-75.9 96-24.1 11.1-45.3 12-51.3 12z" p-id="6961"></path><path d="M512 263.9v-14c50.6 0 90.3-19.5 118.1-58.1 20.9-28.9 26.8-57.9 26.9-58.2l13.7 2.7c-0.3 1.3-6.6 32.3-29.2 63.7-21 29.2-60.6 63.9-129.5 63.9zM746.6 531.2l-3.8-13.5c77.6-21.7 115.4-57.2 115.8-57.6l9.7 10.1c-1.5 1.6-40.3 38.3-121.7 61zM515.2 176.7c-16.5 0-31.6-1.3-44.5-3-41.6-5.6-69.3-16.9-70.4-17.3l5.3-12.9c0.3 0.1 27.4 11.1 67.4 16.5 36.6 4.9 91.9 5.8 147-17.4l5.4 12.9c-38.6 16.1-77.3 21.2-110.2 21.2zM663.9 905.7c-3.7 0-6.8-2.9-7-6.6l-9.9-181c-0.2-3.9 2.7-7.2 6.6-7.4 3.9-0.2 7.2 2.7 7.4 6.6l9.9 180.9c0.2 3.9-2.7 7.2-6.6 7.4-0.2 0.1-0.3 0.1-0.4 0.1zM652.5 691.8c-3.6 0-6.7-2.8-7-6.4l-1.6-18c-0.3-3.9 2.5-7.2 6.4-7.6 3.9-0.3 7.2 2.5 7.6 6.4l1.6 18c0.3 3.9-2.5 7.2-6.4 7.6-0.2-0.1-0.4 0-0.6 0z" p-id="6962"></path><path d="M653.2 172.5c-1.3 0-2.7-0.4-3.9-1.2l-12.1-8.1c-3.2-2.1-4.1-6.5-1.9-9.7s6.5-4.1 9.7-1.9l12.1 8.1c3.2 2.1 4.1 6.5 1.9 9.7-1.4 2-3.6 3.1-5.8 3.1zM639.1 198.3c-1.3 0-2.7-0.4-3.9-1.2l-12.1-8.1c-3.2-2.1-4.1-6.5-1.9-9.7s6.5-4.1 9.7-1.9l12.1 8.1c3.2 2.1 4.1 6.5 1.9 9.7-1.3 2-3.5 3.1-5.8 3.1zM618.3 221.8c-1.7 0-3.5-0.6-4.8-2L603 209.7c-2.8-2.7-2.9-7.1-0.2-9.9 2.7-2.8 7.1-2.9 9.9-0.2l10.5 10.1c2.8 2.7 2.9 7.1 0.2 9.9-1.4 1.4-3.2 2.2-5.1 2.2zM592.8 242.6c-2.5 0-4.9-1.3-6.2-3.7l-6.9-12.8c-1.8-3.4-0.5-7.7 2.9-9.5 3.4-1.8 7.7-0.5 9.5 2.9l6.9 12.8c1.8 3.4 0.5 7.7-2.9 9.5-1.1 0.5-2.2 0.8-3.3 0.8zM562.7 255.3c-3 0-5.9-2-6.7-5.1l-4-14c-1.1-3.7 1.1-7.6 4.8-8.7 3.7-1.1 7.6 1.1 8.7 4.8l4 14c1.1 3.7-1.1 7.6-4.8 8.7-0.8 0.2-1.4 0.3-2 0.3zM531.5 261.7c-3.4 0-6.4-2.5-6.9-5.9l-2.2-14.4c-0.6-3.8 2-7.4 5.9-8 3.8-0.6 7.4 2 8 5.9l2.2 14.4c0.6 3.8-2 7.4-5.9 8-0.4-0.1-0.7 0-1.1 0zM512.2 912.6c-154.1 0-234.2-17.9-250.1-24.1-12.9-5.1-15.2-16.7-14.6-22.3 0.5-7.2 20.4-279.6 20.9-292.9 0.3-7.4-6.6-9.4-7.6-9.7-41-7.3-96.1-40.2-111.4-55-7-6.8-9-16.9-5.3-25.9 25.3-60.7 69.1-191 69.5-192.3 1.3-3.9 2.6-7.7 3.9-11.4 17.1-50.9 29.4-87.7 79.7-114.8l0.5-0.2c20.7-9.1 59-34.5 76.4-46.7 6.6-4.6 20.2-11.3 37.7-4.5 0.3 0.1 34.6 12.6 100.3 12.6v14c-68.6 0-103.9-13-105.3-13.5-11-4.3-19.5-0.8-24.7 2.9-2.1 1.5-51.3 35.9-78.5 47.9-45.2 24.4-56.2 57.2-72.8 106.8-1.3 3.7-2.5 7.6-3.9 11.5-0.4 1.3-44.4 132-69.9 193.2-1.5 3.6-0.7 7.7 2.1 10.5 12.6 12.3 65.1 44.4 104.3 51.3l0.4 0.1c6.7 1.5 19.2 8.5 18.6 23.9-0.5 13.7-20.1 282.1-20.9 293.5v0.3c-0.1 1.4 0.2 5.6 5.8 7.8 12.4 4.9 90.4 23.1 244.9 23.1v13.9z" p-id="6963"></path><path d="M275.4 581.7h-0.5c-3.9-0.3-6.7-3.6-6.5-7.5L290.2 282c0.3-3.9 3.6-6.7 7.5-6.5 3.9 0.3 6.7 3.6 6.5 7.5l-21.8 292.2c-0.3 3.7-3.4 6.5-7 6.5zM511.6 228.4c-6.1 0-27.2-0.9-51.3-12-25.7-11.9-59.8-38.2-75.9-96l13.5-3.8c11.8 42.3 34.8 71.6 68.3 87.1 24.9 11.5 46.3 10.7 46.5 10.7l0.6 14h-1.7z" p-id="6964"></path><path d="M512.3 263.9c-68.9 0-108.5-34.7-129.5-63.9-22.6-31.4-29-62.4-29.2-63.7l13.7-2.7-6.9 1.4 6.9-1.4c0.1 0.3 6.2 29.7 27.2 58.7 27.8 38.2 67.5 57.6 117.8 57.6v14z" p-id="6965"></path><path d="M371.1 172.5c-2.3 0-4.5-1.1-5.8-3.1-2.1-3.2-1.3-7.6 1.9-9.7l12.1-8.1c3.2-2.1 7.6-1.3 9.7 1.9s1.3 7.6-1.9 9.7l-12.1 8.1c-1.2 0.8-2.5 1.2-3.9 1.2zM385.2 198.3c-2.3 0-4.5-1.1-5.8-3.1-2.1-3.2-1.3-7.6 1.9-9.7l12.1-8.1c3.2-2.1 7.6-1.3 9.7 1.9 2.1 3.2 1.3 7.6-1.9 9.7l-12.1 8.1c-1.2 0.8-2.6 1.2-3.9 1.2zM406 221.8c-1.8 0-3.7-0.7-5-2.2-2.7-2.8-2.6-7.2 0.2-9.9l10.5-10.1c2.8-2.7 7.2-2.6 9.9 0.2 2.7 2.8 2.6 7.2-0.2 9.9l-10.5 10.1c-1.4 1.3-3.2 2-4.9 2zM431.5 242.6c-1.1 0-2.2-0.3-3.3-0.8-3.4-1.8-4.7-6.1-2.9-9.5l6.9-12.8c1.8-3.4 6.1-4.7 9.5-2.9 3.4 1.8 4.7 6.1 2.9 9.5l-6.9 12.8c-1.3 2.4-3.7 3.7-6.2 3.7zM461.6 255.3c-0.6 0-1.3-0.1-1.9-0.3-3.7-1.1-5.9-4.9-4.8-8.6l4-14c1.1-3.7 4.9-5.9 8.6-4.8 3.7 1.1 5.9 4.9 4.8 8.6l-4 14c-0.8 3.1-3.6 5.1-6.7 5.1zM492.7 261.7c-0.4 0-0.7 0-1.1-0.1-3.8-0.6-6.4-4.2-5.9-8l2.2-14.4c0.6-3.8 4.2-6.4 8-5.9 3.8 0.6 6.4 4.2 5.9 8l-2.2 14.4c-0.5 3.5-3.5 6-6.9 6z" p-id="6966"></path><path d="M166.9 517.5c-1 0-2-0.2-3-0.7-3.5-1.7-5-5.8-3.3-9.3l5.5-11.6c1.7-3.5 5.8-5 9.3-3.3 3.5 1.7 5 5.8 3.3 9.3l-5.5 11.6c-1.1 2.5-3.7 4-6.3 4z" p-id="6967"></path><path d="M512 576.2c-41.8 0-75.9-34-75.9-75.9s34-75.9 75.9-75.9 75.9 34 75.9 75.9-34.1 75.9-75.9 75.9z m0-137.7c-34.1 0-61.9 27.7-61.9 61.9s27.7 61.9 61.9 61.9 61.9-27.7 61.9-61.9-27.8-61.9-61.9-61.9z" fill="#CC1D75" p-id="6968"></path></svg>