<?xml version="1.0" standalone="no"?><!DOCTYPE svg PUBLIC "-//W3C//DTD SVG 1.1//EN" "http://www.w3.org/Graphics/SVG/1.1/DTD/svg11.dtd"><svg t="1555405190903" class="icon" style="" viewBox="0 0 1024 1024" version="1.1" xmlns="http://www.w3.org/2000/svg" p-id="15245" xmlns:xlink="http://www.w3.org/1999/xlink" width="48" height="48"><defs><style type="text/css"></style></defs><path d="M627.882618 40.021317l-95.87196 292.693211-40.021316-24.19199L392.32005 40.021317z" fill="#A0C5FF" opacity=".675" p-id="15246"></path><path d="M512 597.333084m-255.999893 0a255.999893 255.999893 0 1 0 511.999786 0 255.999893 255.999893 0 1 0-511.999786 0Z" fill="#FF8EAF" opacity=".67" p-id="15247"></path><path d="M159.06148 670.549054c26.453322-71.893303 66.687972-157.439934 127.359947-284.799881-16.383993-59.519975-25.855989-101.119958-31.018653-120.618617a20.010658 20.010658 0 0 1 38.655983-10.239996c8.874663 33.535986 29.866654 129.279946 74.709303 264.106557 1.322666 0.682666 2.559999 1.578666 3.754665 2.645332 92.245295 81.621299 182.186591 81.621299 277.589217-0.256a21.247991 21.247991 0 0 1 8.490664-4.437331c43.903982-132.010612 65.578639-230.058571 74.069302-262.058558a20.010658 20.010658 0 1 1 38.655984 10.239996c-4.991998 18.858659-14.591994 61.013308-31.06132 120.618617 60.543975 127.018614 99.839958 212.309245 125.695947 284.458548l72.362637-24.149324-159.573267-479.2318a20.010658 20.010658 0 0 0-13.226661-14.591994l-42.837316-14.25066a80.7253 80.7253 0 0 1-37.546651 37.80265l-20.693325 10.325329c76.586635 97.663959-18.005326 189.013255-128.938612 244.479899l-3.498666 1.749332v52.095978c5.205331-3.157332 10.538662-7.551997 16.085327-13.098661a21.333324 21.333324 0 0 1 30.207987 30.122654c-42.453316 42.495982-90.111962 42.495982-132.565278 0a21.333324 21.333324 0 0 1 30.122654-30.16532c5.589331 5.589331 10.922662 9.941329 16.127994 13.141327v-52.053311l-3.541332-1.791999c-47.018647-23.466657-156.458601-87.167964-156.458602-170.581263 0-32.170653 14.719994-57.514643 27.562656-73.898636L338.773406 175.786593a81.151966 81.151966 0 0 1-37.119985-37.034651l-40.49065 13.482661a20.010658 20.010658 0 0 0-13.226661 14.677327l-161.706599 479.359801 72.789303 24.277323z m-13.909327 40.319983l-72.533303-24.19199-27.263989 80.682633 78.847967 26.282656c5.119998-27.519989 11.946662-54.399977 20.949325-82.773299z m734.293027-0.213333c8.703996 28.287988 15.317327 55.295977 20.394658 82.986632l78.847968-26.282656-26.879989-80.810633-72.362637 24.106657z m-218.111909-143.35994c-99.327959 76.629301-200.191917 77.653301-297.087876 2.858665-21.845324 56.40531-38.997317 119.125284-51.114645 186.666589a1176.44751 1176.44751 0 0 0-18.346659 188.714588c63.573307 23.082657 129.706613 35.839985 197.205251 38.058651V660.053058a20.010658 20.010658 0 1 1 40.021316 0v323.669199a637.311734 637.311734 0 0 0 199.89325-38.186651 1176.06351 1176.06351 0 0 0-18.346659-188.671921c-12.287995-68.693305-29.866654-132.394612-52.223978-189.525255z m62.293307-123.477282a2870.185471 2870.185471 0 0 1-27.775988 87.893296 21.759991 21.759991 0 0 0 0.426667 15.146661c24.405323 61.098641 43.519982 129.322613 56.661309 202.879915 12.458661 69.546638 19.071992 142.079941 19.071992 209.621246 0 11.477329-5.375998 15.103994-15.231993 19.583992A677.674384 677.674384 0 0 1 513.279999 1023.999573H512a677.375718 677.375718 0 0 1-244.479898-45.994647 20.010658 20.010658 0 0 1-12.799995-18.645326c0-67.583972 6.570664-140.031942 19.029326-209.621246 13.183995-73.514636 32.255987-141.781274 56.661309-202.879915a22.101324 22.101324 0 0 0 0.426667-15.146661 2937.428109 2937.428109 0 0 1-27.733322-87.893296c-89.301296 187.989255-127.70128 276.437218-143.35994 379.178508a20.010658 20.010658 0 0 1-26.069323 15.957327l-119.978616-39.97865a20.010658 20.010658 0 0 1-12.629328-25.386656L209.920126 154.581269c5.461331-18.986659 19.882658-34.005319 38.613317-40.277317l48.63998-16.213326c2.559999-10.197329 8.02133-19.626658 16.213326-27.733322L377.813389 5.845331A20.351992 20.351992 0 0 1 391.80805 0h240.469233c6.357331 0 11.989328 2.986665 15.65866 7.63733l62.719974 62.719974c7.850663 7.850663 13.226661 16.93866 15.91466 26.751989l51.541312 17.194659c18.815992 6.271997 33.279986 21.333324 38.698651 40.319984l206.165247 619.093075a20.010658 20.010658 0 0 1-12.671995 25.258656l-119.978616 39.97865a20.010658 20.010658 0 0 1-26.111989-15.957327c-15.871993-104.66129-52.351978-192.682586-140.629275-379.178508z m-35.071985-331.647862c0.042667-11.946662-9.599996-15.061327-42.751982-50.090646-6.229331 34.559986-14.847994 68.650638-25.770656 101.973291 2.901332-2.218666 0.853333-0.725333 47.23198-24.06399 12.543995-6.271997 21.290658-17.706659 21.333325-27.818655zM411.349375 184.959923a19.925325 19.925325 0 0 1-3.242665 6.911997c-4.522665 6.143997-36.095985 31.487987-36.095985 68.138638 0 46.207981 59.562642 94.634627 119.978617 127.317281v-41.599983c-6.655997-11.818662-47.317314-68.693305-80.639967-160.767933z m120.661283 160.767933v41.599983c60.415975-32.682653 119.978617-81.066633 119.978617-127.317281 0-31.31732-23.637323-55.167977-31.44532-63.01864-3.711998-3.711998-6.399997-6.442664-7.850664-11.818662-33.066653 91.306629-74.111969 148.906605-80.682633 160.5546zM608.981293 40.021317H415.018707A716.543701 716.543701 0 0 0 512 302.250541 710.997037 710.997037 0 0 0 608.981293 40.021317zM341.632071 98.645292c-14.335994 14.378661-1.109333 33.237319 15.103994 41.38665 46.506647 23.381324 44.458648 21.845324 47.402647 24.106656a754.858352 754.858352 0 0 1-25.941323-102.058624l-36.565318 36.565318z m95.99996 746.154356a25.599989 25.599989 0 1 1-0.042667 51.199979 25.599989 25.599989 0 0 1 0-51.199979z m-2.431999-153.599936a25.599989 25.599989 0 1 1 0 51.199979 25.599989 25.599989 0 0 1 0-51.199979z m153.599936 76.799968a25.599989 25.599989 0 1 1 0 51.199979 25.599989 25.599989 0 0 1 0-51.199979z" fill="#3C4765" p-id="15248"></path></svg>