<?xml version="1.0" standalone="no"?><!DOCTYPE svg PUBLIC "-//W3C//DTD SVG 1.1//EN" "http://www.w3.org/Graphics/SVG/1.1/DTD/svg11.dtd"><svg t="1554979879583" class="icon" style="" viewBox="0 0 1024 1024" version="1.1" xmlns="http://www.w3.org/2000/svg" p-id="24126" xmlns:xlink="http://www.w3.org/1999/xlink" width="64" height="64"><defs><style type="text/css"></style></defs><path d="M313.463248 153.202241c8.29185 5.484921 16.755616 11.737322 25.38311 18.753109 8.640798 7.014764 16.407692 15.098883 23.313985 24.248264 3.453658 4.877077 7.598049 10.366092 12.435217 16.467043 4.834098 6.097882 9.321296 12.198833 13.465686 18.298761 4.355191 6.036483 9.891278 12.341073 14.238282 18.86465l215.210503 0c4.199649-5.445012 9.318226-11.115152 12.978593-17.034978 3.453658-5.489014 7.253194-10.979052 11.395538-16.467043 4.143367-5.489014 7.942903-10.370185 11.396561-14.638395 6.91141-8.541537 13.814634-16.622586 20.721951-24.245194 6.903224-7.627724 16.919345-15.099906 30.040177-22.413476 5.523807-3.052522 10.193153-7.014764 13.987572-11.895935 3.798513-4.877077 6.213515-9.758248 7.252171-14.634302 1.039679-4.881171 0.349971-9.606799-2.065032-14.185071-2.427282-4.571109-7.084349-8.076956-13.987572-10.521634-6.222725-1.827625-11.57257-2.439562-16.061814-1.827625-4.488221 0.607844-8.985652 1.682315-13.465686 3.203972-4.488221 1.52575-9.154497 3.198855-13.987572 5.031597-4.834098 1.827625-10.709923 2.746554-17.609053 2.746554-6.912433 0-12.603039-1.068332-17.096377-3.198855-4.488221-2.13871-8.640798-4.729721-12.435217-7.77815-3.793396-3.048429-7.765871-6.247284-11.909238-9.606799-4.148483-3.354398-9.670244-5.946432-16.582677-7.77815-13.81054-4.877077-24.867364-5.79089-33.148981-2.741437-8.287757 3.047406-16.575514 7.928576-24.867364 14.634302-6.907317 6.105045-12.431124 10.373255-16.578584 12.809747-2.070148 1.219781-3.799536 1.832741-5.178953 1.832741-4.143367-1.832741-7.945973-3.967358-11.395538-6.407943-3.453658-1.823532-6.735401-3.811816-9.839089-5.949502-3.108804-2.130524-6.045693-4.717442-8.80555-7.774057-5.526877-4.877077-13.818727-8.080026-24.870434-9.606799-11.051707-1.521656-21.062711 0.154519-30.040177 5.031597-11.744485 6.713912-20.036335 12.349259-24.870434 16.928554-4.834098 4.571109-12.085246 7.774057-21.757536 9.606799-5.51869 1.216711-11.56336 0.910743-18.130939-0.923022-6.562463-1.827625-13.293771-3.656273-20.196994-5.483898-6.9022-1.836835-13.465686-3.048429-19.686365-3.66139-6.213515-0.611937-11.737322 0.61296-16.579607 3.66139-9.66308 6.708795-12.775978 14.793938-9.321296 24.241101C298.272267 140.231835 304.485783 147.709133 313.463248 153.202241L313.463248 153.202241zM313.463248 153.202241" p-id="24127" fill="#8a8a8a"></path><path d="M843.652516 589.148078c-4.738931-30.18344-13.104459-56.869219-25.108864-80.049151-12.007475-23.175839-26.055422-43.458791-42.169425-60.839647-16.104793-17.380856-31.734772-32.480762-46.899146-45.290509-18.317181-14.634302-34.421974-28.509311-48.322565-41.62605-13.892405-13.116739-25.577538-25.073048-35.0554-35.437094-10.495028-10.69355-19.35993-26.467815-26.629497-37.724183L402.653593 288.181445c-7.783267 15.349593-16.648169 27.894304-26.599821 38.644135-8.842389 10.365068-19.898189 21.911032-33.166377 34.410718-13.262048 12.499685-28.108175 25.821085-44.531216 39.850613-18.954701 15.855106-36.482913 33.878598-52.587706 54.007031-16.108886 20.12741-29.531594 42.25129-40.272215 66.337871-10.741645 24.098861-18.161638 49.875944-22.26612 77.32204-4.105504 27.449165-3.315512 56.112995 2.366907 86.002746 5.050016 26.832112 15.47546 53.829999 31.269168 80.973196 15.789615 27.143197 37.104059 51.690266 63.948451 73.642231 26.849508 21.965268 59.542094 39.803541 98.076736 53.527101 38.530548 13.729699 82.747609 20.585851 132.649136 20.585851 48.640814 0 92.074022-5.946432 130.289392-17.83725 38.21537-11.892865 71.218018-27.90249 99.012038-48.033993 27.799136-20.12741 50.072419-43.760666 66.806545-70.906933 16.742313-27.143197 27.957749-55.962569 33.637098-86.456071C847.598384 653.036153 848.387353 619.33868 843.652516 589.148078zM573.630662 740.986251c-0.068562 0-34.139541 0.010233-34.139541 0.010233 0 13.818727-11.148921 23.760147-24.969695 23.760147-13.818727 0-24.967648-13.018501-24.967648-28.368094l-62.083987 0c-13.820774 0-25.02086-8.898671-25.02086-22.719444 0-13.818727 11.200086-23.867594 25.02086-23.867594l145.958256 0.564865c13.701047-0.11154 24.817222-10.995425 24.817222-24.724101 0-13.726629-11.116175-24.7548-24.817222-24.866341l-116.971062 0.060375c-41.457204 0-75.063603-35.099403-75.063603-76.553537 0-41.458227 33.605376-76.55763 75.063603-76.55763l33.096792 0c0.549515-16.372899 11.499915-23.977088 24.967648-23.977088 13.467733 0 24.418133 7.604188 24.969695 23.977088l63.127759 0c13.817704 0 25.02086 10.229992 25.02086 24.047696 0 13.818727-11.203156 24.047696-25.02086 24.047696L456.455963 535.820522c-13.798261 0-25.021883 13.726629-25.021883 27.522844 0 13.798261 11.223622 26.273387 25.021883 26.273387 0.068562 0 117.105115 0.635473 117.173676 0.635473 41.266869 0.221034 74.655304 34.047444 74.655304 75.367525C648.285966 706.939831 614.897531 740.76624 573.630662 740.986251z" p-id="24128" fill="#8a8a8a"></path></svg>